<svg width="48" height="48" viewBox="0 0 48 48" fill="none" xmlns="http://www.w3.org/2000/svg">
<path fill-rule="evenodd" clip-rule="evenodd" d="M24 47.5C36.9787 47.5 47.5 36.9787 47.5 24C47.5 11.0213 36.9787 0.5 24 0.5C11.0213 0.5 0.5 11.0213 0.5 24C0.5 36.9787 11.0213 47.5 24 47.5ZM34.9177 28.6755C34.9177 33.1796 30.9521 36.4109 24.1958 36.4109C19.9364 36.4109 15.5791 34.9911 13.0823 32.739L16.2156 27.3536C17.9781 28.9203 21.7479 30.5359 24.5385 30.5359C26.7906 30.5359 27.7208 29.8994 27.7208 28.8713C27.7208 27.825 25.9753 27.5365 23.7278 27.165C19.6656 26.4936 13.9635 25.5512 13.9635 19.3734C13.9635 15.2119 17.5864 11.589 24.0979 11.589C28.1125 11.589 31.4416 12.8619 33.9875 14.7223L31.0989 20.0588C29.6791 18.688 26.9864 17.464 24.1469 17.464C22.3844 17.464 21.2094 18.1494 21.2094 19.0796C21.2094 19.9644 22.8031 20.2344 24.9037 20.5903C28.9638 21.2782 34.9177 22.287 34.9177 28.6755Z" fill="white"/>
</svg>
