<svg width="49" height="48" viewBox="0 0 49 48" fill="none" xmlns="http://www.w3.org/2000/svg">
<path fill-rule="evenodd" clip-rule="evenodd" d="M24.75 47.5C37.7287 47.5 48.25 36.9787 48.25 24C48.25 11.0213 37.7287 0.5 24.75 0.5C11.7713 0.5 1.25 11.0213 1.25 24C1.25 36.9787 11.7713 47.5 24.75 47.5ZM35.6677 28.6755C35.6677 33.1796 31.7021 36.4109 24.9458 36.4109C20.6864 36.4109 16.3291 34.9911 13.8323 32.739L16.9656 27.3536C18.7281 28.9203 22.4979 30.5359 25.2885 30.5359C27.5406 30.5359 28.4708 29.8994 28.4708 28.8713C28.4708 27.825 26.7253 27.5365 24.4778 27.165C20.4156 26.4936 14.7135 25.5512 14.7135 19.3734C14.7135 15.2119 18.3364 11.589 24.8479 11.589C28.8625 11.589 32.1916 12.8619 34.7375 14.7223L31.8489 20.0588C30.4291 18.688 27.7364 17.464 24.8969 17.464C23.1344 17.464 21.9594 18.1494 21.9594 19.0796C21.9594 19.9644 23.5531 20.2344 25.6537 20.5903C29.7138 21.2782 35.6677 22.287 35.6677 28.6755Z" fill="#0F1726"/>
</svg>
