<svg width="235" height="48" viewBox="0 0 235 48" fill="none" xmlns="http://www.w3.org/2000/svg">
<g clip-path="url(#clip0)">
<path d="M64.75 31.4914C66.8545 33.5017 69.8071 34.8209 74.0475 34.8209C79.67 34.8209 82.7796 32.0254 82.7796 27.8164C82.7796 23.0734 78.0052 22.0683 74.5501 21.3458C72.2257 20.9061 70.9379 20.5291 70.9379 19.4298C70.9379 18.5189 71.6289 17.7964 73.4193 17.7964C75.2725 17.7964 77.5655 18.5189 79.3245 19.9638L82.2771 16.1003C80.0469 14.1842 77.1257 13.1791 73.7648 13.1791C68.3936 13.1791 65.4096 16.2259 65.4096 19.7439C65.4096 24.7067 70.2468 25.5862 73.702 26.2773C75.9321 26.7484 77.2828 27.2196 77.2828 28.4132C77.2828 29.4183 76.152 30.2036 74.2988 30.2036C71.4404 30.2036 69.1161 28.9472 67.6084 27.4395L64.75 31.4914Z" fill="#0F1726"/>
<path d="M91.9655 34.8209C97.1796 34.8209 100.258 31.1145 100.258 26.8427C100.258 22.5708 97.1796 18.8958 91.9655 18.8958C86.8142 18.8958 83.7045 22.5708 83.7045 26.8427C83.7045 31.1145 86.8142 34.8209 91.9655 34.8209ZM91.9655 30.5491C89.861 30.5491 88.6988 28.8843 88.6988 26.8427C88.6988 24.8324 89.861 23.1676 91.9655 23.1676C94.1014 23.1676 95.295 24.8324 95.295 26.8427C95.295 28.8843 94.1014 30.5491 91.9655 30.5491Z" fill="#0F1726"/>
<path d="M102.336 34.444H107.174V13.4932H102.336V34.444Z" fill="#0F1726"/>
<path d="M109.203 26.8427C109.203 31.7741 112.816 34.8209 117.496 34.8209C119.82 34.8209 122.333 34.1613 123.841 32.8107L121.799 29.7952C120.951 30.5491 119.443 31.0831 118.093 31.0831C115.831 31.0831 114.512 29.7952 114.229 28.3818H125.034V27.3452C125.034 22.1939 121.768 18.8958 117.276 18.8958C112.533 18.8958 109.203 22.4452 109.203 26.8427ZM117.276 22.6336C119.506 22.6336 120.291 24.1728 120.417 25.2407H114.166C114.355 24.1413 115.171 22.6336 117.276 22.6336Z" fill="#0F1726"/>
<path d="M130.916 34.444H137.7L145.616 13.4932H139.491L134.308 28.6016L129.157 13.4932H123.031L130.916 34.444Z" fill="#0F1726"/>
<path d="M143.69 26.8427C143.69 31.7741 147.302 34.8209 151.982 34.8209C154.307 34.8209 156.82 34.1613 158.327 32.8107L156.286 29.7952C155.438 30.5491 153.93 31.0831 152.579 31.0831C150.318 31.0831 148.998 29.7952 148.716 28.3818H159.521V27.3452C159.521 22.1939 156.254 18.8958 151.763 18.8958C147.02 18.8958 143.69 22.4452 143.69 26.8427ZM151.763 22.6336C153.993 22.6336 154.778 24.1728 154.904 25.2407H148.653C148.841 24.1413 149.658 22.6336 151.763 22.6336Z" fill="#0F1726"/>
<path d="M171.704 34.444H176.541V23.7016C176.541 20.9061 174.97 18.8958 171.515 18.8958C168.971 18.8958 167.18 20.058 166.27 21.1259V19.2727H161.432V34.444H166.27V24.6439C166.835 23.9529 167.777 23.1676 169.222 23.1676C170.73 23.1676 171.704 23.8272 171.704 25.6805V34.444Z" fill="#0F1726"/>
<path d="M185.329 34.8209C187.119 34.8209 188.313 34.3812 188.909 33.8158L187.967 30.1722C187.81 30.3606 187.276 30.5491 186.742 30.5491C185.894 30.5491 185.391 29.8895 185.391 29.01V23.4817H188.47V19.2727H185.391V15.1265H180.586V19.2727H178.073V23.4817H180.586V30.3606C180.586 33.2818 182.25 34.8209 185.329 34.8209Z" fill="#0F1726"/>
<path d="M200.668 34.444H205.505V19.2727H200.668V29.0728C200.103 29.7952 199.16 30.5491 197.778 30.5491C196.208 30.5491 195.265 29.9209 195.265 28.0991V19.2727H190.428V30.0779C190.428 32.8735 191.967 34.8209 195.422 34.8209C197.967 34.8209 199.726 33.6901 200.668 32.6222V34.444Z" fill="#0F1726"/>
<path d="M208.546 34.444H213.383V24.8324C214.011 23.9529 215.676 23.4189 216.932 23.4189C217.435 23.4189 217.843 23.4817 218.126 23.576V18.8958C216.304 18.8958 214.388 19.9638 213.383 21.1888V19.2727H208.546V34.444Z" fill="#0F1726"/>
<path d="M218.848 26.8427C218.848 31.7741 222.461 34.8209 227.141 34.8209C229.465 34.8209 231.978 34.1613 233.486 32.8107L231.444 29.7952C230.596 30.5491 229.088 31.0831 227.737 31.0831C225.476 31.0831 224.157 29.7952 223.874 28.3818H234.679V27.3452C234.679 22.1939 231.413 18.8958 226.921 18.8958C222.178 18.8958 218.848 22.4452 218.848 26.8427ZM226.921 22.6336C229.151 22.6336 229.936 24.1728 230.062 25.2407H223.811C224 24.1413 224.816 22.6336 226.921 22.6336Z" fill="#0F1726"/>
<circle cx="24.75" cy="24" r="24" fill="#6C5CE7"/>
<g filter="url(#filter0_d)">
<path d="M24.95 36.675C31.85 36.675 35.9 33.375 35.9 28.775C35.9 18.875 21.9 21.625 21.9 18.975C21.9 18.025 23.1 17.325 24.9 17.325C27.8 17.325 30.55 18.575 32 19.975L34.95 14.525C32.35 12.625 28.95 11.325 24.85 11.325C18.2 11.325 14.5 15.025 14.5 19.275C14.5 29.075 28.55 25.975 28.55 28.975C28.55 30.025 27.6 30.675 25.3 30.675C22.45 30.675 18.6 29.025 16.8 27.425L13.6 32.925C16.15 35.225 20.6 36.675 24.95 36.675Z" fill="url(#paint0_linear)"/>
</g>
</g>
<defs>
<filter id="filter0_d" x="12.6" y="11.325" width="24.3" height="27.35" filterUnits="userSpaceOnUse" color-interpolation-filters="sRGB">
<feFlood flood-opacity="0" result="BackgroundImageFix"/>
<feColorMatrix in="SourceAlpha" type="matrix" values="0 0 0 0 0 0 0 0 0 0 0 0 0 0 0 0 0 0 127 0"/>
<feOffset dy="1"/>
<feGaussianBlur stdDeviation="0.5"/>
<feColorMatrix type="matrix" values="0 0 0 0 0 0 0 0 0 0 0 0 0 0 0 0 0 0 0.2 0"/>
<feBlend mode="normal" in2="BackgroundImageFix" result="effect1_dropShadow"/>
<feBlend mode="normal" in="SourceGraphic" in2="effect1_dropShadow" result="shape"/>
</filter>
<linearGradient id="paint0_linear" x1="24.75" y1="11.325" x2="24.75" y2="36.675" gradientUnits="userSpaceOnUse">
<stop stop-color="white"/>
<stop offset="1" stop-color="#E2DEFF"/>
</linearGradient>
<clipPath id="clip0">
<rect width="234" height="48" fill="white" transform="translate(0.75)"/>
</clipPath>
</defs>
</svg>
