<svg width="234" height="48" viewBox="0 0 234 48" fill="none" xmlns="http://www.w3.org/2000/svg">
<path d="M64 31.4914C66.1045 33.5017 69.0571 34.8209 73.2975 34.8209C78.92 34.8209 82.0296 32.0254 82.0296 27.8164C82.0296 23.0734 77.2552 22.0683 73.8001 21.3458C71.4757 20.9061 70.1879 20.5291 70.1879 19.4298C70.1879 18.5189 70.8789 17.7964 72.6693 17.7964C74.5225 17.7964 76.8155 18.5189 78.5745 19.9637L81.5271 16.1003C79.2969 14.1842 76.3757 13.1791 73.0148 13.1791C67.6436 13.1791 64.6596 16.2259 64.6596 19.7439C64.6596 24.7067 69.4968 25.5862 72.952 26.2773C75.1821 26.7484 76.5328 27.2196 76.5328 28.4132C76.5328 29.4183 75.402 30.2036 73.5488 30.2036C70.6904 30.2036 68.3661 28.9472 66.8584 27.4395L64 31.4914Z" fill="white"/>
<path d="M91.2155 34.8209C96.4296 34.8209 99.5079 31.1145 99.5079 26.8427C99.5079 22.5708 96.4296 18.8958 91.2155 18.8958C86.0642 18.8958 82.9545 22.5708 82.9545 26.8427C82.9545 31.1145 86.0642 34.8209 91.2155 34.8209ZM91.2155 30.5491C89.111 30.5491 87.9488 28.8843 87.9488 26.8427C87.9488 24.8324 89.111 23.1676 91.2155 23.1676C93.3514 23.1676 94.545 24.8324 94.545 26.8427C94.545 28.8843 93.3514 30.5491 91.2155 30.5491Z" fill="white"/>
<path d="M101.586 34.444H106.424V13.4932H101.586V34.444Z" fill="white"/>
<path d="M108.453 26.8427C108.453 31.7741 112.066 34.8209 116.746 34.8209C119.07 34.8209 121.583 34.1613 123.091 32.8107L121.049 29.7952C120.201 30.5491 118.693 31.0831 117.343 31.0831C115.081 31.0831 113.762 29.7952 113.479 28.3818H124.284V27.3452C124.284 22.1939 121.018 18.8958 116.526 18.8958C111.783 18.8958 108.453 22.4452 108.453 26.8427ZM116.526 22.6336C118.756 22.6336 119.541 24.1728 119.667 25.2407H113.416C113.605 24.1413 114.421 22.6336 116.526 22.6336Z" fill="white"/>
<path d="M130.166 34.444H136.95L144.866 13.4932H138.741L133.558 28.6016L128.407 13.4932H122.281L130.166 34.444Z" fill="white"/>
<path d="M142.94 26.8427C142.94 31.7741 146.552 34.8209 151.232 34.8209C153.557 34.8209 156.07 34.1613 157.577 32.8107L155.536 29.7952C154.688 30.5491 153.18 31.0831 151.829 31.0831C149.568 31.0831 148.248 29.7952 147.966 28.3818H158.771V27.3452C158.771 22.1939 155.504 18.8958 151.013 18.8958C146.27 18.8958 142.94 22.4452 142.94 26.8427ZM151.013 22.6336C153.243 22.6336 154.028 24.1728 154.154 25.2407H147.903C148.091 24.1413 148.908 22.6336 151.013 22.6336Z" fill="white"/>
<path d="M170.954 34.444H175.791V23.7016C175.791 20.9061 174.22 18.8958 170.765 18.8958C168.221 18.8958 166.43 20.058 165.52 21.1259V19.2727H160.682V34.444H165.52V24.6439C166.085 23.9529 167.027 23.1676 168.472 23.1676C169.98 23.1676 170.954 23.8272 170.954 25.6805V34.444Z" fill="white"/>
<path d="M184.579 34.8209C186.369 34.8209 187.563 34.3812 188.159 33.8158L187.217 30.1722C187.06 30.3606 186.526 30.5491 185.992 30.5491C185.144 30.5491 184.641 29.8895 184.641 29.01V23.4817H187.72V19.2727H184.641V15.1265H179.836V19.2727H177.323V23.4817H179.836V30.3606C179.836 33.2818 181.5 34.8209 184.579 34.8209Z" fill="white"/>
<path d="M199.918 34.444H204.755V19.2727H199.918V29.0728C199.353 29.7952 198.41 30.5491 197.028 30.5491C195.458 30.5491 194.515 29.9209 194.515 28.0991V19.2727H189.678V30.0779C189.678 32.8735 191.217 34.8209 194.672 34.8209C197.217 34.8209 198.976 33.6901 199.918 32.6222V34.444Z" fill="white"/>
<path d="M207.796 34.444H212.633V24.8324C213.261 23.9529 214.926 23.4189 216.182 23.4189C216.685 23.4189 217.093 23.4817 217.376 23.576V18.8958C215.554 18.8958 213.638 19.9637 212.633 21.1888V19.2727H207.796V34.444Z" fill="white"/>
<path d="M218.098 26.8427C218.098 31.7741 221.711 34.8209 226.391 34.8209C228.715 34.8209 231.228 34.1613 232.736 32.8107L230.694 29.7952C229.846 30.5491 228.338 31.0831 226.987 31.0831C224.726 31.0831 223.407 29.7952 223.124 28.3818H233.929V27.3452C233.929 22.1939 230.663 18.8958 226.171 18.8958C221.428 18.8958 218.098 22.4452 218.098 26.8427ZM226.171 22.6336C228.401 22.6336 229.186 24.1728 229.312 25.2407H223.061C223.25 24.1413 224.066 22.6336 226.171 22.6336Z" fill="white"/>
<circle cx="24" cy="24" r="24" fill="#6C5CE7"/>
<path d="M17.4476 11.777C12.7613 16.4633 12.7613 24.0613 17.4476 28.7475L34.4182 11.777C29.7319 7.09069 22.1339 7.09069 17.4476 11.777Z" fill="white"/>
<path d="M30.5524 36.223C35.2387 31.5367 35.2387 23.9387 30.5524 19.2525L13.5818 36.223C18.2681 40.9093 25.8661 40.9093 30.5524 36.223Z" fill="white"/>
</svg>
