<svg width="42" height="37" viewBox="0 0 42 37" fill="none" xmlns="http://www.w3.org/2000/svg">
<path d="M1.875 17.0625L18.375 22.375V25.3125L19.5625 26V33L19.0625 35H1.875V17.0625Z" fill="#F7EFE3"/>
<path d="M40.5 17.0625L24 22.375V25.3125L22.8125 26V33L23.3125 35H40.5V17.0625Z" fill="#F7EFE3"/>
<rect x="1.5625" y="8.5625" width="38.75" height="26.6875" stroke="#0F1726" stroke-width="2"/>
<rect x="19.4375" y="8.5625" width="3" height="26.6875" stroke="#0F1726" stroke-width="2"/>
<path d="M13.125 8.9375V3.9375C13.125 2.83293 14.0204 1.9375 15.125 1.9375H26.75C27.8546 1.9375 28.75 2.83293 28.75 3.9375V8.625" stroke="#0F1726" stroke-width="2"/>
<path d="M1.375 16.6875L20.9375 23" stroke="#0F1726" stroke-width="2"/>
<path d="M40.5 16.6875L20.9375 23" stroke="#0F1726" stroke-width="2"/>
<rect x="18.3125" y="18.4375" width="5.25" height="7.5625" rx="1" fill="#F7EFE3" stroke="#0F1726" stroke-width="2"/>
</svg>
