<svg width="753" height="833" viewBox="0 0 753 833" fill="none" xmlns="http://www.w3.org/2000/svg">
<path fill-rule="evenodd" clip-rule="evenodd" d="M320.644 419.716L320.5 419.773C318.448 420.758 316.487 427.882 315.48 430.024C312.236 436.933 308.992 443.843 305.748 450.752C304.449 453.518 302.343 456.616 301.683 459.595C301.175 461.888 301.55 464.766 301.498 467.093C300.858 496.004 300.433 525.044 302.019 553.931C302.361 560.149 302.775 566.392 303.675 572.558C304.121 575.606 304.393 580.185 306.432 582.709C308.732 585.552 313.762 585.666 317.063 585.868C323.486 586.264 329.98 585.799 336.378 585.232C351.792 583.867 367.116 581.403 382.34 578.669C386.991 577.833 391.68 576.597 396.368 576.023C398.607 575.747 397.807 575.337 398.869 576.61C400.348 578.381 400.824 582.761 401.514 584.934C403.138 590.044 404.761 595.154 406.385 600.265L419.672 642.082C424.162 656.214 428.652 670.346 433.143 684.478C434.844 689.832 436.546 695.187 438.246 700.543C439.156 703.404 439.696 707.266 441.21 709.871C442.356 711.841 441.224 711.468 443.862 710.912C449.97 709.621 456.029 707.252 462.006 705.453C468.785 703.414 475.565 701.374 482.346 699.334C484.282 698.752 486.611 698.733 487.031 697.125C487.543 695.167 485.582 690.667 485.15 688.744C483.948 683.384 482.745 678.023 481.542 672.664C478.241 657.95 474.939 643.237 471.637 628.523C467.135 608.457 462.633 588.39 458.131 568.322C466.143 567.858 474.156 567.394 482.168 566.929C494.008 566.243 505.848 565.557 517.688 564.87C523.118 564.556 529.865 565.318 534.991 563.157C540.082 561.01 541.676 558.177 540.656 553.078C539.563 547.611 538.016 542.219 536.531 536.85C534.101 528.069 531.537 519.324 528.895 510.604C513.514 513.192 498.132 515.779 482.751 518.366C474.561 519.743 466.37 521.121 458.181 522.498C456.322 522.811 451.937 524.336 450.768 523.179C448.95 521.382 448.517 514.018 447.924 511.601L442.316 488.755L421.674 404.695C418.108 405.757 414.538 406.808 410.967 407.852C395.431 412.398 379.87 417.164 364.087 420.788C356.173 422.607 348.178 422.439 340.11 421.884C335.82 421.589 331.54 421.165 327.271 420.659C325.927 420.5 321.748 419.174 320.5 419.773L320.644 419.716ZM362.146 492.089L380.399 529.101L352.561 534.464L362.146 492.089Z" fill="#6C5CE7"/>
<path fill-rule="evenodd" clip-rule="evenodd" d="M50.4183 234.846C52.1181 239.05 52.964 243.897 58.1754 243.756C62.9982 243.626 67.9064 242.02 72.6372 241.177C77.9538 240.23 83.2953 239.44 88.6263 238.592C95.3474 237.523 93.7527 235.251 93.7177 229.28C93.6868 223.828 94.4381 218.182 94.8688 212.743C95.0689 210.215 95.4743 207.832 96.0029 205.361C96.4822 203.124 95.303 200.56 95.9423 198.618C98.1239 191.99 120.074 202.793 120.935 199.303C117.291 197.74 111.361 196.478 109.375 192.689C107.041 188.237 109.681 186.032 113.919 186.772C124.348 188.596 135.968 189.112 146.53 188.003C142.67 186.669 108.43 177.157 117.052 169.411C118.996 167.665 122.567 169.055 124.81 169.347C128.368 169.812 131.957 169.808 135.538 169.784C139.312 169.759 143.086 169.698 146.858 169.586C149.503 169.508 154.487 170.387 156.785 169.245C159.118 168.085 154.345 167.699 153.534 167.526C150.001 166.772 146.487 165.888 142.992 164.976C136.79 163.358 130.875 161.151 125.533 157.535C121.502 154.807 114.352 148.416 115.227 142.952C115.734 139.785 117.789 136.442 118.695 133.33C119.752 129.696 120.393 125.949 121.169 122.248C118.749 124.168 115.76 125.28 113.252 127.092C110.743 128.904 108.138 130.521 105.444 132.086C100.04 135.224 94.3062 137.034 88.8747 139.854C82.7268 143.046 76.35 146.484 69.934 149.08C64.3476 151.339 59.5638 154.284 55.4366 158.735C47.0095 167.827 42.4182 178.918 41.8686 191.287C41.5465 198.534 42.8741 205.658 44.4577 212.694C46.1271 220.113 47.5574 227.775 50.4183 234.846ZM107.332 220.499C115.747 223.795 125.037 225.66 133.767 228.052C138.762 229.42 143.806 230.601 148.847 231.789C152.424 232.633 157.043 234.7 160.724 234.649C163.052 234.616 162.9 234.7 163.761 232.344C164.584 230.093 165.201 227.741 165.925 225.456C167.259 221.243 168.618 217.037 169.978 212.832C173.025 203.405 176.063 193.982 179.418 184.658C182.782 175.303 185.887 165.86 189.052 156.437C190.523 152.056 191.975 147.665 193.622 143.347C194.881 140.05 198.862 134.481 195.587 131.847C192.545 129.4 186.766 128.22 183.137 126.716C178.703 124.88 174.255 123.08 169.827 121.227C160.308 117.244 150.928 112.944 141.414 108.951C137.784 122.506 132.774 135.635 127.671 148.69C136.093 151.402 144.529 153.866 153.165 155.814C159.543 157.252 169.164 158.933 174.159 163.525C179.079 168.046 177.292 175.219 171.091 176.952C167.382 177.988 163.411 177.975 159.612 178.37C156.869 178.654 151.559 178.016 149.533 179.979C154.519 181.584 172.1 185.463 165.572 194.617C160.907 201.162 148.906 196.545 142.848 199.731C145.804 202.989 149.426 208.471 144.507 211.955C140.413 214.854 133.634 213.229 129.105 212.613C125.831 212.168 122.566 211.676 119.313 211.107C116.726 210.653 113.398 209.233 110.81 209.422C107.791 209.644 104.033 219.205 107.332 220.499ZM311.584 464.154C307.349 464.477 304.836 463.35 304.85 468.591C304.862 473.286 304.843 477.816 304.505 482.515C310.961 481.405 317.32 482.959 323.036 485.992C327.107 488.153 335.519 493.655 335.229 499.138C334.526 512.463 307.458 490.083 304.329 487.753C302.549 492.726 302.936 498.526 302.767 503.724C302.646 507.424 300.583 514.997 305.81 514.518C313.147 513.846 327.022 513.005 328.8 523.18C330.897 535.19 315.93 539.044 307.681 541.772C303.03 543.31 304.002 547.105 304.441 551.521C304.637 553.497 304.368 556.306 306.343 557.272C308.096 558.13 312.483 557.016 314.448 556.926C320.179 556.668 325.911 556.434 331.64 556.175C338.144 555.882 340.915 553.177 346.228 549.981C348.196 548.797 350.406 548.5 349.937 546.072C349.649 544.583 347.622 542.695 346.774 541.37C343.413 536.127 340.284 530.644 338.173 524.767C335.103 516.228 332.636 502.866 342.953 498.338C347.862 496.183 348.777 495.66 349.829 490.247C350.966 484.394 353.674 478.54 351.144 472.804C349.312 468.648 348.331 460.131 344.618 457.259C342.901 455.931 340.146 455.593 338.122 454.819C335.544 453.831 333.016 452.712 330.536 451.5C328.45 450.48 325.625 448.159 323.418 447.607C320.722 446.931 320.881 447.832 319.719 450.297C318.004 453.937 316.343 463.792 311.584 464.154ZM305.254 486.572C307.397 489.032 311.323 490.811 314.003 492.631C316.7 494.46 319.32 496.454 322.198 497.998C325.365 499.699 335.907 503.046 331.896 495.871C328.776 490.289 321.703 486.961 315.813 485.312C314.673 484.991 301.63 482.411 305.254 486.572ZM302.838 517.673C302.992 521.917 303.593 526.174 303.887 530.412C304.036 532.579 303.173 538.133 304.578 539.886C306.959 542.857 319.406 535.336 321.9 533.445C327.834 528.943 329.035 521.067 321.574 517.639C318.745 516.34 302.684 513.432 302.838 517.673ZM306.617 568.128C306.869 572.152 305.601 576.275 309.994 578.215C313.641 579.825 319.015 580.168 322.957 580.048C328.331 579.883 329.215 576.616 330.94 572.26C332.794 567.576 334.87 562.976 337.088 558.453C326.496 558.837 315.905 559.221 305.311 559.605C306.049 562.391 306.438 565.256 306.617 568.128ZM335.247 579.599C340.394 577.961 346.419 578.059 351.819 577.084C358.563 575.867 365.349 574.889 372.08 573.599C368.967 568.636 364.659 564.613 360.939 560.13C357.207 555.632 355.384 555.517 349.785 556.563C344.598 557.532 340.547 556.721 337.923 562.026C335.191 567.544 332.931 573.354 330.61 579.053C332.038 579.547 333.729 580.083 335.247 579.599ZM372.832 570.921C374.365 571.522 377.636 567.815 378.838 566.947C381.177 565.259 381.669 564.784 382.362 561.889C382.956 559.401 384.162 556.433 383.874 553.846C383.496 550.436 380.909 546.493 379.524 543.369C379.006 547.136 374.485 548.743 371.506 550.117C369.253 551.158 362.075 552.324 360.735 554.474C359.254 556.85 364.238 561.085 365.695 562.791C367.433 564.826 370.255 569.913 372.832 570.921ZM376.061 572.954C377.676 572.799 382.539 573.17 381.708 570.364C380.76 567.158 375.54 572.254 376.061 572.954ZM383.874 570.724C384.87 573.372 390.668 571.61 390.174 569.18C389.341 565.075 382.284 566.496 383.874 570.724ZM371.321 495.57C373.937 499.442 383.457 498.576 387.304 498.97C390.817 499.331 401.825 502.36 404.596 499.487C391.42 494.742 378.007 490.223 365.978 482.907C366.226 485.428 367.345 487.295 368.66 489.399C369.846 491.297 370.163 493.855 371.321 495.57ZM378.176 510.393C382.523 520.418 386.875 530.589 391.761 540.36C395.572 538.008 398.315 534.546 402.433 532.511C406.191 530.654 410.289 529.558 414.449 529.104C423.316 528.135 432.031 530.361 440.555 532.522C439.365 525.178 438.778 517.137 436.724 509.993C435.019 504.057 424.336 504.97 419.054 503.718C415.858 502.961 412.772 501.527 409.44 501.845C406.012 502.171 402.844 503.019 399.333 502.869C391.034 502.514 382.823 500.653 374.567 499.826C374.892 503.573 376.705 507.003 378.176 510.393ZM396.945 552.722C397.909 555.007 398.59 559.357 400.874 560.693C403.025 561.951 406.68 561.052 409.048 560.924C416.262 560.538 423.474 560.166 430.69 559.826C433.919 559.674 437.141 559.493 440.364 559.268C441.901 559.161 445.943 559.602 446.871 558.113C447.751 556.699 445.952 553.392 445.5 551.925C444.597 548.996 443.65 546.067 443.059 543.055C441.924 537.275 441.036 535.181 434.974 533.628C428.532 531.976 422.165 531.359 415.533 531.86C408.819 532.368 402.884 534.61 397.43 538.668C395.913 539.797 393.589 541.308 393.279 543.345C392.858 546.117 395.922 550.294 396.945 552.722ZM428.687 642.347C431.608 643.263 436.998 641.563 439.964 641.126C444.753 640.42 449.36 638.898 453.795 636.967C457.133 635.514 462.132 633.404 464.158 630.261C467.037 625.795 462.622 626.783 459.786 627.788C451.54 630.708 442.871 632.452 434.287 634.052C432.616 634.364 427.83 634.08 426.425 635.169C424.629 636.56 426.641 641.706 428.687 642.347ZM448.182 697.2C463.492 691.553 469.189 676.155 471.398 661.361C472.584 653.419 469.516 646.216 467.838 638.587C467.531 637.193 467.499 633.543 465.811 632.885C464.225 632.266 459.62 636.672 458.257 637.412C451.264 641.203 443.046 643.546 435.091 643.731C431.644 643.811 429.452 642.855 429.264 646.34C429.113 649.147 431.727 653.561 432.587 656.236C434.074 660.863 443.291 699.003 448.182 697.2ZM479.57 688.984C479.033 686.689 474.143 663.359 473.009 663.582C471.57 671.602 469.843 678.891 465.188 685.733C462.811 689.23 459.98 692.561 456.504 695.015C455.197 695.936 447.099 698.5 447.168 700.402C447.289 703.731 452.559 700.993 454.153 700.301C455.432 699.746 456.483 698.863 457.729 698.282C460.102 697.177 462.617 697.167 465.133 696.561C468.955 695.641 472.585 694.263 476.476 693.595C480.032 692.983 480.383 692.463 479.57 688.984ZM450.163 586.302C435.573 585.482 426.492 596.663 422.22 609.3C419.784 616.506 420.006 621.04 422.622 628.131C423.559 630.669 423.554 632.555 426.226 632.988C428.872 633.418 434.053 631.226 436.649 630.673C444.115 629.084 451.583 627.615 458.843 625.243C463.56 623.703 464.024 622.714 462.722 618.085C461.154 612.512 460.158 606.817 459.004 601.127C457.757 594.97 457.822 586.732 450.163 586.302ZM452.449 577.084C451.362 572.973 450.502 568.688 449.174 564.647C447.856 560.641 446.176 561.297 442.15 561.61C433.431 562.288 424.675 562.784 415.929 562.897C412.469 562.943 408.393 562.357 405.006 563.232C401.452 564.15 402.119 565.926 403.18 569.008C405.533 575.833 408.608 582.36 410.812 589.185C413.192 596.551 415.397 604.066 417.327 611.559C417.977 614.088 417.854 616.12 419.387 613.191C420.923 610.257 420.989 606.207 422.216 603.04C424.731 596.556 429.442 590.635 435.463 587.083C438.792 585.119 442.528 583.95 446.388 583.727C447.56 583.659 453.83 584.858 454.401 584.146C454.788 583.665 452.494 577.251 452.449 577.084ZM440.635 732.552C436.302 737.771 431.204 742.406 425.927 746.654C422.957 749.044 410.47 755.71 410.935 759.215C411.183 761.084 413.922 762.534 415.424 762.369C417.329 762.16 420.037 760.169 421.845 759.453C428.422 756.847 435.2 755.063 441.333 751.434C453.575 744.187 467.016 739.525 479.524 732.726C482.5 731.108 485.496 729.538 488.507 727.99C491.368 726.519 492.759 726.277 492.015 723.004C490.384 715.818 486.426 709.055 484.518 701.847C474.025 705.919 463.167 708.749 452.587 712.61C448.053 714.263 448.392 715.116 447.421 719.711C446.411 724.479 443.713 728.845 440.635 732.552ZM432.678 487.273C432.123 484.6 431.537 481.927 431.085 479.235C430.782 477.426 431.101 472.064 429.83 470.927C428.321 469.577 427.493 470.859 425.546 471.321C422.98 471.929 420.576 471.464 418.121 470.674C413.473 469.178 409.635 466.611 406.027 463.386C402.852 460.548 402.045 455.745 400.994 451.625C398.277 440.972 394.782 430.803 392.63 419.952C391.641 414.967 388.242 419.074 385.027 420.597C379.768 423.086 373.566 423.944 367.948 425.432C368.5 426.685 380.848 426.916 383.029 427.665C388.613 429.58 392.713 433.912 393.792 439.793C395.962 451.626 383.692 456.917 374.36 459.388C383.903 464.207 393.225 468.742 401.53 475.596C407.654 480.65 418.783 490.861 413.251 499.68C420.705 501.663 428.211 504.076 436.013 503.924C434.909 498.373 433.827 492.816 432.678 487.273ZM380.074 274.685C377.877 277.074 376.137 274.967 373.801 274.252C370.511 273.244 369.619 273.661 368.235 269.847C365.669 262.771 366.998 255.409 369.271 248.471C370.304 245.318 371.199 241.651 373.103 238.899C374.838 236.39 377.276 236.458 378.83 233.927C379.44 232.932 378.976 231.876 380.331 231.554C381.223 231.342 384.099 233.524 384.99 233.938C387.806 235.247 391.019 235.963 393.637 233.588C397.448 230.131 393.842 222.16 389.705 220.356C386.519 218.968 383.483 220.107 380.389 220.56C378.069 220.9 377.626 221.121 377.876 218.298C378.053 216.321 379.181 214.519 379.457 212.558C379.99 208.793 378.599 204.751 378.271 200.999C377.98 197.638 378.357 193.82 377.453 190.565C376.301 186.421 374.658 185.696 370.748 185.475C366.96 185.261 363.415 183.529 359.892 182.216C355.904 180.73 351.807 180.133 347.78 178.878C345.046 178.025 342.751 175.453 340.532 177.517C337.896 179.97 335.902 185.592 333.931 188.715C338.386 190.137 339.551 190.965 340.27 195.848C340.928 200.325 341.058 204.434 338.528 208.336C337.556 209.836 335.417 211.393 334.779 212.996C334.035 214.863 334.424 213.287 335.033 215.015C335.36 215.947 336.277 216.372 336.402 217.516C336.951 222.597 330.578 221.185 327.818 220.093C317.957 216.194 332.134 207.325 335.222 204.153C337.353 201.961 337.327 196.758 333.655 199.106C331.211 200.667 327.097 209.552 324.739 203.055C319.129 208.635 317.187 217.874 312.991 224.494C309.967 229.268 305.674 234.809 310.411 239.925C316.447 246.445 325.376 247.782 333.562 249.132C341.502 250.441 342.381 259.807 340.023 266.299C338.66 270.052 336.27 272.668 333.213 275.12C330.09 277.625 329.841 279.671 330.028 283.533C330.235 287.818 331.575 289.215 335.641 290.39C339.609 291.539 343.718 292.582 347.802 293.224C356.634 294.613 364.91 292.676 373.647 291.648C376.71 291.288 379.768 291.407 380.611 288.057C381.559 284.286 380.204 278.576 380.074 274.685ZM377.212 258.582C378.921 257.017 384.619 259.233 387.166 258.727C391.286 257.909 393.924 257.118 398.088 258.325C405.96 260.607 412.98 264.362 419.927 268.608C427.75 273.391 435.548 278.217 443.356 283.024C446.894 285.201 450.443 287.36 454.013 289.481C456.827 291.154 459.832 293.756 463.006 294.644C462.361 292.769 460.834 291.724 459.954 290.061C459.44 289.088 459.632 288.098 459.215 287.147C459.08 286.838 457.921 285.946 457.693 285.613C457.088 284.736 456.407 283.891 455.727 282.994C455.091 282.156 454.893 281.167 454.241 280.29C453.57 279.384 452.283 279.006 451.637 278.111C449.742 275.491 451.257 273.648 454.266 272.933C451.565 267.404 450.305 264.684 443.665 264.227C437.32 263.79 431.048 263.076 424.888 261.408C419.418 259.928 414.421 257.038 409.054 255.197C404.249 253.548 398.407 252.032 396.986 246.44C395.079 248.621 393.252 250.516 390.187 249.646C387.601 248.91 387.024 247.923 384.37 248.353C382.203 248.704 380.879 248.994 379.237 250.418C377.304 252.093 377.2 252.933 375.063 250.054C373.918 251.676 371.555 257.801 372.214 259.807C372.576 260.912 372.879 261.375 374.348 261.306C376.432 261.207 375.962 259.726 377.212 258.582ZM466.407 561.003C467.76 562.228 471.757 560.889 473.322 560.457C478.095 559.139 478.715 554.68 479.798 550.245C481.505 543.253 483.12 529.235 476 524.234C470.381 520.287 463.702 528.869 461.78 533.467C460.121 537.439 462.173 542.206 462.98 546.239C463.66 549.638 463.735 558.584 466.407 561.003ZM480.073 559.789C482.489 561.202 488.597 559.167 491.242 558.913C495.962 558.458 500.696 558.158 505.44 558.344C508.972 558.481 512.907 560.312 512.574 555.527C512.292 551.505 510.726 547.002 509.643 543.152C508.473 538.998 506.956 534.992 505.504 530.932C504.521 528.186 503.78 522.856 500.921 521.301C498.457 519.961 493.603 521.042 490.875 521.1C486.396 521.194 481.645 521.021 477.384 522.623C481.759 528.889 483.883 536.107 482.956 543.738C482.692 545.916 478.58 558.917 480.073 559.789ZM505.029 523.709C508.834 533.863 512.661 544.082 514.383 554.838C514.485 555.48 514.49 558.541 514.932 558.904C515.39 559.28 518.112 558.823 518.753 558.807C521.301 558.747 523.853 558.722 526.399 558.594C531.354 558.344 531.189 555.216 530.969 550.62C530.497 540.775 524.017 531.666 519.349 523.316C517.075 519.249 516.106 518.967 511.721 519.73C508.671 520.261 503.413 519.394 505.029 523.709ZM533.378 557.88C535.601 559.042 535.375 550.868 535.328 550.042C535.137 546.759 533.959 543.689 533.12 540.525C531.807 535.583 530.894 530.561 529.61 525.636C528.917 522.973 529.484 517.006 525.964 516.424C524.931 516.253 521.303 517.388 520.612 518.15C519.177 519.735 520.052 520.289 521.081 522.121C523.387 526.233 525.543 530.408 527.711 534.597C529.836 538.703 531.905 542.648 532.62 547.277C532.857 548.808 531.961 557.14 533.378 557.88ZM463.38 524.276C458.68 524.191 459.325 527.605 460.174 530.812C460.707 530.125 465.831 524.321 463.38 524.276ZM460.143 273.392C461.679 274.878 468.597 273.579 470.66 273.535C474.717 273.449 478.775 273.355 482.833 273.309C490.435 273.222 497.921 273.409 505.479 272.425C499.777 267.048 497.071 261.823 495.714 253.603C494 243.225 492.568 232.882 492.3 222.353C492.034 211.971 492.149 201.56 492.165 191.174C492.173 186.071 492.307 181.033 492.765 175.95C493.132 171.876 494.001 166.641 490.721 163.423C486.043 169.161 482.596 174.925 480.978 182.201C479.245 190.001 478.01 197.866 475.632 205.517C474.544 209.015 473.073 212.331 471.829 215.767C471.09 217.812 470.875 220.538 469.738 222.397C468.427 224.54 466.766 225.824 465.019 223.246C463.145 220.48 464.992 213.548 465.253 210.42C465.884 202.867 466.499 195.334 466.524 187.75C466.546 181.62 467.25 174.03 464.772 168.217C462.319 162.463 459.381 167.812 458.055 171.134C455.323 177.983 454.54 185.337 453.463 192.572C452.472 199.219 450.982 205.699 449.681 212.279C449.229 214.569 449.307 220.157 446.886 221.437C443.366 223.3 442.299 217.935 442.095 215.698C440.746 200.869 443.383 185.64 440.88 170.85C440.761 170.143 440.249 164.538 439.411 164.279C437.785 163.776 437.327 169.718 437.074 171.211C435.758 178.976 435.492 186.867 435.411 194.727C435.341 201.41 435.447 208.099 435.153 214.778C434.992 218.45 434.663 222.105 434.353 225.766C434.074 229.082 434.343 234.553 432.064 237.288C428.83 241.167 412.829 238.156 412.968 244.563C413.066 249.117 427.168 249.107 430.32 249.671C434.469 250.414 438.59 251.338 442.742 252.082C445.884 252.644 450.051 252.119 452.719 254.029C455.545 256.051 456.841 259.592 457.746 262.783C458.432 265.198 458.321 271.63 460.143 273.392ZM481.409 317.825C481.95 319.122 483.488 320.624 484.306 321.78C485.971 324.134 487.623 327.035 489.626 329.116C491.35 330.909 493.574 332.334 495.266 334.169C496.872 335.91 497.627 338.206 499.414 339.902C501.458 341.841 504.269 342.883 506.299 344.809C507.3 345.76 508.367 346.866 509.677 347.814C514.319 351.172 518.872 354.296 522.906 358.14C523.937 359.125 528.817 363.324 530.297 363.232C533.389 363.038 528.869 359.755 528.067 359.041C522.26 353.881 516.832 348.267 511.145 342.971C505.636 337.844 500.049 332.788 494.662 327.529C490.27 323.242 486.239 316.491 480.329 314.209C480.63 315.433 480.989 316.638 481.409 317.825ZM330.456 295.985C330.645 306.57 330.279 316.973 330.137 327.551C330.005 337.366 329.203 348.042 330.628 357.751C332.039 367.369 332.129 377.451 331.243 387.163C330.834 391.657 330.387 396.177 329.838 400.657C329.537 403.118 329.118 405.556 328.683 407.996C328.346 409.892 327.002 413.17 327.392 414.983C327.706 416.434 327.057 415.992 328.755 416.699C330.515 417.431 332.949 416.359 334.708 416.108C339.297 415.455 344.08 415.992 348.708 415.938C357.631 415.835 368.049 414.878 376.249 411.171C379.698 409.612 383.309 408.097 386.669 406.363C390.803 404.228 391.229 402.174 390.998 397.621C390.495 387.667 389.724 377.809 388.86 367.882C387.832 356.074 386.967 344.237 385.478 332.475C383.97 320.576 382.034 308.777 381.414 296.78C372.297 300.876 363.788 305.032 353.539 304.927C344.463 304.834 337.163 301.915 330.456 295.985ZM325.437 428.974C324.458 433.927 330.632 436.53 334.01 439.261C338.463 442.861 342.753 446.717 347.631 449.75C347.574 444.865 347.227 439.442 349.296 434.874C351.94 429.041 357.013 429.811 361.2 426.282C355.543 425.156 349.382 427.768 343.489 426.987C337.676 426.218 331.934 425.923 326.318 424.415C326.022 425.935 325.736 427.456 325.437 428.974ZM370.928 526.61C374.181 525.948 370.263 519.748 369.614 518.122C367.83 513.653 366.04 509.187 364.325 504.691C363.509 512.361 362.694 520.031 361.879 527.7C364.895 527.353 367.946 527.218 370.928 526.61ZM384.914 558.685C384.732 559.772 383.542 563.547 385.309 563.723C387.731 563.962 386.589 558.526 384.914 558.685ZM369.03 482.526C381.384 488.003 393.672 493.519 406.565 497.642C409.39 498.545 411.997 498.549 412.803 495.078C413.435 492.349 411.394 489.996 409.969 487.86C406.335 482.415 401.376 478.153 396.115 474.326C385.607 466.683 373.958 460.856 360.87 460.188C358.728 460.079 355.18 458.985 355.173 461.782C355.169 463.427 357.902 466.816 358.631 468.168C361.637 473.752 362.888 479.805 369.03 482.526ZM355.225 549.715C356.816 556.699 374.282 546.149 376.316 544.292C373.623 544.112 354.51 546.575 355.225 549.715ZM348.206 551.602C347.161 552.196 342.947 553.708 344.945 554.76C346.733 555.701 353.125 553.459 354.899 553.167C352.734 549.652 351.77 549.577 348.206 551.602ZM349.281 541.406C350.108 542.836 350.896 545.141 352.554 545.834C354.62 546.699 358.066 544.941 360.016 544.441C363.328 543.591 366.676 542.894 370.053 542.359C371.345 542.154 376.849 542.354 377.754 540.996C378.419 539.998 377.148 536.469 376.304 535.822C374.57 534.493 371.736 535.853 369.848 536.277C362.939 537.828 356.125 539.594 349.281 541.406ZM346.963 514.656C347.552 512.967 347.729 512.937 347.572 510.66C347.404 508.223 348.004 505.944 348.075 503.528C348.23 498.212 343.713 499.865 340.79 502.566C333.209 509.573 339.638 525.422 343.832 532.531C346.39 529.371 347.282 528.007 347.387 523.963C347.426 522.426 347.523 520.901 347.582 519.367C347.624 518.238 346.67 515.498 346.963 514.656ZM325.258 435.005C322.72 435.353 322.47 443.578 323.607 445.046C325.932 448.048 332.221 449.625 335.586 451.049C337.827 451.995 340.111 453.157 342.432 453.886C344.586 454.563 345.479 453.632 347.346 453.739C350.046 453.892 351.34 456.367 354.185 456.832C358.187 457.485 362.648 456.791 366.77 457.247C371.77 457.801 375.946 456.757 380.492 454.681C387.03 451.695 394.168 446.191 391.367 438.03C386.428 423.63 355.29 423.754 350.602 438.291C349.382 442.075 350.405 445.844 349.974 449.678C349.506 453.828 347.706 452.717 344.789 450.517C340.973 447.637 337.308 444.51 333.582 441.514C332.376 440.546 327.091 434.755 325.258 435.005ZM541.485 531.114C542.279 533.575 542.794 536.147 544.288 538.302C545.793 540.476 548.077 541.954 549.712 544.021C553.024 548.212 554.511 553.943 555.758 559.036C558.66 570.888 558.872 583.082 560.452 595.129C565.368 593.827 570.468 592.549 574.868 589.892C578.797 587.518 578.66 584.228 578.836 579.989C579.329 568.086 580.105 556.159 578.172 544.335C577.249 538.701 576.015 533.101 574.817 527.521C573.765 522.625 572.124 520.799 567.128 519.55C556.269 516.832 545.291 515.077 534.464 512.086C537.122 518.306 539.407 524.679 541.485 531.114ZM34.7958 250.759C36.9963 249.729 39.2601 248.852 41.5196 247.962C42.6984 247.497 46.5441 246.705 47.2472 245.673C48.0834 244.445 44.3344 237.798 43.8363 236.292C40.8334 227.234 39.0253 217.558 37.4638 208.159C34.6355 191.145 35.8239 174.384 44.7414 159.259C49.1797 151.731 54.686 145.238 62.2827 140.809C66.7081 138.228 71.442 136.23 75.8889 133.687C79.4752 131.634 82.7647 129.499 86.6662 128.035C94.447 125.115 100.965 120.177 108.311 116.382C113.715 113.59 122.149 108.118 127.572 113.625C129.601 109.42 131.872 106.067 134.895 102.534C137.79 99.1505 137.726 96.546 142.804 98.2445C152.671 101.545 162.321 106.197 171.831 110.403C180.713 114.33 189.428 118.596 198.54 121.96C207.832 125.392 208.787 135.101 207.121 143.795C203.986 160.157 196.53 175.398 190.418 190.322C186.59 199.671 182.746 209.035 178.946 218.393C175.312 227.338 172.743 237.262 167.967 245.694C164.956 251.01 158.584 246.762 154.193 245.179C148.742 243.211 143.342 241.105 137.888 239.148C126.531 235.072 114.609 231.59 102.94 228.509C102.75 230.799 102.561 233.088 102.371 235.377C104.647 234.959 107.531 233.67 109.296 235.772C111.818 238.773 107.954 240.268 107.772 242.415C107.608 244.334 111.381 248.299 112.551 249.682C115.187 252.799 118.367 255.249 121.752 257.496C135.145 266.39 150.42 271.258 165.784 275.688C182.224 280.426 198.821 281.599 215.819 282.974C224.463 283.672 233.018 282.806 241.652 282.44C249.972 282.088 258.426 282.274 266.639 280.81C283.441 277.815 301.163 274.226 316.49 266.413C318.168 265.559 319.83 264.223 321.599 263.588C323.016 263.079 324.25 263.405 325.641 263.124C328.627 262.521 329.623 259.448 332.601 261.28C334.091 262.195 334.65 264.243 335.681 261.534C336.993 258.088 331.547 258.916 329.367 258.603C322.026 257.552 315.241 253.34 309.555 248.775C303.872 244.214 301.683 238.324 302.5 231.024C303.317 223.727 307.95 217.711 310.901 211.185C312.328 208.026 313.546 204.76 315.225 201.72C316.121 200.096 317.788 198.329 317.522 196.998C317.213 195.452 316.102 194.934 316.162 192.939C316.177 192.421 316.71 191.988 316.7 191.425C316.683 190.529 316.178 189.888 316.069 189.038C315.819 187.089 316.248 185.712 316.889 183.893C317.287 182.757 317.734 180.576 318.441 179.618C319.681 177.938 321.96 177.893 323.221 176.189C325.217 173.495 324.983 168.981 326.574 165.928C328.812 161.631 330.404 164.962 333.45 162.981C336.054 161.286 334.895 157.002 336.82 154.946C339.531 152.049 343.252 155.094 346.355 155.176C350.438 155.284 347.858 151.386 351.137 150.11C354.098 148.956 359.952 154.041 362.052 155.841C363.129 153.626 364.018 150.1 367.099 150.472C370.333 150.863 372.268 156.119 374.915 157.482C375.836 157.955 375.808 158.49 376.807 158.557C378.097 158.643 379.226 156.508 380.896 156.631C384.266 156.878 384.971 161.104 385.679 163.776C389.187 162.286 391.661 161.347 393.914 164.959C396.119 168.494 396.127 166.676 400.301 166.918C403.9 167.125 405.19 170.153 406.545 173.09C407.386 174.916 407.278 175.781 407.221 177.662C407.148 180.032 407.14 180.004 408.751 181.826C411.558 185.005 412.727 189.012 414.079 192.966C415.521 197.186 417.3 200.905 417.18 205.427C417.106 208.225 417.976 211.779 415.811 213.903C414.952 214.745 413.154 214.879 412.444 215.677C411.09 217.2 412.025 218.732 411.351 220.615C410.845 222.024 409.555 222.485 408.891 223.694C408.17 225.01 408.448 226.31 408.217 227.745C407.534 231.995 406.436 234.252 411.974 233.033C415.391 232.28 419.264 232.348 422.55 231.154C426.428 229.745 426.834 227.265 427.212 223.55C429.117 204.833 427.698 185.459 431.843 167.048C432.754 163.005 436.508 146.481 442.484 156.236C447.525 164.464 446.846 176.296 447.821 185.545C451.072 180.592 450.834 173.268 452.838 167.736C454.318 163.649 459.566 153.189 465.225 156.91C469.686 159.843 470.957 168.208 471.523 172.965C472.42 180.489 471.935 188.095 472.145 195.65C473.516 192.373 473.671 188.771 474.313 185.318C475.118 180.989 476.425 176.738 478.119 172.674C479.598 169.123 481.399 165.711 483.473 162.471C485.057 159.993 487.693 154.788 490.602 153.781C498.089 151.191 499.362 165.836 499.248 170.149C499.015 179.086 498.517 187.847 498.867 196.811C499.548 214.323 499.355 231.655 501.055 249.125C501.433 252.999 501.491 256.154 503.898 259.341C506.019 262.149 508.35 265.56 511.375 267.354C518.223 271.415 524.249 276.09 530.025 281.633C536.212 287.57 542.547 293.555 548.052 300.136C550.584 303.164 552.893 306.551 555.634 309.384C558.107 311.941 560.757 313.779 562.827 316.785C572.717 331.147 581.048 345.623 587.397 361.913C592.609 375.287 595.934 394.024 580.128 401.619C572.866 405.108 565.108 403.517 557.475 402.526C549.581 401.502 543.187 398.147 536.055 394.671C527.194 390.352 518.156 386.488 509.246 382.292C500.33 378.094 491.798 373.083 482.905 368.808C474.121 364.585 465.922 359.803 457.851 354.341C449.844 348.922 442.795 342.441 434.958 336.872C437.403 346.102 441.174 354.893 443.977 364.016C446.546 372.379 448.77 380.825 450.645 389.366C452.519 397.903 456.86 405.358 459.088 413.782C461.263 421.999 463.733 430.088 466.067 438.254C467.115 441.918 468.92 445.862 468.476 449.777C468.144 452.701 465.131 454.378 462.562 455.817C458.592 458.039 445.218 459.271 444.509 464.321C444.121 467.077 446.353 471.323 446.992 474.089C448.043 478.646 449.063 483.211 450.093 487.772C451.158 492.484 452.227 497.194 453.281 501.908C454.208 506.061 454.61 510.854 456.174 514.796C457.514 518.176 459.429 517.185 462.702 516.519C467.641 515.511 472.567 514.45 477.494 513.385C484.721 511.824 492.14 509.726 499.211 508.773C502.181 508.372 505.285 507.397 508.471 507.178C512.467 506.904 516.03 506.165 519.941 505.345C523.093 504.682 527.035 503.407 530.083 505.067C531.14 505.643 531.58 506.544 532.414 507.275C533.977 508.644 533.235 508.371 535.182 508.26C542.783 507.829 550.071 507.681 557.774 508.29C561.631 508.595 565.343 509.388 569.196 509.616C572.574 509.815 575.182 510.467 577.52 513.118C581.698 517.852 583.072 525.925 584.414 531.856C586.506 541.108 586.759 550.373 586.887 559.819C587.021 569.645 587.714 579.589 585.491 589.232C584.76 592.401 584.115 596.368 581.511 598.602C578.15 601.487 571.927 601.905 567.724 603.015C564.903 603.759 557.598 606.711 554.868 604.898C552.225 603.142 552.585 596.141 552.127 593.222C550.525 582.991 549.707 572.457 547.051 562.43C545.641 566.435 543.189 573.353 537.828 569.189C536.509 568.164 536.736 567.468 534.796 567.182C533.722 567.024 531.62 567.306 530.588 567.653C529.182 568.124 528.804 568.838 527.416 568.901C526.187 568.957 524.606 568.259 523.189 568.292C505.624 568.698 488.075 568.774 470.551 569.627C465.918 569.852 467.426 573.059 468.131 576.931C468.912 581.213 470.635 585.293 471.141 589.597C471.581 593.342 472.11 596.965 473.777 600.412C475.743 604.476 476.139 608.194 476.413 612.658C477.475 629.871 482.708 647.469 486.341 664.294C488.234 673.056 491.368 681.688 492.813 690.518C493.358 693.853 492.013 696.128 492.053 699.281C492.1 702.902 495.54 706.626 497.105 709.736C500.248 715.976 505.204 724.788 502.185 731.727C500.555 735.476 497.467 736.766 494.123 738.766C490.121 741.159 486.235 743.745 482.195 746.077C467.434 754.6 450.473 759.958 434.804 766.631C430.967 768.264 427.251 769.18 423.161 769.956C420.641 770.433 414.756 772.847 412.309 771.905C410.998 771.401 411.297 770.262 410.482 769.44C409.325 768.271 408.213 767.965 406.633 767.463C404.015 766.634 401.202 766.486 400.055 763.656C397.247 756.725 405.215 750.572 409.196 746.214C414.282 740.641 421.28 737.17 426.932 732.228C430.051 729.502 432.981 726.571 435.906 723.638C437.174 722.367 439.952 720.575 440.633 718.918C441.329 717.227 439.757 715.487 438.787 713.585C434.779 705.729 433.16 697.046 430.009 688.871C426.854 680.683 424.885 672.128 422.351 663.731C419.74 655.084 416.735 646.563 413.895 637.989C411.274 630.07 408.614 622.022 406.414 613.984C404.374 606.53 401.431 599.463 399.217 592.003C398.465 589.471 397.709 584.719 395.446 583.001C393.462 581.493 388.601 583.023 386.217 583.292C379.792 584.017 373.694 584.775 367.432 585.838C352.533 588.368 336.079 591.669 320.978 590.205C314.751 589.601 306.445 588.723 302.85 582.696C298.718 575.769 299.13 565.814 297.214 558.126C295.168 549.917 295.446 541.311 295.146 532.916C294.823 523.878 293.752 514.88 293.592 505.834C293.445 497.533 294.713 489.816 295.683 481.645C296.077 478.33 300.091 466.213 297.334 464.207C295.849 463.126 291.707 463.84 289.899 463.642C286.003 463.216 282.051 462.606 278.279 461.532C273.243 460.099 262.579 458.34 260.637 452.73C258.783 447.367 262.71 440.427 264.316 435.414C266.904 427.334 270.87 419.823 273.213 411.661C277.946 395.167 280.588 377.768 282.734 360.767C283.857 351.873 282.926 344.019 281.205 335.292C271.824 337.776 262.572 341.437 252.9 342.571C242.373 343.804 231.577 344.064 220.994 344.72C201.722 345.914 183.058 346.45 163.95 342.769C146.056 339.322 127.74 335.217 111.407 326.58C102.962 322.114 94.349 317.564 86.5977 311.957C78.6343 306.197 71.9048 299.046 65.0852 292.023C57.5578 284.273 50.9577 275.784 45.1121 266.68C43.9366 264.849 43.2647 262.302 41.9363 260.631C40.4368 258.743 38.7127 259.135 36.6327 258.479C33.7073 257.556 30.6477 252.702 34.7958 250.759Z" fill="white"/>
<path fill-rule="evenodd" clip-rule="evenodd" d="M226.639 91.5866C224.977 93.993 217.431 102.912 214.029 102.117C209.832 101.134 214.128 93.732 215.319 91.8723C216.836 89.5062 222.52 82.0607 225.391 81.8605C231.13 81.461 228.135 89.4209 226.639 91.5866Z" fill="white"/>
<path fill-rule="evenodd" clip-rule="evenodd" d="M239.55 159.433C237.712 157.365 234.256 157.334 232.16 155.415C229.638 153.11 228.176 150.897 227.945 147.319C232.943 147.66 239.394 150.969 243.426 153.822C246.796 156.206 252.119 161.638 245.422 163.412C245.242 162.487 245.061 161.561 244.882 160.637C242.949 161.456 240.935 160.992 239.55 159.433Z" fill="white"/>
<path fill-rule="evenodd" clip-rule="evenodd" d="M251.014 113.995C248.276 115.622 245.802 116.142 242.794 117.002C240.612 117.626 237.929 119.619 235.794 118.726C237.133 117.398 235.125 117.871 235.282 116.877C235.415 116.048 236.102 116.128 236.451 115.393C237.696 112.776 239.274 112.39 242.022 111.193C244.151 110.264 247.206 108.607 249.629 109.151C252.178 109.724 253.794 112.342 251.014 113.995Z" fill="white"/>
<path fill-rule="evenodd" clip-rule="evenodd" d="M226.114 190.785C223.778 189.681 220.472 185.579 219.456 183.282C219.058 182.382 219.546 181.484 219.284 180.813C218.783 179.536 215.406 177.698 217.96 175.873C220.194 174.275 224.456 181.018 225.508 182.458C226.585 183.929 229.186 186.665 229.062 188.395C228.958 189.83 227.691 191.529 226.114 190.785Z" fill="white"/>
<path fill-rule="evenodd" clip-rule="evenodd" d="M177.102 97.2408C174.948 96.0874 173.374 94.5514 172.974 92.2935C172.659 90.5145 172.389 84.1679 173.903 83.9595C178.931 83.2696 180.768 99.2056 177.102 97.2408Z" fill="white"/>
<path fill-rule="evenodd" clip-rule="evenodd" d="M350.404 338.712C350.419 337.138 349.524 327.779 352.205 327.729C354.242 327.692 354.324 336.113 354.508 337.176C354.891 339.399 359.053 338.232 360.918 337.429C363.877 336.155 363.156 334.415 362.882 331.494C362.778 330.39 362.19 325.432 364.857 326.605C366.659 327.398 367.14 333.575 367.368 334.954C368.16 339.727 369.742 347.819 368.081 352.778C367.419 354.756 366.644 355.849 364.915 353.989C363.167 352.107 364.074 344.732 363.951 342.369C361.814 343.159 355.315 344.103 354.592 346.727C353.931 349.122 357.418 354.557 353.675 356.054C351.454 356.942 351.172 354.173 350.857 352.071C350.195 347.659 350.359 343.153 350.404 338.712Z" fill="white"/>
<path fill-rule="evenodd" clip-rule="evenodd" d="M343.979 338.177C346.822 338.659 348.021 356.237 344.16 356.673C339.654 357.18 341.27 337.718 343.979 338.177Z" fill="white"/>
<path fill-rule="evenodd" clip-rule="evenodd" d="M345.357 331.89C346.659 335.578 342.129 338.268 340.823 334.232C339.816 331.118 343.988 328.014 345.357 331.89Z" fill="white"/>
<path fill-rule="evenodd" clip-rule="evenodd" d="M346.036 224.895C345.985 233.816 326.559 242.699 326.354 230.741C326.252 224.753 333.298 228.248 337.132 226.543C339.612 225.44 346.069 218.606 346.036 224.895Z" fill="white"/>
<path fill-rule="evenodd" clip-rule="evenodd" d="M347.249 208.689C345.123 204.48 353.587 197 357.448 197.299C363.098 197.738 366.088 209.23 362.939 213.32C362.524 213.858 361.182 215.234 360.202 214.675C358.653 213.79 360.085 213.767 360.057 212.485C360.009 210.447 360.856 207.593 358.797 205.8C354.907 202.414 350.295 214.719 347.249 208.689Z" fill="white"/>
<path fill-rule="evenodd" clip-rule="evenodd" d="M382.671 222.534C386.136 221.414 390.452 226.117 385.157 227.017C384.143 227.189 381.949 227.498 381.101 226.608C379.697 225.132 381.147 223.027 382.671 222.534Z" fill="white"/>
<path fill-rule="evenodd" clip-rule="evenodd" d="M177.911 137.141C178.658 135.084 180.447 131.619 183.077 132.797C185.408 133.841 186.075 137.752 185.834 139.845C185.189 145.48 181.69 151.267 175.606 149.714C176.482 145.533 176.448 141.168 177.911 137.141Z" fill="white"/>
<path fill-rule="evenodd" clip-rule="evenodd" d="M188.912 608.66C196.899 624.322 208.248 638.101 217.275 653.165C219.534 656.935 227.679 666.568 225.607 670.289C224.395 672.464 219.839 673.604 217.678 674.421C213.975 675.821 210.397 677.319 206.795 678.964C190.308 686.499 174.332 694.454 157.351 700.92C154.795 701.892 145.427 708.014 146.109 702.898C146.419 700.578 148.148 698.694 147.249 695.911C146.788 694.478 143.382 692.042 145.502 690.594C146.047 691.288 146.594 691.983 147.141 692.676C147.424 690.782 148.384 689.046 148.345 687.095C148.32 685.883 147.544 684.909 147.748 683.665C148.031 681.947 149.742 680.672 150.394 679.089C151.046 677.512 151.009 675.68 151.286 674.014C152.926 664.143 156.374 655.13 159.503 645.696C162.599 636.362 164.773 626.888 168.463 617.742C172.361 608.081 176.044 598.333 179.329 588.445C181.775 590.196 182.305 594.125 183.325 596.723C184.928 600.806 186.921 604.756 188.912 608.66ZM132.464 692.406C132.107 691.613 131.938 690.781 131.958 689.909C139.796 690.079 133.289 693.377 132.464 692.406ZM132.116 683.849C129.011 683.179 126.982 682.312 125.474 680.101C125.33 679.892 125.985 679.195 125.715 678.841C125.478 678.532 124.906 678.462 124.71 678.186C124.041 677.246 121.915 677.428 122.687 675.573C126.705 676.323 131.133 676.147 134.962 677.728C140.283 679.927 137.344 684.977 132.116 683.849ZM125.571 667.408C121.416 666.338 117.309 666.766 113.651 664.182C110.216 661.757 108.008 658.165 106.248 654.436C114.614 656.181 122.451 659.803 130.775 661.613C133.486 662.203 137.496 662.118 139.69 664.143C142.128 666.395 140.917 669.147 140.504 672.011C135.534 670.454 130.619 668.707 125.571 667.408ZM107.778 645.038C103.777 644.028 99.1692 643.986 97.8713 639.224C97.6614 638.456 96.9713 638.753 97.8613 637.188C98.7994 635.538 100.892 635.252 102.514 635.346C106.327 635.568 110.182 638.728 113.567 640.237C118.965 642.644 124.854 644.338 130.462 646.204C134.345 647.497 138.715 648.145 142.242 650.311C144.965 651.983 147.115 656.173 142.079 655.777C137.493 655.418 131.999 652.234 127.574 650.804C121.033 648.69 114.445 646.719 107.778 645.038ZM113.051 626.485C113.158 626.841 113.266 627.196 113.374 627.551C113.34 627.522 115.336 627.12 115.724 627.281C117.61 628.067 119.359 629.139 121.218 629.981C125.503 631.922 130.076 633.389 134.581 634.727C138.251 635.816 142.228 636.468 145.509 638.54C148.349 640.334 148.343 641.105 147.041 644.07C139.467 640.111 131.748 635.874 123.467 633.587C118.076 632.097 111.111 632.413 111.611 625.543C112.091 625.858 112.57 626.171 113.051 626.485ZM124.122 616.837C125.252 619.249 131.615 619.546 133.991 620.485C136.57 621.504 139.01 622.437 141.698 623.067C144.081 623.624 152.441 624.556 152.702 627.98C153.105 633.226 142.724 628.725 141.037 628.092C133.958 625.438 126.677 622.561 119.295 620.923C120.904 619.561 122.513 618.2 124.122 616.837ZM140.265 608.17C139.795 610.252 158.354 611.374 156.069 616.414C154.316 620.281 138.249 614.266 135.708 612.519C137.248 611.121 139.748 610.455 140.265 608.17ZM151.32 599.316C153.568 595.796 154.051 596.076 157.19 597.274C159.584 598.188 163.375 598.486 160.687 602.199C158.386 605.379 149.054 602.87 151.32 599.316ZM163.327 589.437C165.073 587.829 165.282 591.331 164.79 592.356C163.479 595.082 161.75 593.44 159.795 592.419C160.994 591.452 162.173 590.457 163.327 589.437ZM195.845 587.512C195.697 586.823 193.554 585.469 193.039 584.903C191.772 583.51 192.634 582.402 189.999 582.562C189.951 582.408 190.616 581.6 190.529 581.502C190.485 581.452 189.357 580.188 189.054 579.657C188.321 578.375 187.689 577.166 187.14 575.752C186.555 574.249 186.191 572.321 185.353 570.93C185 570.343 184.81 569.674 184.236 569.251C182.745 568.154 182.62 569.526 181.085 569.009C180.14 568.691 180.037 567.34 178.666 567.183C177.481 567.047 176.186 568.131 175.316 568.725C172.152 570.886 169.234 573.467 166.087 575.677C149.994 586.982 133.115 597.128 117.198 608.708C109.53 614.287 101.673 619.834 94.8643 626.463C89.954 631.244 81.2705 637.44 81.9362 645.13C82.4204 650.721 86.8315 655.332 90.047 659.592C94.8851 666.002 98.7316 673.085 103.689 679.44C109.601 687.017 115.204 694.639 120.705 702.525C123.051 705.888 124.696 709.826 127.077 713.095C128.534 715.094 132.436 715.021 131.911 717.585C135.933 715.889 138.879 719.961 142.827 719.35C145.148 718.99 147.645 717.197 149.838 716.405C153.127 715.22 156.509 714.293 159.82 713.17C172.964 708.706 185.651 703.532 198.374 698.008C210.525 692.733 223.654 688.612 235.111 681.874C239.66 679.2 242.284 675.274 242.941 670.037C243.42 666.216 243.07 659.886 237.859 659.858C240.766 658.087 236.205 652.189 234.648 650.732C234.624 650.711 233.227 652.508 232.745 652.193C232.917 652.306 233.518 646.997 233.064 646.039C231.719 643.191 230.038 639.809 228.333 637.153C226.77 634.717 224.748 632.858 223.334 630.306C221.619 627.214 220.287 623.914 218.556 620.828C216.885 617.849 215.08 614.417 212.872 611.815C210.958 609.559 208.877 608.225 207.535 605.466C205.876 602.052 204.226 599.462 201.826 596.453C199.751 593.851 196.555 590.855 195.845 587.512Z" fill="#28DCAA"/>
<path fill-rule="evenodd" clip-rule="evenodd" d="M684.072 183.583C685.281 182.82 686.488 182.056 687.696 181.294C686.961 183.573 686.472 184.621 684.072 183.583ZM681.23 189.003C680.109 188.492 682.667 185.634 683.044 185.089C684.092 187.256 681.856 187.438 681.23 189.003ZM685.919 178.899C687.117 178.984 688.314 179.071 689.512 179.156C686.81 180.532 688.223 179.482 687.698 181.286C686.627 180.925 685.966 180.025 685.919 178.899ZM669.018 192.564C657.832 201.926 641.398 204.046 627.435 201.376C619.412 199.84 612.901 196.341 606.473 191.449C603.994 189.562 601.557 186.648 598.987 185.099C597.008 183.907 597.037 184.048 594.355 184.567C594.545 182.807 595.67 182.257 594.791 180.548C593.694 178.415 592.224 178.998 590.471 179.689C590.151 177.737 590.111 176.807 589.128 175.1C589.159 175.154 587.751 174.098 587.797 174.157C587.591 173.896 586.718 171.796 586.352 171.271C584.855 169.115 582.733 167.187 581.62 164.808C580.645 162.73 581.146 159.133 577.861 159.892C580.228 156.466 576.597 151.855 575.675 148.566C574.235 143.426 574.419 137.419 575.51 132.239C576.674 126.716 578.913 122.197 581.123 117.204C582.668 113.715 581.903 106.599 586.364 105.086C586.012 106.771 584.83 107.928 584.926 109.742C586.845 108.726 588.523 107.266 590.095 105.788C590.865 105.065 593.647 103.302 594.039 102.479C594.842 100.795 593.024 99.4161 595.348 98.2778C595.882 102.116 600.472 99.1986 599.978 96.4293C598.546 96.7803 597.538 97.6066 596.391 98.4737C597.23 92.7271 602.145 98.1638 603.533 93.4119C605.96 94.4809 607.565 94.7928 609.842 93.2396C612.376 91.511 612.065 90.5371 615.197 90.4029C616.274 90.3574 618.807 90.9716 619.781 90.3447C621.665 89.1343 620.212 87.3839 622.892 86.8822C622.778 88.186 623.575 91.4741 625.931 90.499C626.402 90.3053 625.617 89.3946 626.873 89.0665C628.732 88.5816 630.697 88.2045 632.266 89.6614C633.272 85.2566 642.279 91.082 645.101 91.8296C647.928 92.5797 650.219 93.3724 652.75 94.8429C655.278 96.3117 655.883 95.6918 658.911 95.652C657.655 97.8362 658.466 97.7257 659.682 99.1053C660.453 98.744 660.863 98.926 660.908 99.6516C661.034 100.257 661.371 100.733 661.916 101.081C662.693 101.68 663.68 102.207 664.513 102.809C666.47 104.219 668.629 105.468 670.546 106.855C671.105 107.118 671.695 107.268 672.318 107.306C672.262 107.778 672.207 108.252 672.15 108.724C673.091 109.566 672.278 110.913 674.522 110.377C673.656 112.432 675.379 112.242 676.181 113.517C676.911 114.679 676.585 115.504 677.2 116.663C677.477 117.609 678.106 118.144 679.087 118.269C679.421 119.253 679.777 120.23 680.153 121.198C680.947 122.836 682.172 124.349 683.144 125.88C683.797 126.889 684.434 127.909 685.053 128.938C684.328 130.045 684.551 130.766 685.719 131.101C686.08 132.41 686.34 132.548 686.328 134.343C686.298 138.408 686.482 141.71 687.151 145.825C690.054 163.711 682.726 181.093 669.018 192.564ZM703.775 149.08C703.43 139.609 701.774 127.891 698.569 119.844C696.945 115.764 695.207 109.255 692.261 105.654C691.563 104.8 690.672 104.16 689.997 103.304C689.475 102.643 689.585 101.715 688.915 101.07C688.446 100.619 687.57 101.761 687.084 101.264C686.069 100.224 686.131 98.5464 685.806 97.2458C681.907 99.081 684.506 93.2578 679.497 94.9174C679.759 87.8925 671.719 83.9077 666.584 80.7205C665.062 79.7748 664.008 79.8204 662.434 79.306C660.969 78.827 660.913 78.651 659.594 77.7237C656.307 75.4134 653.087 73.8005 649.03 73.1396C642.214 72.0286 634.878 72.5692 627.974 72.1364C620.257 71.6525 612.458 72.4358 604.972 74.3552C577.904 81.2982 556.354 103.851 554.448 132.282C551.423 177.438 598.271 214.884 641.154 212.48C674.285 210.621 705.039 183.674 703.775 149.08Z" fill="#EC555B"/>
<path fill-rule="evenodd" clip-rule="evenodd" d="M726.165 318.164C724.868 319.239 719.723 315.96 720.453 314.275C721.545 311.759 728.417 316.296 726.165 318.164ZM732.358 320.255C735.281 322.099 739.214 326.794 742.811 327.079C748.301 327.513 745.12 322.113 743.169 319.977C741.184 317.803 737.285 316.369 737.364 313.147C737.424 310.724 742.579 306.568 739.22 305.913C735.696 305.226 732.554 313.399 729.125 308.298C727.49 305.865 732.369 298.8 726.528 300.66C724.93 301.168 723.826 303.059 722.028 303.121C720.194 303.186 718.857 301.421 717.327 300.71C713.277 298.829 710.084 301.869 713.324 305.43C714.522 306.748 719.765 310.332 715.113 310.985C712.182 311.397 709.117 305.717 705.897 307.417C701.471 309.75 708.173 313.358 709.413 315.396C711.517 318.849 706.724 321.843 705.362 325.046C703.281 329.941 706.524 330.386 709.594 326.927C712.198 323.993 713.694 318.592 718.08 322.591C725.221 329.104 706.837 332.883 711.498 338.744C714.469 342.482 719.864 333.494 721 332.054C725.193 326.74 727.785 329.846 732.706 332.649C738.456 335.923 742.136 332.327 736.579 327.842C734.807 326.411 731.821 325.489 730.761 323.329C730.133 322.052 730.052 318.801 732.358 320.255Z" fill="#6F9C6B"/>
<path fill-rule="evenodd" clip-rule="evenodd" d="M236.694 408.221C232.839 404.044 224.713 400.265 220.339 405.776C218.508 408.084 218.047 411.295 218.844 414.084C219.768 417.317 222.934 419.226 224.725 415.374C225.964 412.707 224.669 409.152 229.298 410.903C232.179 411.994 235.128 416.116 233.698 419.18C230.476 426.087 218.519 420.511 214.824 417.094C207.49 410.314 214.489 402.579 222.49 401.561C224.557 401.298 229.755 401.945 231.099 399.857C232.883 397.089 228.978 395.804 227.016 395.266C212.592 391.316 198.43 411.536 209.824 422.699C214.999 427.767 224.655 430.374 231.268 426.744C237.468 423.34 242.271 414.264 236.694 408.221Z" fill="#6C5CE7"/>
<path fill-rule="evenodd" clip-rule="evenodd" d="M672.588 511.785C667.521 511.618 662.454 511.451 657.388 511.284C657.547 507.721 659.374 498.717 656.502 495.944C651.853 491.454 650.895 501.811 650.824 504.256C650.766 506.265 651.276 509.691 649.84 511.37C647.907 513.635 643.802 512.649 641.21 512.983C634.793 513.812 631.226 520.729 639.56 521.363C644.276 521.722 651.443 519.626 651.672 526.378C651.779 529.494 647.99 544.611 655.953 537.592C660.882 533.245 653.789 522.346 661.145 520.335C663.513 519.688 665.445 520.539 667.482 520.52C672.403 520.475 672.219 515.544 672.588 511.785Z" fill="#EBC5B9"/>
<path fill-rule="evenodd" clip-rule="evenodd" d="M80.202 433.845C78.2501 431.701 76.1652 428.416 73.1754 427.602C69.9982 426.736 67.3581 428.991 64.3879 429.624C56.3126 431.347 56.666 422.674 55.5621 417.243C54.519 412.114 51.4077 409.376 46.1251 409.431C44.0203 409.454 34.9824 409.874 34.8374 413.094C34.7323 415.411 39.0282 415.527 40.408 415.731C43.4027 416.173 46.1591 416.631 48.0784 419.271C51.6796 424.222 49.4857 431.492 54.8282 435.597C60.3524 439.841 63.5765 434.158 69.0551 434.248C72.7275 434.309 73.4037 437.953 76.4796 438.905C79.4104 439.813 82.6821 436.567 80.202 433.845Z" fill="#E5624F"/>
<path fill-rule="evenodd" clip-rule="evenodd" d="M18.914 431.507C20.8209 433.098 24.405 429.66 26.3043 429.306C29.4543 428.719 33.5111 430.389 34.8626 433.343C37.5027 439.11 32.084 445.749 37.3939 450.993C42.1395 455.681 48.6923 449.629 54.4182 450.262C57.7475 450.63 61.1525 451.511 62.094 447.08C62.7461 444.017 60.909 442.182 57.9846 441.962C52.9594 441.581 47.8111 448.037 42.8793 445.623C37.7768 443.126 41.023 435.585 40.5141 431.295C39.7374 424.757 33.5738 420.054 27.3184 422.648C25.4302 423.431 15.2814 428.479 18.914 431.507Z" fill="#E5624F"/>
</svg>
