<?xml version="1.0" encoding="UTF-8"?>
<svg width="88px" height="78px" viewBox="0 0 88 78" version="1.1" xmlns="http://www.w3.org/2000/svg" xmlns:xlink="http://www.w3.org/1999/xlink">
    <!-- Generator: Sketch 59.1 (86144) - https://sketch.com -->
    <title>ico-Gain-Work-B</title>
    <desc>Created with Sketch.</desc>
    <g id="Hire-Freelancers" stroke="none" stroke-width="1" fill="none" fill-rule="evenodd">
        <g id="SV-Gain-Work-and-Hire" transform="translate(-46.000000, -199.000000)">
            <g id="Insurance" transform="translate(46.000000, 199.000000)">
                <g id="ico-Gain-Work-B">
                    <polygon id="Path-5" fill="#FFE9C8" points="55.9515063 11 43.9728895 15.32 35.5529914 21.08 23.7303371 32.493125 23.7303371 36.7451558 25.9859021 39.8 30.1248015 39.8 36.8526793 30.9434375 39.0437798 30.9434375 43.9728895 34.04 48.9061582 34.04 54.994936 39.8 63.7829057 47 69.6429385 41.24 77.1235955 32.493125"></polygon>
                    <polygon id="Path-6" fill="#FFE9C8" points="17.1736183 45 14.1629441 47.5370774 11.8651685 49.7827225 11.8651685 54.1858639 15.0335299 56.5415158 17.622661 56.5415158 17.622661 59.9048866 18.9415932 62.2582897 23.0793993 62.2582897 23.0793993 66.6614311 25.5031853 68.1291449 28.9253079 68.1291449 29.44571 72.7852662 31.0156188 74 35.1600387 74 38.1070115 71.0645724 39.5505618 67.395288 38.800765 64.7267174 34.2031253 63.6149216 33.1121954 59.5 31.0156188 57.6229514 27.9652617 57.6229514 27.5190038 53.372458 25.5031853 51.2504363 22.5154853 51.2504363 21.9132808 47.5370774 19.9670813 45.9417987"></polygon>
                    <path d="M41.2562853,15.5955056 C41.2562853,15.1161049 39.2639596,14.1573034 35.2793082,12.7191011 L31.6515783,12 L11.8651685,31.1444075 L13.9227705,45.425804 L18.9122105,45.7977528 L22.382578,48.6741573 L22.382578,51.5505618 L25.5004534,52.0037028 L28.4452486,54.4269663 L28.4452486,57.3033708 L31.6515783,58.741573 L33.7469473,60.1797753 L33.7469473,63.0561798 L38.3915886,64.1979671 L39.8239369,66.6516854 L39.8239369,71.6853933 L44.3056207,76 L48.4180271,74.5617978 L49.9287392,70.247191 L54.0439109,68.8089888 L55.8616225,64.494382 L60.1698578,63.0561798 L61.3091622,58.0639045 L66.1188593,57.3033708 L68.2247191,54.4269663 L66.1188593,51.5505618 L66.1188593,47.2359551 L48.4180271,33.7593205 L42.6886336,33.7593205 L38.3915886,31.1444075 L28.4452486,40.0449438 L22.382578,35.7303371 L38.3915886,18.4719101 L49.9287392,14.1573034 C44.1471033,15.5955056 41.2562853,16.0749064 41.2562853,15.5955056 Z" id="Path-7" fill="#FFE9C8"></path>
                    <path d="M67.0370973,0.439168786 C66.4643601,-0.146389595 65.5359531,-0.146389595 64.9632159,0.439168786 L54.915011,10.7154139 L44.8976064,14.7248144 L33.0600555,10.6884145 L23.0367841,0.439168786 C22.4640469,-0.146389595 21.5356399,-0.146389595 20.9629027,0.439168786 L0.429423189,21.4386478 C-0.143141063,22.0243831 -0.143141063,22.97386 0.429423189,23.5595952 L10.382294,33.7383427 L13.0751132,47.5050012 L11.9120383,48.6959717 C10.306078,50.3381416 9.82561827,52.808024 10.6947263,54.953764 C11.5638344,57.0995039 13.6113262,58.4984654 15.8823332,58.4982285 C15.9762005,58.4982285 16.0671345,58.475729 16.1610018,58.4697292 C16.1610018,58.5672268 16.133135,58.6587245 16.133135,58.7562221 C16.1371767,61.9262343 18.6493743,64.4947742 21.7490416,64.4980796 C21.8429089,64.4980796 21.9338429,64.4755802 22.0277103,64.4695804 C22.0277103,64.5670779 21.9998434,64.6585757 21.9998434,64.7560732 C22.0038851,67.9260854 24.5160827,70.4946254 27.61575,70.4979308 C27.7096174,70.4979308 27.8005514,70.4754314 27.8944187,70.4694315 C27.8944187,70.5669291 27.8665518,70.6584268 27.8665518,70.7559244 C27.8663201,73.078471 29.2342373,75.1724299 31.3323611,76.061262 C33.430485,76.9500942 35.8455582,76.4587306 37.4512867,74.8163237 L37.4512867,74.8163237 L38.8651634,73.3688596 L41.747184,76.3162865 C43.3527746,77.9597668 45.7685293,78.4518132 47.867296,77.5628448 C49.9660626,76.6738763 51.3342112,74.5790931 51.3333855,72.2558872 C51.3333855,72.1583896 51.3113854,72.0668919 51.3055187,71.9693943 C51.399386,71.9693943 51.49032,71.9978936 51.5841873,71.9978936 C54.6838547,71.9945882 57.1960522,69.4260482 57.200094,66.256036 C57.200094,66.1585385 57.1780938,66.0670407 57.1722271,65.9695431 C57.2660944,65.9695431 57.3570284,65.9980424 57.4508957,65.9980424 C60.5505631,65.994737 63.0627607,63.426197 63.0668024,60.2561849 C63.0668024,60.1586873 63.0448022,60.0671896 63.0389355,59.969692 C63.1328029,59.969692 63.2237368,59.9981913 63.3176042,59.9981913 C65.5886111,59.9984282 67.6361029,58.5994667 68.505211,56.4537268 C69.3743191,54.3079868 68.8938594,51.8381044 67.2878991,50.1959344 L66.4562932,49.3439556 L77.3845043,33.9768368 L87.5705768,23.5595952 C88.1431411,22.97386 88.1431411,22.0243831 87.5705768,21.4386478 L67.0370973,0.439168786 Z M21.9998434,3.62058986 L30.1927017,11.999382 L11.7331037,30.8779137 L3.54024533,22.4991215 L21.9998434,3.62058986 Z M15.8823332,55.4983114 C14.7975626,55.4987993 13.8193899,54.8307432 13.4042005,53.805829 C12.9890111,52.7809149 13.2186282,51.6011274 13.9859197,50.816919 L15.9542004,48.8009691 C16.7213896,48.0167304 17.8748941,47.782189 18.877064,48.2066648 C19.8792339,48.6311406 20.5328126,49.6310843 20.5331663,50.7404209 C20.5313337,51.4676064 20.2487994,52.1646355 19.7470274,52.6798728 L17.7787467,54.6958228 C17.2765271,55.2112249 16.5938119,55.5001205 15.8823332,55.4983114 L15.8823332,55.4983114 Z M21.7490416,61.4981626 C20.664271,61.4986505 19.6860984,60.8305944 19.2709089,59.8056802 C18.8557195,58.780766 19.0853367,57.6009785 19.8526281,56.8167702 L21.8209088,54.8008202 C22.5880981,54.0165816 23.7416025,53.7820401 24.7437724,54.206516 C25.7459423,54.6309918 26.399521,55.6309355 26.3998747,56.7402721 C26.3980422,57.4674576 26.1155079,58.1644867 25.6137358,58.679724 L23.6454551,60.695674 C23.1432355,61.2110761 22.4605203,61.4999716 21.7490416,61.4981626 Z M27.61575,67.4980138 C26.5309794,67.4985016 25.5528068,66.8304455 25.1376174,65.8055314 C24.7224279,64.7806172 24.9520451,63.6008297 25.7193365,62.8166214 L27.6876172,60.8006714 C28.4548065,60.0164327 29.6083109,59.7818913 30.6104808,60.2063671 C31.6126507,60.6308429 32.2662294,61.6307866 32.2665831,62.7401233 C32.2647506,63.4673088 31.9822163,64.1643378 31.4804442,64.6795751 L29.5121635,66.6955251 C29.0099439,67.2109273 28.3272287,67.4998228 27.61575,67.4980138 Z M37.3471526,70.6794263 L35.378872,72.6953763 C34.6116827,73.4796149 33.4581782,73.7141564 32.4560084,73.2896805 C31.4538385,72.8652047 30.8002598,71.8652611 30.799906,70.7559244 C30.8017386,70.0287389 31.0842729,69.3317098 31.586045,68.8164725 L33.5543256,66.8005225 C34.3215149,66.0162839 35.4750194,65.7817425 36.4771893,66.2062183 C37.4793591,66.6306941 38.1329378,67.6306378 38.1332916,68.7399744 C38.131459,69.4671599 37.8489247,70.164189 37.3471526,70.6794263 Z M63.3176042,56.9982657 C62.6061255,57.0000833 61.9234103,56.7111877 61.4211907,56.1957856 L55.3036805,49.9379408 L53.229799,52.0588882 L59.3487759,58.316733 C60.1147522,59.1016663 60.3433294,60.2810166 59.92803,61.30541 C59.5127306,62.3298035 58.5352382,62.997756 57.4508957,62.9981169 C56.7394171,62.9999344 56.0567018,62.7110389 55.5544822,62.1956368 L49.436972,55.937792 L47.3630906,58.0587394 L53.4820675,64.3165841 C54.2480438,65.1015174 54.476621,66.2808677 54.0613215,67.3052612 C53.6460221,68.3296546 52.6685297,68.9976071 51.5841873,68.997968 C50.8727086,68.9997856 50.1899934,68.7108901 49.6877738,68.1954879 L43.5702636,61.9376432 L41.4963822,64.0585905 L47.6153591,70.3164353 C48.3813353,71.1013686 48.6099125,72.2807189 48.1946131,73.3051123 C47.7793137,74.3295058 46.8018213,74.9978277 45.7174789,74.9978277 C45.0060002,74.9996367 44.323285,74.7107412 43.8210654,74.1953391 L40.6413094,70.9479196 C41.3597161,69.1744191 41.1652267,67.1512328 40.1228642,65.5547653 C39.0805017,63.9582978 37.3278021,62.9991975 35.4507391,62.9981169 C35.3568718,62.9981169 35.2659378,63.0206163 35.1720705,63.0266162 C35.1720705,62.9291186 35.1999374,62.8376208 35.1999374,62.7401233 C35.1958956,59.5701111 32.6836981,57.0015711 29.5840307,56.9982657 C29.4901634,56.9982657 29.3992294,57.0207651 29.3053621,57.026765 C29.3053621,56.9292674 29.3332289,56.8377697 29.3332289,56.7402721 C29.3291872,53.5702599 26.8169896,51.00172 23.7173223,50.9984145 C23.623455,50.9984145 23.532521,51.020914 23.4386536,51.0269138 C23.4386536,50.9294163 23.4665205,50.8379185 23.4665205,50.7404209 C23.4686084,48.8139112 22.5256162,47.0147919 20.9556957,45.9500592 C19.3857751,44.8853265 17.3982937,44.6969752 15.6637983,45.4485522 L13.3244483,33.4878489 L32.662586,13.7153394 L40.6266427,16.4317721 L38.3283596,17.3512492 C38.1398035,17.4272545 37.9685609,17.542135 37.8252894,17.6887409 L23.6410551,32.196381 C21.4483219,34.4388776 21.4483219,38.0746828 23.6410552,40.3171794 C25.8337885,42.5596759 29.3889116,42.559676 31.5816449,40.3171795 L38.1919587,33.5553473 C40.2682521,35.2163251 42.8306429,36.1144952 45.4666771,36.105284 C46.6184702,36.1060113 47.7642301,35.935224 48.8679013,35.5982966 L65.2154843,52.3168818 C65.9814606,53.1018151 66.2100378,54.2811654 65.7947384,55.3055589 C65.379439,56.3299523 64.4019466,56.9979048 63.3176042,56.9982657 L63.3176042,56.9982657 Z M64.3574782,47.1975088 L51.7176549,34.2708295 C52.4850482,33.7840451 53.1960334,33.2098965 53.8370034,32.559372 L55.3036805,31.0594092 L53.229799,28.9384618 L51.7631219,30.4384246 C48.2854295,33.994127 42.6479248,33.994127 39.1702323,30.4384246 C38.5974951,29.8528662 37.6690881,29.8528662 37.0963509,30.4384246 L29.5121635,38.1962321 C28.7449743,38.9804708 27.5914698,39.2150122 26.5892999,38.7905364 C25.58713,38.3660606 24.9331976,37.3661169 24.9331976,36.2567802 C24.9350302,35.5295947 25.2175645,34.8325657 25.7193365,34.3173284 L39.6865026,20.0316827 L44.9797403,17.9137353 L45.0032071,17.9137353 L45.0032071,17.8942358 L55.3682143,13.7468387 L74.342616,33.1488573 L64.3574782,47.1975088 Z M76.2668963,30.8779137 L57.8072983,11.999382 L66.0001566,3.62058986 L84.4597547,22.4991215 L76.2668963,30.8779137 Z" id="Shape" fill="#000000" fill-rule="nonzero"></path>
                    <polygon id="Rectangle" fill="#000000" transform="translate(76.574206, 22.663848) rotate(-45.000000) translate(-76.574206, -22.663848) " points="75.1016256 21.1912678 78.0850815 21.1529732 78.0467868 24.1364291 75.0633309 24.1747237"></polygon>
                    <polygon id="Rectangle" fill="#000000" transform="translate(11.781102, 22.663393) rotate(-45.000000) translate(-11.781102, -22.663393) " points="10.3085213 21.1908121 13.2919772 21.1525175 13.2536826 24.1359734 10.2702267 24.174268"></polygon>
                </g>
            </g>
        </g>
    </g>
</svg>