<svg width="46" height="45" viewBox="0 0 46 45" fill="none" xmlns="http://www.w3.org/2000/svg">
<path fill-rule="evenodd" clip-rule="evenodd" d="M17.1875 33.75C26.4038 33.75 33.875 26.2788 33.875 17.0625C33.875 7.84625 26.4038 0.375 17.1875 0.375C7.97125 0.375 0.5 7.84625 0.5 17.0625C0.5 26.2788 7.97125 33.75 17.1875 33.75ZM17.1875 28.4375C23.4697 28.4375 28.5625 23.3447 28.5625 17.0625C28.5625 10.7803 23.4697 5.6875 17.1875 5.6875C10.9053 5.6875 5.8125 10.7803 5.8125 17.0625C5.8125 23.3447 10.9053 28.4375 17.1875 28.4375Z" fill="#F7EFE3"/>
<circle cx="17.1875" cy="17.0625" r="15.6875" stroke="#0F1726" stroke-width="2"/>
<circle cx="17.1875" cy="17.0625" r="10.375" stroke="#0F1726" stroke-width="2"/>
<circle cx="17.1875" cy="14.6875" r="3.5" stroke="#0F1726" stroke-width="2"/>
<mask id="mask0" mask-type="alpha" maskUnits="userSpaceOnUse" x="5" y="5" width="24" height="24">
<circle cx="17.1875" cy="17.0625" r="11.375" fill="#404040"/>
</mask>
<g mask="url(#mask0)">
<circle cx="17.1875" cy="29.7188" r="10.5938" stroke="#0F1726" stroke-width="2"/>
</g>
<line x1="28.6446" y1="27.1054" x2="33.1759" y2="31.6366" stroke="#0F1726" stroke-width="2"/>
<rect x="30.9552" y="34.882" width="7.4576" height="2.8125" transform="rotate(-45 30.9552 34.882)" stroke="#0F1726" stroke-width="2"/>
<path d="M32.9362 36.8631L38.2096 31.5898L41.6536 35.0338C43.1098 36.49 43.1098 38.851 41.6536 40.3071C40.1975 41.7633 37.8365 41.7633 36.3803 40.3071L32.9362 36.8631Z" fill="#F7EFE3" stroke="#0F1726" stroke-width="2"/>
</svg>
