<svg width="48" height="49" viewBox="0 0 48 49" fill="none" xmlns="http://www.w3.org/2000/svg">
<rect y="0.464386" width="48" height="48" rx="8" fill="#EC555B" fill-opacity="0.2"/>
<path fill-rule="evenodd" clip-rule="evenodd" d="M32.9428 15.0572C33.4635 15.5779 33.4635 16.4221 32.9428 16.9428L16.9428 32.9428C16.4221 33.4635 15.5779 33.4635 15.0572 32.9428C14.5365 32.4221 14.5365 31.5779 15.0572 31.0572L31.0572 15.0572C31.5779 14.5365 32.4221 14.5365 32.9428 15.0572Z" fill="#EC555B"/>
<path fill-rule="evenodd" clip-rule="evenodd" d="M15.0572 15.0572C15.5779 14.5365 16.4221 14.5365 16.9428 15.0572L32.9428 31.0572C33.4635 31.5779 33.4635 32.4221 32.9428 32.9428C32.4221 33.4635 31.5779 33.4635 31.0572 32.9428L15.0572 16.9428C14.5365 16.4221 14.5365 15.5779 15.0572 15.0572Z" fill="#EC555B"/>
</svg>
