<svg width="1120" height="1057" viewBox="0 0 1120 1057" fill="none" xmlns="http://www.w3.org/2000/svg">
<path fill-rule="evenodd" clip-rule="evenodd" d="M276.208 310.329C274.593 303.79 254.505 308.351 254.229 316.158C253.148 323.458 276.622 316.351 276.208 310.329ZM295.412 318.834C291.798 317.87 289.201 317.518 288.453 322.245C298.544 336.277 308.265 315.847 295.412 318.834ZM331.361 304.151C326.893 298.662 315.269 297.928 315.902 306.086C318.418 307.831 321.142 308.93 322.913 312.413C329.798 322.071 341.508 313.344 331.361 304.151ZM315.923 330.916C308.101 332.666 301.643 340.344 296.131 347.38C303.739 351.777 314.87 337.33 315.923 330.916ZM354.473 333.57C359.274 337.221 368.746 334.561 367.912 326.838C365.448 320.129 351.927 317.294 346.966 322.7C342.327 328.357 348.738 330.577 354.473 333.57ZM411.056 305.711C406.892 303.831 389.629 310.821 390.501 316.641C392.894 323.077 412.725 312.255 411.056 305.711ZM421.064 339.879C426.349 327.714 400.799 334.316 398.571 341.8C399.425 349.226 417.245 344.822 421.064 339.879ZM446.406 305.824C435.201 307.889 439.805 319.803 443.236 326.913C452.957 341.404 454.993 305.884 446.406 305.824ZM475.371 325.679C484.416 321.985 487.363 302.847 476.943 314.491C476.194 318.564 461.631 332.598 475.371 325.679ZM501.199 321.246C506.947 315.506 503.816 307.474 496.221 317.042C492.857 322.854 494.064 327.581 501.199 321.246ZM523.613 294.607C520.684 296.322 518.521 298.529 520.472 301.9C533.342 332.865 536.818 289.339 523.613 294.607ZM552.286 283.934C545.766 282.434 533.572 290.003 545.738 292.321C552.427 295.812 557.59 299.165 564.749 303.448C584.349 305.508 562.932 282.885 552.286 283.934ZM480.932 413.042C494.98 407.969 481.26 399.227 473.908 396.365C459.524 395.129 473.959 411.735 480.932 413.042ZM561.008 325.553C564.783 327.909 569.895 328.593 573.647 332.9C593.982 324.169 564.858 310.478 561.008 325.553ZM560.536 341.814C558.387 332.073 544.033 354.598 543.938 359.539C543.707 377.241 559.598 346.906 560.536 341.814ZM400.446 410.235C392.89 422.156 391.768 436.418 404.435 417.453C409.681 411.037 407.925 398.003 400.446 410.235ZM609.156 337.765C614.559 327.103 616.742 316.953 621.397 305.429C614.631 305.497 607.984 310.549 606.338 318.074C605.449 322.645 597.406 348.873 609.156 337.765ZM582.5 364.447C579.778 369.35 571.913 370.104 570.699 374.696C580.613 386.089 605.326 349.323 582.5 364.447ZM666.047 322.368C661.177 317.896 648.488 303.163 644.992 314.116C649.629 319.887 667.062 340.869 666.047 322.368ZM647.038 338.157C642.369 336.647 632.361 337.675 632.133 343.99C635.942 350.003 648.946 345.68 647.038 338.157ZM586.982 402.163C585.152 405.137 573.612 415.396 579.997 418.355C591.908 413.24 606.014 390.395 582.803 398.954C584.112 399.959 585.375 400.929 586.982 402.163ZM612.851 379.784C610.111 381.032 608.985 388.831 613.851 387.493C617.667 386.732 620.638 375.752 612.851 379.784ZM661.815 362.418C650.639 364.971 639.156 360.971 626.715 361.836C609.385 368.055 636.08 374.863 643.329 373.592C648.697 373.79 666.823 370.69 661.815 362.418ZM624.568 430.756C624.115 422.024 622.077 403.67 614.882 421.23C613.519 427.117 618.166 441.701 624.568 430.756ZM633.769 402.948C642.416 404.529 640.483 413.196 645.135 418.618C659.285 414.377 642.403 387.424 633.769 402.948ZM688.704 399.451C682.419 398.176 666.16 396.591 665.585 404.566C671.954 407.501 688.564 408.098 688.704 399.451ZM631.495 515.134C634.159 511.48 630.134 505.516 626.85 512.531C623.455 513.137 617.757 512.544 615.052 517.237C612.809 526.215 629.984 522.538 631.495 515.134ZM657.494 490.418C645.85 486.371 648.587 497.124 654.571 503.027C662.534 502.188 664.382 494.466 657.494 490.418ZM735.13 404.137C751.186 402.644 723.364 381.255 718.636 391.581C724.67 394.084 728.355 400.897 735.13 404.137ZM318.11 284.381C343.211 282.911 366.627 289.699 391.654 287.305C480.744 276.827 449.879 281.816 470.681 297.801C478.425 297.859 477.281 289.378 470.91 285.696C525.847 269.268 561.28 277.567 604.503 274.795C610.598 273.316 604.778 287.547 615.184 284.62C621.425 283.616 615.643 275.04 620.959 274.687C644.633 272.39 635.325 273.336 639.065 290.977C645.987 289.848 646.558 284.024 645.734 277.428C652.613 285.009 655.368 277.951 661.105 281.031C675.45 299.471 683.309 321.194 699.554 337.475C703.655 345.172 692.317 359.079 689.631 367.019C692.543 374.574 707.718 355.159 708.045 350.227C709.268 351.334 717.301 351.317 721.852 357.027C782.981 409.185 799.183 411.773 743.583 426.964C734.572 431.966 729.81 418.019 721.002 420.153C717.185 422.102 719.648 424.819 722.802 427.223C721.941 427.363 721.082 427.508 720.221 427.648C721.473 440.944 701.604 434.483 692.552 438.108C684.651 439.715 674.351 448.688 671.636 437.219C666.912 440.122 664.848 431.558 660.592 428.945C653.779 428.474 655.597 437.286 658.759 441.15C652.867 441.285 655.531 447.583 651.078 450.935C639.98 453.631 606.024 475.638 631.093 478.54C641.433 477.437 637.41 469.177 630.227 465.154C632.322 462.009 637.094 459.182 641.248 457.144C642.206 463.641 647.562 469.982 651.813 458.769C657.215 466.763 663.809 475.911 671.672 483.22C657.065 489.565 672.455 495.838 681.315 492.345C684.351 493.992 690.247 498.619 693.891 501.665C683.184 508.452 666.323 514.188 654.268 521.75C653.896 515.734 642.966 514.882 643.218 520.504C645.023 524.873 646.421 527.772 647.412 529.202C635.967 535.092 586.822 588.375 596.543 571.246C601.53 564.262 599.897 550.844 606.945 550.492C621.088 551.293 614.191 537.105 604.571 542.136C605.086 528.906 599.866 514.922 604.769 501.278C598.587 499.884 599.752 494.503 602.106 487.527C597.118 489.534 590.83 483.492 592.873 477.512C594.508 472.671 598.71 473.471 596.136 466.945C593.569 460.493 600.445 457.142 601.749 449.539C600.915 445.199 593.301 450.458 592.343 454.327C589.723 453.343 591.139 446.594 587.167 446.983C572.729 440.071 563.59 423.919 553.407 411.762C549.794 406.647 521.858 415.839 513.458 417.285C516.473 391.993 503.472 401.09 505.167 417.241C489.658 419.118 468.64 422.782 452.072 425.943C458.538 420.89 457.768 403.176 450.872 409.025C448.697 424.142 425.742 428.429 414.783 431.701C408.408 433.316 401.781 436.032 395.825 439.083C390.621 429.709 384.78 415.952 382.008 404.051C388.832 405.139 388.691 397.827 381.76 395.124C386.175 395.018 385.57 389.55 390.166 386.706C398.345 383.123 405.66 385.741 412.952 389.189C412.273 409.371 443.459 405.261 418.198 388.077C427.798 386.217 444.234 382.168 453.385 385.921C458.622 393.977 472.595 395.192 465.958 383.108C479.309 382.236 475.929 375.433 483.533 373.98C489.518 372.764 498.232 374.963 504.619 371.344C509.255 366.432 519.965 364.938 513.493 356.945C515.724 359.993 533.687 336.866 522.113 341.359C517.042 342.181 511.268 358.174 508.821 349.246C499.975 355.949 498.274 352.529 491.441 350.08C487.612 350.567 483.194 351.606 478.329 352.221C481.029 339.786 467.43 329.731 463.231 344.343C466.063 344.19 466.638 346.365 467.648 350.087C436.595 351.569 410.965 359.263 388.731 356.546C366.498 353.83 345.554 355.988 323.229 351.554C303.871 361.932 302.635 368.902 283.171 356.852C275.217 359.112 270.233 363.515 267.302 356.036C265.641 356.563 263.177 356.428 260.17 357.147C263.737 352.7 267.947 329.342 256.858 338.668C256.488 345.159 252.664 355.123 251.965 361.912C245.394 364.616 236.055 367.002 229.607 372.646C228.064 360.421 228.005 344.413 225.39 333.035C228.339 330.661 230.288 327.648 231.715 323.301C216.99 332.376 226.622 321.214 218.47 317.186C215.34 316.931 213.962 313.113 211.896 310.579C213.386 307.731 214.189 302.472 219.743 302.02C254.938 284.519 287.465 290.249 318.11 284.381Z" fill="#6C5CE7"/>
<path fill-rule="evenodd" clip-rule="evenodd" d="M324.138 437.131C323.828 434.117 330.826 431.813 334.048 428.314C344.833 415.236 310.168 433.661 303.463 423.876C310.312 423.324 320.299 415.43 322.676 422.948C320.805 415.137 335.312 411.543 333.422 402.036C337.811 403.523 352.562 399.936 350.582 407.463C356.02 406.244 361.135 405.099 366.609 403.872C366.364 409.931 376.561 418.02 371.594 423.614C368.511 425.93 361.738 425.45 363.552 431.157C355.533 436.219 346.075 443.962 335.265 445.333C354.435 425.724 339.119 432.219 324.138 437.131ZM215.942 340.251C207.665 340.286 180.37 340.305 181.967 346.462C185.839 353.16 179.112 356.363 174.665 362.505C176.062 346.364 161.523 363.507 155.047 366.398C146.41 371.257 137.877 371.014 127.462 372.092C171.272 346.725 141.575 359.384 116.755 356.725C122.772 352.349 131.515 350.716 139.802 350.243C161.761 340.245 113.773 348.72 110.112 342.051C115.162 340.639 120.378 334.542 126.549 335.521C140.142 338.86 154.176 334.414 167.978 328.855C181.086 331.275 192.773 318.093 207.844 314.933C212.155 320.406 213.472 332.041 215.942 340.251ZM527.266 726.326C532.418 718.543 538.08 709.154 543.416 700.604C559.333 688.188 573.098 675.794 588.31 661.491C616.462 639.544 620.375 625.318 647.56 647.37C650.66 649.905 642.485 656.836 640.283 661.004C639.98 665.785 636.614 667.296 634.936 671.991C634.048 676.271 626.375 676.429 621.905 679.187C588.263 691.21 565.609 718.751 532.441 732.525C534.814 729.458 532.134 726.435 527.266 726.326ZM607.956 276.707C617.934 275.948 629.729 274.743 640.872 274.723C662.266 287.743 673.732 311.624 687.9 333.369C709.941 364.584 749.294 396.719 776.789 408.562C763.303 423.847 739.863 424.053 720.208 428.735C675.624 436.526 622.537 443.848 600.516 484.46C585.284 396.423 522.686 396.937 506.218 339.38C502.008 340.085 501.25 343.501 498.574 347.875C483.04 350.388 465.254 351.262 448.415 350.697C363.024 354.14 281.272 335.176 232.099 368.615C227.974 346.674 227.994 319.582 212.494 311.042C275.519 286.476 346.159 301.529 412.764 295.417C431.494 293.516 447.891 291.4 466.976 287.659C526.016 269.428 563.634 279.762 607.956 276.707ZM493.825 177.201C507.629 186.709 509.879 188.808 526.3 188.75C519.845 202.114 544.297 201.548 519.515 214.988C520.283 227.012 532.454 217.221 534.917 209.9C553.992 227.693 520.993 232.157 509.162 239.098C508.241 249.217 523.524 244.611 529.068 240.69C534.391 249.81 541.176 258.256 547.584 267.782C437.464 266.208 487.363 293.806 469.154 245.664C468.6 242.381 473.666 240.425 472.241 235.216C471.648 233.186 469.77 232.532 467.063 234.019C445.001 250.518 444.412 220.727 465.475 223.878C468.405 220.566 460.801 216.924 464.992 213.487C478.976 198.455 477.957 176.073 477.606 156.272C479.364 157.335 480.771 158.185 482.219 159.059C480.904 159.082 479.833 159.103 478.504 159.126C479.564 163.991 483.733 166.071 485.038 169.829C480.513 176.206 480.234 180.674 484.526 183.912C486.405 180.741 488.254 177.62 490.159 174.407C490.474 174.586 492.185 175.587 493.825 177.201ZM672.387 484.135C677.602 490.211 684.323 494.753 690.905 501.023C640.758 522.323 626.742 546.569 597.778 572.382C612.097 545.593 599.522 522.295 609.428 496.849C614.916 480.542 624.641 468.096 640.205 458.953C643.294 457.105 648.397 455.004 650.578 459.661C655.653 469.505 664.185 476.02 672.387 484.135ZM684.026 478.506C674.642 471.103 664.791 462.917 656.664 452.401C670.475 447.912 683.638 443.962 698.975 441.665C790.72 427.204 757.822 410.496 782.447 434.04C747.986 442.435 720.12 463.936 697.416 490.823L684.026 478.506ZM438.072 424.015C386.541 430.234 402.368 450.792 385.238 413.185C385.457 406.934 374.97 396.871 384.099 395.096C411.151 387.37 437.858 386.22 466.597 383.826C511.181 375.845 502.158 367.733 514.78 384.733C521.828 394.339 531.239 399.413 538.702 409.787C506.137 415.529 471.761 418.231 438.072 424.015ZM538.041 242.092C537.468 241.293 536.897 240.494 536.437 239.853C562.203 224.372 543.057 207.215 532.204 192.665C533.69 188.688 535.441 185.447 531.134 181.291C513.336 177.511 514.465 182.343 497.814 169.883C493.431 166.969 489.965 165.828 485.436 161.582C485.009 159.007 485.293 156.095 482.987 153.415C467.88 136.772 441.951 134.916 422.546 145.989C409.986 151.891 404.628 165.475 399.498 178.063C380.205 188.313 335.791 146.823 330.594 186.625C295.96 177.865 258.9 172.558 222.085 177.041C203.371 179.941 168.752 194.095 189.46 215.394C192.604 218.021 196.234 224.315 191.993 229.043C183.956 236.161 173.991 234.753 163.95 239.889C79.1781 273.465 176.644 296.976 215.041 301.821C211.881 303.56 207.439 305.648 203.89 307.816C203.369 309.936 203.981 310.335 199.803 310.545C184.011 312.274 173.392 321.466 157.223 323.255C144.364 329.155 105.823 315.646 110.247 335.572C93.8776 343.969 100.584 349.004 115.537 350.439C95.5971 359.571 110.498 363.903 124.538 364.267C74.8899 394.679 147.256 386.934 162.364 372.375C164.176 392.241 178.902 377.92 184.888 368.072C187.569 365.791 186.568 360.157 191.175 361.368C191.647 353.411 201.713 348.245 210.421 347.254C224.642 340.578 219.147 370.929 229.334 376.608C245.281 374.064 263.932 367.116 282.026 362.701C270.393 385.383 278.685 406.447 307.225 397.076C327.841 386.801 341.462 368.433 365.771 365.787C399.21 358.539 432.243 360.032 466.696 358.938C505.732 356.953 495.978 343.949 504.283 369.196C462.255 377.778 415.555 369.168 375.238 388.344C371.215 391.717 368.517 394.791 362.394 394.946C352.788 398.822 344.795 396.107 334.882 395.212C325.646 395.077 315.373 401.378 326.193 409.268C314.934 415.033 300.454 413.889 289.006 420.294C272.378 430.545 309.604 435.149 316.216 434.111C305.678 443.479 309.883 447.467 323.605 443.734C306.466 459.738 338.613 452.116 345.699 447.783C356.535 443.12 362.711 434.129 374.51 430.94C380.199 429.095 384.431 444.787 388.467 448.038C393.818 451.624 411.016 455.824 402.219 443.991C447.348 428.888 497.226 431.853 542.36 414.426C569.331 429.186 582.328 468.124 588.34 498.981C598.907 584.665 570.199 583.329 592.933 584.767C622.76 576.962 635.758 545.193 660.801 528.298C668.994 522.286 681.55 514.284 690.922 512.598C692.529 514.355 693.229 515.931 696.362 514.523C701.129 511.054 702.461 513.369 704.785 518.836C709.498 528.212 712.727 535.326 720.268 543.301C758.669 578.014 799.089 607.783 841.112 639.148C786.237 631.605 750.426 641.979 709.81 640.786C663.752 641.639 664.605 629.073 654.806 643.272C645.016 640.42 634.597 621.426 620.451 628.804C582.349 648.201 555.261 682.862 521.31 709.424C528.978 714.521 503.097 730.116 519.907 733.308C508.82 757.407 561.267 728.663 566.009 724.357C586.766 709.394 605.914 693.178 629.423 681.437C629.59 685.252 624.336 693.028 631.551 695.106C651.232 702.095 671.852 706.625 693.119 711.14C744.834 725.325 797.616 731.296 851.229 727.824C881.078 726.191 916.754 729.533 937.076 702.123C957.765 673.769 905.745 588.166 897.346 569.057C886.053 538.449 810.23 413.093 790.303 430.403C784.578 426.576 789.48 420.952 788.73 414.748C788.556 410.633 784.513 410.951 786.278 405.875C761.812 388.346 738.679 367.805 716.647 345.91C692.314 323.675 685.91 290.287 656.972 272.012C625.818 262.1 587.83 275.181 554.467 267.075C550.073 258.385 546.079 249.458 538.041 242.092Z" fill="#0F1726"/>
<path fill-rule="evenodd" clip-rule="evenodd" d="M730.13 891.367C714.266 915.014 717.754 920.018 720.449 945.335C719.706 973.968 724.71 1003.23 719.045 1032.32C715.233 984.839 675.44 953.804 679.352 927.031C681.774 913.664 690.412 904.251 699.11 893.211C715.252 867.325 711.312 881.221 730.13 891.367ZM734.915 893.927C739.943 893.342 735.547 899.001 740.697 899.659C752.298 891.336 759.281 876.773 769.332 865.339C799.997 824.228 826.287 781.748 840.651 731.79C735.942 730.428 763.65 711.861 743.975 767.131C741.437 784.909 734.042 799.649 726.577 816.749C718.907 834.826 715.073 852.404 699.222 866.485C696.687 870.612 706.561 870.602 702.327 874.757C691.201 888.959 678.787 901.244 670.877 918.282C665.811 931.857 667.253 945.856 676.282 958.205C691.898 987.261 707.951 1013.25 709.803 1048.33C731.622 1074.87 737.026 989.943 733.552 980.113C734.64 931.52 723.119 913.372 734.915 893.927Z" fill="#0F1726"/>
<path fill-rule="evenodd" clip-rule="evenodd" d="M766.955 389.738C769.074 391.373 771.193 393.009 773.313 394.644C771.192 393.008 769.074 391.373 766.955 389.738Z" fill="#0F1726"/>
<path fill-rule="evenodd" clip-rule="evenodd" d="M727.19 549.659C725.946 548.544 724.701 547.429 723.466 546.323C724.714 547.441 725.953 548.551 727.19 549.659Z" fill="#0F1726"/>
<path fill-rule="evenodd" clip-rule="evenodd" d="M815.725 441.594C816.416 443.781 817.644 445.397 820.075 445.728C818.626 444.349 817.176 442.972 815.725 441.594Z" fill="#0F1726"/>
<path fill-rule="evenodd" clip-rule="evenodd" d="M802.681 430.664C804.281 431.88 805.878 433.096 807.477 434.312C805.879 433.097 804.281 431.88 802.681 430.664Z" fill="#0F1726"/>
<path fill-rule="evenodd" clip-rule="evenodd" d="M501.664 171.496C503.284 172.689 504.902 173.884 506.52 175.079C504.901 173.883 503.282 172.691 501.664 171.496Z" fill="#0F1726"/>
<path fill-rule="evenodd" clip-rule="evenodd" d="M474.372 145.035C475.746 146.003 477.12 146.97 478.495 147.939C477.12 146.97 475.746 146.003 474.372 145.035Z" fill="#0F1726"/>
<path fill-rule="evenodd" clip-rule="evenodd" d="M538.817 241.889C540.036 243.026 541.253 244.165 542.471 245.302L538.817 241.889Z" fill="#0F1726"/>
<path fill-rule="evenodd" clip-rule="evenodd" d="M824.756 452.455C825.972 453.595 827.189 454.736 828.404 455.875C828.001 453.861 826.647 452.868 824.756 452.455Z" fill="#0F1726"/>
<path fill-rule="evenodd" clip-rule="evenodd" d="M556.843 676.982C558.058 675.835 559.274 674.687 560.487 673.541C559.27 674.69 558.056 675.837 556.843 676.982Z" fill="#0F1726"/>
<path fill-rule="evenodd" clip-rule="evenodd" d="M718.992 540.847C718.267 540.151 717.544 539.456 716.827 538.769C717.554 539.468 718.272 540.158 718.992 540.847Z" fill="#0F1726"/>
<path fill-rule="evenodd" clip-rule="evenodd" d="M102.29 347.173C101.551 346.494 100.81 345.815 100.078 345.147C100.817 345.83 101.553 346.501 102.29 347.173Z" fill="#0F1726"/>
<path fill-rule="evenodd" clip-rule="evenodd" d="M851.46 486.941C852.295 488.003 853.132 489.063 853.966 490.124C853.13 489.061 852.296 488 851.46 486.941Z" fill="#0F1726"/>
<path fill-rule="evenodd" clip-rule="evenodd" d="M781.374 594.152C780.65 593.456 779.923 592.761 779.208 592.076C779.937 592.774 780.655 593.464 781.374 594.152Z" fill="#0F1726"/>
<path fill-rule="evenodd" clip-rule="evenodd" d="M669.304 281.211C670.346 282.186 671.39 283.161 672.434 284.135C671.389 283.16 670.347 282.185 669.304 281.211Z" fill="#0F1726"/>
<path fill-rule="evenodd" clip-rule="evenodd" d="M684.776 477.601C683.39 476.645 682.003 475.69 680.619 474.734C682.005 475.691 683.391 476.646 684.776 477.601Z" fill="#0F1726"/>
<path fill-rule="evenodd" clip-rule="evenodd" d="M492.092 174.516C492.844 175.18 493.598 175.846 494.338 176.506C493.581 175.839 492.837 175.176 492.092 174.516Z" fill="#0F1726"/>
<path fill-rule="evenodd" clip-rule="evenodd" d="M497.379 182.063C495.838 187.447 501.82 191.29 492.625 192.802C485.061 192.447 488.884 199.756 493.983 200.31C505.18 199.783 504.458 188.302 497.379 182.063Z" fill="#0F1726"/>
<path fill-rule="evenodd" clip-rule="evenodd" d="M1035.48 369.486C1043.47 385.148 1054.82 398.927 1063.84 413.991C1066.1 417.761 1074.25 427.395 1072.18 431.115C1070.96 433.29 1066.41 434.43 1064.25 435.247C1060.54 436.647 1056.97 438.146 1053.36 439.79C1036.88 447.325 1020.9 455.28 1003.92 461.746C1001.36 462.718 991.996 468.84 992.678 463.724C992.988 461.405 994.716 459.52 993.818 456.737C993.356 455.304 989.95 452.868 992.07 451.42C992.616 452.114 993.162 452.809 993.709 453.502C993.993 451.608 994.952 449.872 994.913 447.921C994.889 446.709 994.113 445.735 994.317 444.492C994.599 442.773 996.31 441.498 996.963 439.915C997.614 438.338 997.578 436.506 997.855 434.84C999.495 424.969 1002.94 415.956 1006.07 406.522C1009.17 397.188 1011.34 387.714 1015.03 378.568C1018.93 368.907 1022.61 359.159 1025.9 349.272C1028.34 351.022 1028.87 354.951 1029.89 357.549C1031.5 361.632 1033.49 365.582 1035.48 369.486ZM979.033 453.232C978.675 452.439 978.507 451.607 978.527 450.735C986.365 450.905 979.858 454.203 979.033 453.232ZM978.685 444.676C975.58 444.005 973.551 443.138 972.042 440.927C971.899 440.718 972.554 440.021 972.284 439.667C972.047 439.358 971.475 439.288 971.279 439.012C970.61 438.072 968.484 438.254 969.256 436.399C973.273 437.149 977.702 436.973 981.531 438.555C986.851 440.753 983.913 445.804 978.685 444.676ZM972.14 428.234C967.985 427.164 963.877 427.593 960.219 425.008C956.785 422.584 954.576 418.991 952.817 415.262C961.183 417.007 969.019 420.629 977.344 422.439C980.054 423.029 984.065 422.944 986.259 424.97C988.697 427.221 987.486 429.973 987.072 432.837C982.102 431.28 977.187 429.534 972.14 428.234ZM954.347 405.864C950.345 404.854 945.738 404.812 944.44 400.05C944.23 399.282 943.54 399.579 944.43 398.014C945.368 396.364 947.46 396.079 949.082 396.173C952.895 396.394 956.751 399.554 960.135 401.063C965.533 403.47 971.422 405.164 977.031 407.03C980.914 408.323 985.284 408.971 988.811 411.137C991.534 412.81 993.684 416.999 988.648 416.603C984.062 416.244 978.568 413.06 974.143 411.63C967.602 409.516 961.014 407.545 954.347 405.864ZM959.619 387.311C959.727 387.667 959.834 388.022 959.942 388.377C959.909 388.348 961.904 387.946 962.293 388.107C964.178 388.893 965.927 389.965 967.787 390.807C972.071 392.748 976.645 394.215 981.15 395.553C984.819 396.643 988.797 397.294 992.077 399.366C994.918 401.16 994.912 401.931 993.609 404.896C986.035 400.937 978.317 396.7 970.035 394.413C964.644 392.923 957.68 393.239 958.18 386.369C958.66 386.684 959.139 386.997 959.619 387.311ZM970.691 377.663C971.821 380.075 978.184 380.372 980.559 381.311C983.139 382.33 985.579 383.264 988.266 383.893C990.649 384.45 999.009 385.382 999.271 388.806C999.674 394.053 989.293 389.551 987.605 388.918C980.526 386.264 973.246 383.387 965.864 381.749C967.473 380.388 969.081 379.026 970.691 377.663ZM986.834 368.996C986.364 371.078 1004.92 372.2 1002.64 377.24C1000.88 381.107 984.817 375.092 982.277 373.345C983.816 371.947 986.316 371.281 986.834 368.996ZM997.889 360.143C1000.14 356.622 1000.62 356.902 1003.76 358.1C1006.15 359.014 1009.94 359.312 1007.26 363.025C1004.95 366.205 995.622 363.696 997.889 360.143ZM1009.9 350.263C1011.64 348.655 1011.85 352.157 1011.36 353.182C1010.05 355.908 1008.32 354.266 1006.36 353.245C1007.56 352.278 1008.74 351.283 1009.9 350.263ZM1042.41 348.338C1042.27 347.649 1040.12 346.295 1039.61 345.729C1038.34 344.336 1039.2 343.228 1036.57 343.388C1036.52 343.234 1037.18 342.426 1037.1 342.328C1037.05 342.278 1035.93 341.014 1035.62 340.483C1034.89 339.201 1034.26 337.992 1033.71 336.578C1033.12 335.075 1032.76 333.147 1031.92 331.756C1031.57 331.169 1031.38 330.5 1030.8 330.077C1029.31 328.98 1029.19 330.352 1027.65 329.835C1026.71 329.517 1026.61 328.166 1025.23 328.009C1024.05 327.873 1022.75 328.957 1021.88 329.551C1018.72 331.712 1015.8 334.293 1012.66 336.503C996.562 347.808 979.684 357.954 963.766 369.534C956.099 375.113 948.242 380.66 941.433 387.289C936.523 392.07 927.839 398.266 928.505 405.956C928.989 411.547 933.4 416.158 936.616 420.418C941.454 426.828 945.3 433.911 950.258 440.266C956.17 447.843 961.772 455.465 967.273 463.351C969.619 466.714 971.264 470.652 973.646 473.921C975.103 475.92 979.004 475.847 978.479 478.411C982.501 476.715 985.448 480.787 989.395 480.176C991.717 479.816 994.214 478.023 996.406 477.231C999.696 476.046 1003.08 475.119 1006.39 473.996C1019.53 469.532 1032.22 464.358 1044.94 458.834C1057.09 453.559 1070.22 449.438 1081.68 442.7C1086.23 440.026 1088.85 436.1 1089.51 430.863C1089.99 427.042 1089.64 420.712 1084.43 420.684C1087.33 418.913 1082.77 413.015 1081.22 411.558C1081.19 411.537 1079.8 413.334 1079.31 413.019C1079.49 413.132 1080.09 407.823 1079.63 406.865C1078.29 404.017 1076.61 400.636 1074.9 397.979C1073.34 395.543 1071.32 393.684 1069.9 391.132C1068.19 388.04 1066.86 384.74 1065.12 381.654C1063.45 378.675 1061.65 375.243 1059.44 372.641C1057.53 370.385 1055.45 369.051 1054.1 366.292C1052.44 362.878 1050.79 360.288 1048.39 357.279C1046.32 354.677 1043.12 351.681 1042.41 348.338Z" fill="#0F1726"/>
<path fill-rule="evenodd" clip-rule="evenodd" d="M370.816 746.448C372.024 745.685 373.231 744.92 374.439 744.158C373.704 746.437 373.216 747.485 370.816 746.448ZM367.974 751.867C366.852 751.356 369.41 748.498 369.787 747.953C370.835 750.12 368.6 750.303 367.974 751.867ZM372.662 741.763C373.86 741.849 375.057 741.935 376.255 742.021C373.553 743.396 374.966 742.346 374.441 744.15C373.37 743.789 372.709 742.889 372.662 741.763ZM355.761 755.428C344.575 764.79 328.141 766.911 314.178 764.24C306.156 762.704 299.644 759.206 293.216 754.313C290.738 752.427 288.301 749.512 285.73 747.963C283.751 746.771 283.78 746.912 281.099 747.432C281.289 745.671 282.413 745.121 281.534 743.412C280.437 741.279 278.967 741.862 277.214 742.553C276.894 740.602 276.854 739.671 275.872 737.964C275.902 738.018 274.494 736.963 274.54 737.022C274.335 736.76 273.461 734.66 273.095 734.135C271.598 731.979 269.476 730.051 268.363 727.673C267.388 725.594 267.889 721.998 264.605 722.756C266.971 719.33 263.34 714.719 262.418 711.43C260.978 706.291 261.162 700.283 262.253 695.103C263.418 689.58 265.656 685.061 267.866 680.068C269.411 676.579 268.647 669.463 273.107 667.95C272.755 669.635 271.574 670.792 271.669 672.607C273.588 671.59 275.267 670.13 276.838 668.652C277.608 667.929 280.39 666.167 280.782 665.343C281.586 663.659 279.767 662.28 282.091 661.142C282.625 664.98 287.215 662.063 286.721 659.294C285.29 659.644 284.282 660.471 283.134 661.338C283.973 655.591 288.888 661.028 290.277 656.276C292.703 657.345 294.308 657.657 296.586 656.104C299.119 654.375 298.808 653.401 301.941 653.267C303.018 653.222 305.55 653.836 306.524 653.209C308.408 651.999 306.955 650.248 309.635 649.746C309.521 651.05 310.318 654.338 312.674 653.363C313.145 653.17 312.361 652.259 313.616 651.931C315.475 651.446 317.44 651.069 319.009 652.526C320.015 648.121 329.023 653.946 331.844 654.694C334.671 655.444 336.962 656.237 339.493 657.707C342.021 659.176 342.626 658.556 345.654 658.516C344.398 660.7 345.209 660.59 346.425 661.97C347.197 661.608 347.606 661.79 347.651 662.516C347.777 663.121 348.114 663.597 348.659 663.945C349.436 664.544 350.424 665.071 351.256 665.673C353.213 667.083 355.373 668.332 357.289 669.719C357.848 669.982 358.438 670.132 359.061 670.17C359.005 670.642 358.95 671.116 358.893 671.589C359.835 672.43 359.021 673.777 361.265 673.241C360.399 675.296 362.122 675.107 362.924 676.381C363.654 677.544 363.328 678.369 363.943 679.527C364.22 680.474 364.849 681.008 365.83 681.133C366.165 682.117 366.52 683.094 366.896 684.062C367.691 685.7 368.915 687.213 369.887 688.745C370.54 689.753 371.177 690.774 371.796 691.803C371.072 692.909 371.294 693.63 372.462 693.965C372.823 695.274 373.084 695.413 373.071 697.207C373.041 701.273 373.226 704.575 373.894 708.689C376.797 726.575 369.469 743.957 355.761 755.428ZM390.518 711.945C390.173 702.473 388.517 690.755 385.312 682.708C383.689 678.628 381.95 672.119 379.004 668.518C378.306 667.665 377.415 667.024 376.74 666.168C376.218 665.507 376.328 664.579 375.658 663.934C375.189 663.483 374.313 664.625 373.827 664.128C372.813 663.089 372.874 661.411 372.549 660.11C368.65 661.945 371.25 656.122 366.24 657.782C366.503 650.757 358.462 646.772 353.327 643.585C351.805 642.639 350.751 642.685 349.177 642.17C347.712 641.691 347.657 641.515 346.337 640.588C343.05 638.278 339.83 636.665 335.773 636.004C328.957 634.893 321.621 635.433 314.717 635.001C307 634.517 299.202 635.3 291.715 637.219C264.647 644.162 243.097 666.716 241.191 695.146C238.166 740.302 285.014 777.748 327.897 775.344C361.028 773.485 391.782 746.538 390.518 711.945Z" fill="#0F1726"/>
<path fill-rule="evenodd" clip-rule="evenodd" d="M732.043 232.116C730.747 233.191 725.602 229.911 726.332 228.227C727.424 225.711 734.296 230.248 732.043 232.116ZM738.236 234.206C741.16 236.05 745.092 240.746 748.69 241.031C754.18 241.465 750.998 236.065 749.048 233.929C747.063 231.755 743.164 230.321 743.243 227.099C743.302 224.676 748.458 220.519 745.099 219.865C741.574 219.178 738.433 227.35 735.004 222.25C733.369 219.817 738.248 212.751 732.407 214.611C730.809 215.12 729.704 217.01 727.907 217.073C726.072 217.137 724.736 215.373 723.206 214.662C719.155 212.781 715.963 215.821 719.202 219.381C720.401 220.7 725.643 224.284 720.991 224.937C718.061 225.348 714.996 219.669 711.775 221.368C707.35 223.702 714.051 227.309 715.292 229.348C717.396 232.801 712.603 235.795 711.24 238.998C709.159 243.893 712.402 244.337 715.472 240.879C718.077 237.945 719.573 232.543 723.958 236.542C731.1 243.055 712.715 246.834 717.376 252.696C720.348 256.434 725.743 247.445 726.878 246.005C731.071 240.692 733.663 243.798 738.585 246.601C744.335 249.874 748.015 246.279 742.458 241.794C740.685 240.363 737.7 239.44 736.64 237.281C736.012 236.003 735.93 232.753 738.236 234.206Z" fill="#0F1726"/>
<path fill-rule="evenodd" clip-rule="evenodd" d="M482.855 876.2C479 872.023 470.874 868.244 466.5 873.755C464.669 876.063 464.208 879.275 465.005 882.063C465.929 885.296 469.095 887.205 470.886 883.353C472.125 880.686 470.83 877.131 475.459 878.883C478.34 879.973 481.289 884.095 479.859 887.159C476.637 894.066 464.679 888.49 460.985 885.073C453.651 878.293 460.649 870.558 468.651 869.54C470.718 869.277 475.916 869.924 477.26 867.837C479.044 865.068 475.139 863.783 473.177 863.245C458.753 859.295 444.591 879.515 455.985 890.678C461.16 895.747 470.816 898.353 477.429 894.723C483.628 891.319 488.432 882.243 482.855 876.2Z" fill="#0F1726"/>
<path fill-rule="evenodd" clip-rule="evenodd" d="M504.986 535.558C499.92 535.391 494.853 535.224 489.786 535.057C489.945 531.495 491.773 522.49 488.9 519.717C484.251 515.228 483.293 525.584 483.222 528.029C483.164 530.038 483.674 533.464 482.238 535.144C480.305 537.408 476.201 536.423 473.608 536.757C467.192 537.585 463.624 544.502 471.958 545.137C476.674 545.495 483.841 543.399 484.071 550.152C484.177 553.268 480.388 568.384 488.351 561.365C493.28 557.019 486.187 546.119 493.543 544.108C495.911 543.461 497.843 544.312 499.88 544.294C504.801 544.249 504.617 539.318 504.986 535.558Z" fill="#0F1726"/>
<path fill-rule="evenodd" clip-rule="evenodd" d="M1054.89 662.33C1052.94 660.186 1050.85 656.902 1047.86 656.087C1044.69 655.221 1042.05 657.477 1039.08 658.11C1031 659.832 1031.36 651.16 1030.25 645.729C1029.21 640.6 1026.1 637.861 1020.81 637.917C1018.71 637.939 1009.67 638.36 1009.53 641.58C1009.42 643.897 1013.72 644.013 1015.1 644.216C1018.09 644.659 1020.85 645.116 1022.77 647.757C1026.37 652.708 1024.18 659.978 1029.52 664.082C1035.04 668.327 1038.27 662.644 1043.74 662.734C1047.42 662.795 1048.09 666.439 1051.17 667.391C1054.1 668.298 1057.37 665.053 1054.89 662.33Z" fill="#0F1726"/>
<path fill-rule="evenodd" clip-rule="evenodd" d="M993.603 659.993C995.51 661.584 999.094 658.146 1000.99 657.791C1004.14 657.205 1008.2 658.875 1009.55 661.829C1012.19 667.596 1006.77 674.235 1012.08 679.479C1016.83 684.166 1023.38 678.114 1029.11 678.748C1032.44 679.116 1035.84 679.997 1036.78 675.566C1037.44 672.503 1035.6 670.668 1032.67 670.447C1027.65 670.066 1022.5 676.523 1017.57 674.109C1012.47 671.611 1015.71 664.07 1015.2 659.781C1014.43 653.242 1008.26 648.539 1002.01 651.134C1000.12 651.916 989.971 656.965 993.603 659.993Z" fill="#0F1726"/>
</svg>
