<svg width="882" height="416" viewBox="0 0 882 416" fill="none" xmlns="http://www.w3.org/2000/svg">
<path opacity="0.3" fill-rule="evenodd" clip-rule="evenodd" d="M306.954 199.107C308.599 197.76 310.24 196.411 311.884 195.064C311.217 198.562 310.687 200.199 306.954 199.107ZM303.751 207.628C302.003 207.078 305.255 202.392 305.711 201.518C307.656 204.525 304.389 205.204 303.751 207.628ZM308.822 191.854C310.606 191.761 312.389 191.669 314.173 191.576C310.437 194.101 312.33 192.293 311.885 195.052C310.239 194.715 309.098 193.507 308.822 191.854ZM286.376 215.121C271.576 230.99 247.705 237.129 226.604 235.743C214.48 234.945 204.227 230.973 193.843 224.928C189.838 222.597 185.707 218.741 181.629 216.925C178.489 215.527 178.557 215.731 174.695 216.988C174.653 214.354 176.212 213.336 174.602 210.974C172.592 208.027 170.528 209.157 168.067 210.498C167.237 207.676 167.008 206.309 165.245 203.969C165.3 204.043 163.027 202.743 163.107 202.822C162.755 202.473 161.081 199.534 160.446 198.826C157.841 195.917 154.355 193.459 152.277 190.152C150.457 187.262 150.537 181.861 145.828 183.582C148.694 178.091 142.49 171.95 140.527 167.263C137.459 159.94 136.63 151.038 137.294 143.192C138.001 134.825 140.478 127.744 142.826 119.969C144.468 114.536 142.036 104.171 148.344 101.12C148.133 103.672 146.6 105.597 147.074 108.258C149.72 106.407 151.931 103.943 153.98 101.474C154.984 100.266 158.769 97.1545 159.196 95.8674C160.074 93.2345 157.137 91.5317 160.359 89.4258C161.85 94.9936 168.092 89.8468 166.856 85.8492C164.807 86.6294 163.47 88.0339 161.934 89.524C162.121 80.8872 170.373 88.0128 171.552 80.7439C175.33 81.8776 177.755 82.0442 180.833 79.3343C184.257 76.3186 183.62 74.9379 188.219 74.1662C189.801 73.9019 193.651 74.3449 194.975 73.2409C197.534 71.1092 195.068 68.7915 198.932 67.5601C199.003 69.5055 200.782 74.2135 204.082 72.3426C204.741 71.9705 203.416 70.7698 205.21 70.0555C207.865 68.9993 210.697 68.0828 213.28 69.9462C213.958 63.2597 228.322 70.2097 232.624 70.7966C236.935 71.3863 240.461 72.137 244.467 73.8443C248.468 75.5496 249.248 74.5237 253.71 73.9105C252.256 77.3648 253.433 77.0532 255.48 78.8671C256.553 78.1925 257.19 78.3862 257.39 79.449C257.687 80.3193 258.272 80.9605 259.14 81.374C260.397 82.1165 261.951 82.7139 263.29 83.4492C266.437 85.1724 269.854 86.621 272.936 88.3178C273.811 88.6036 274.708 88.7169 275.635 88.659C275.639 89.3663 275.645 90.0757 275.647 90.7837C277.191 91.854 276.237 93.9906 279.452 92.7888C278.549 95.9809 281.058 95.3859 282.475 97.1199C283.766 98.7027 283.436 99.9802 284.556 101.578C285.138 102.924 286.164 103.598 287.635 103.603C288.309 104.995 289.013 106.371 289.745 107.732C291.218 110.004 293.303 112.014 295.017 114.096C296.166 115.466 297.293 116.855 298.396 118.261C297.529 120.027 297.989 121.051 299.775 121.332C300.548 123.197 300.957 123.354 301.267 126.005C301.968 132.013 302.845 136.853 304.585 142.805C312.146 168.677 304.511 195.677 286.376 215.121ZM329.722 144.566C327.478 130.648 322.888 113.653 316.683 102.36C313.539 96.6352 309.781 87.3447 304.773 82.5688C303.586 81.4363 302.153 80.6541 301 79.5143C300.109 78.634 300.101 77.2433 298.993 76.4144C298.219 75.8349 297.135 77.6804 296.327 77.0365C294.638 75.6874 294.422 73.1991 293.704 71.3386C288.284 74.7616 291.055 65.6895 283.965 69.0566C283.066 58.6385 270.466 54.2285 262.303 50.4638C259.882 49.3465 258.335 49.6068 255.917 49.1356C253.668 48.6966 253.553 48.447 251.435 47.3198C246.161 44.5112 241.111 42.7199 235.001 42.4871C224.736 42.0952 214.006 44.2365 203.735 44.8617C192.255 45.5605 180.886 48.1447 170.185 52.3491C131.499 67.5547 103.817 104.794 106.21 147.112C110.012 214.325 186.026 261.024 248.889 249.623C297.457 240.812 337.921 195.401 329.722 144.566Z" fill="#EBC5B9"/>
<path opacity="0.3" fill-rule="evenodd" clip-rule="evenodd" d="M525.849 138.542C522.941 140.952 511.4 133.597 513.038 129.818C515.487 124.174 530.901 134.351 525.849 138.542ZM539.74 143.231C546.298 147.367 555.119 157.899 563.188 158.538C575.503 159.512 568.366 147.4 563.992 142.608C559.539 137.732 550.793 134.515 550.971 127.288C551.104 121.853 562.669 112.529 555.134 111.061C547.228 109.521 540.18 127.852 532.49 116.411C528.822 110.954 539.766 95.1044 526.664 99.2767C523.079 100.417 520.602 104.658 516.57 104.798C512.455 104.943 509.457 100.984 506.025 99.3906C496.94 95.1711 489.779 101.99 497.045 109.977C499.734 112.934 511.493 120.973 501.058 122.439C494.484 123.361 487.609 110.621 480.385 114.433C470.459 119.668 485.491 127.76 488.274 132.332C492.993 140.078 482.242 146.793 479.186 153.978C474.518 164.958 481.792 165.955 488.678 158.198C494.52 151.616 497.876 139.5 507.713 148.471C523.732 163.08 482.494 171.556 492.949 184.705C499.615 193.089 511.717 172.927 514.263 169.697C523.668 157.779 529.483 164.746 540.522 171.032C553.419 178.375 561.674 170.31 549.21 160.25C545.233 157.04 538.537 154.971 536.159 150.126C534.751 147.262 534.568 139.97 539.74 143.231Z" fill="#EBC5B9"/>
<path opacity="0.3" fill-rule="evenodd" clip-rule="evenodd" d="M756.302 304.434C755.761 304.335 755.219 304.235 754.676 304.136C754.662 304.198 764.057 309.024 765.192 309.824C769.04 312.54 772.246 316.08 775.464 319.493C782.279 326.721 787.789 335.189 794.725 342.272C797.007 344.602 800.467 348.78 804.31 347.843C808.13 346.912 807.329 339.158 806.215 336.505C804.467 332.346 800.829 328.974 797.659 325.881C794.2 322.506 790.781 319.105 786.87 316.248C782.652 313.168 778.086 310.245 773.197 308.365C767.72 306.258 762.057 305.446 756.302 304.434ZM739.525 306.08C738.499 302.789 737.826 306.922 736.061 305.636C734.126 304.227 740.067 301.829 741.189 301.47C747.817 299.352 755.881 300.265 762.621 301.389C766.021 301.957 769.477 302.32 772.841 303.089C776.121 303.84 779.241 305.487 782.228 307.009C788.204 310.055 793.775 314.096 798.654 318.687C803.549 323.291 808.448 328.425 811.471 334.512C813.968 339.542 812.272 347.531 806.859 349.906C801.328 352.332 795.284 349.093 791.378 345.252C786.283 340.241 781.221 334.78 776.824 329.148C774.564 326.254 771.834 323.831 769.476 321.019C766.966 318.027 764.443 315.439 761.203 313.231C758.063 311.092 754.925 308.89 751.364 307.505C747.464 305.988 743.646 306.067 739.525 306.08Z" fill="#6C5CE7"/>
<path opacity="0.3" fill-rule="evenodd" clip-rule="evenodd" d="M550.211 355.867C558.666 362.445 567.426 368.642 575.833 375.252C583.796 381.511 590.962 386.919 600.803 389.963C594.356 378.52 587.75 367.202 580.973 355.949C577.611 350.369 574.328 344.725 570.869 339.205C568.193 334.934 565.609 331.475 567.948 326.325C570.67 320.33 574.406 325.22 576.048 328.983C578.313 334.173 581.485 339.092 584.141 344.149C590.071 355.437 596.277 366.541 602.542 377.643C604.49 381.094 617.431 399.364 606.635 399.17C602.015 399.089 595.362 395.094 590.81 393.85C584.971 392.255 579.997 389.078 574.933 385.812C564.378 379.006 554.51 370.812 544.066 363.671C538.732 360.025 533.399 356.379 528.066 352.734C524.942 350.597 523.947 349.557 526.127 345.878C527.71 343.204 530.474 341.661 532.994 340.018C539.397 335.843 545.914 331.83 552.413 327.808C554.891 326.272 564.412 318.202 567.169 318.967C573.426 320.701 558.343 330.048 556.58 331.272C549.926 335.889 543.093 340.258 536.896 345.477C541.297 348.997 545.7 352.493 550.211 355.867Z" fill="#6C5CE7"/>
<path opacity="0.3" fill-rule="evenodd" clip-rule="evenodd" d="M763.664 277.697C770.876 277.336 778.112 278.278 785.304 277.68C776.505 267.817 762.97 272.732 753.474 278.452L763.664 277.697ZM764.09 281.977C760.567 282.051 757.046 282.261 753.539 281.93C749.858 281.582 747.968 283.314 745.265 285.572C743.319 283.668 747.827 279.269 749.156 278.054C751.893 275.553 755.534 273.687 758.824 272.026C765.834 268.488 773.343 266.043 781.06 268.833C783.92 269.867 787.808 271.131 789.48 273.888C791.316 276.914 788.748 279.242 786.102 280.509C779.647 283.601 771.027 281.286 764.09 281.977Z" fill="#6C5CE7"/>
<path opacity="0.3" fill-rule="evenodd" clip-rule="evenodd" d="M34.3099 71.4408C37.5689 74.3738 36.0029 77.3998 34.9359 81.0638C34.2939 83.2628 30.7679 90.4828 31.7409 92.5398C32.8659 94.9178 38.1479 95.5028 40.4069 96.2538C44.3409 97.5618 48.2929 98.8758 52.0159 100.72C53.6679 101.539 59.6269 103.421 60.7439 104.949C61.3839 105.825 61.6169 106.511 61.1359 107.64C60.2909 109.622 59.0859 108.573 57.0269 108.148C47.6179 106.204 38.2889 103.718 29.5629 99.6178C27.1299 105.265 25.0699 111.032 23.0119 116.826C22.4089 118.524 21.8329 122.382 19.5419 122.657C16.7479 122.991 16.7099 119.249 16.8959 117.23C17.1659 114.282 18.6939 111.139 19.6159 108.348C20.3769 106.044 23.0459 101.247 22.7169 98.8728C22.4919 97.2388 21.4959 97.3528 19.7209 96.7108C18.0439 96.1048 16.3659 95.5018 14.6899 94.8888C12.0029 93.9058 9.32693 92.9198 6.71193 91.7538C5.27693 91.1138 2.27394 90.3658 1.23494 89.0378C0.631941 88.2678 -0.0400973 85.4928 0.720903 84.7248C2.4999 82.9258 14.3319 87.7678 16.7649 88.4288C18.3789 88.8678 20.0009 89.2028 21.5669 89.7778C22.1599 89.9968 22.8619 90.8848 23.5029 90.9178C26.2249 91.0558 26.4409 88.9628 27.2849 86.7178C29.2459 81.5008 31.3749 76.1788 34.3099 71.4408Z" fill="#6C5CE7"/>
<path opacity="0.3" fill-rule="evenodd" clip-rule="evenodd" d="M798.987 129.954C801.82 130.362 804.793 129.031 807.514 128.203C810.985 127.147 814.378 125.859 817.805 124.672C824.263 122.436 830.389 119.647 836.425 116.395C848.335 109.978 859.073 100.105 866.375 88.7279C870.069 82.9712 874.494 76.2603 875.929 69.4741C876.428 67.1166 876.125 66.5459 874.005 65.513C873.048 65.0468 870.615 63.8697 869.578 63.9462C866.891 64.1457 864.112 68.0352 862.656 69.9692C858.357 75.6791 854.818 81.9132 850.697 87.7451C846.659 93.4611 841.481 98.8818 836.514 103.809C825.461 114.771 812.668 122.696 798.987 129.954ZM877.17 75.4594C869.264 92.8975 858.244 108.287 841.951 118.842C834.206 123.86 825.838 127.653 817.139 130.712C808.156 133.871 799.138 136.65 789.713 138.049C787.205 138.421 784.696 138.789 782.179 139.1C780.784 139.273 777.023 140.393 775.773 139.568C774.773 138.906 774.785 137.957 775.002 136.792C775.489 134.178 777.534 133.506 779.722 132.486C788.513 128.388 797.331 124.275 805.84 119.619C822.643 110.426 837.373 97.5222 848.518 81.931C851.951 77.1308 855.237 72.2122 858.779 67.4932C860.937 64.6183 864.408 59.3707 868.37 58.9513C870.495 58.7264 872.321 60.3131 874.418 60.4677C876.384 60.6125 877.923 60.0391 878.869 62.2398C880.53 66.1015 878.639 71.867 877.17 75.4594Z" fill="#EBC5B9"/>
<path opacity="0.3" fill-rule="evenodd" clip-rule="evenodd" d="M52.907 355.797C58.036 362.591 66.0847 372.741 74.8793 365.13C79.234 361.362 80.5969 356.288 82.8513 351.218C85.2216 345.891 88.1591 341.002 92.2031 336.773C108.573 319.657 131.848 312.085 153.649 304.638C132.764 299.982 110.644 302.221 90.676 310.048C80.9929 313.844 70.2558 320.869 62.7745 328.089C59.031 331.702 56.5881 336.088 54.4109 340.762C53.3168 343.109 51.9653 345.661 51.6449 348.271C51.3232 350.885 52.4267 353.276 52.907 355.797ZM168.502 301.715C164.853 311.647 149.047 313.167 140.387 316.444C130.034 320.361 119.504 324.753 110.003 330.469C100.05 336.456 94.2641 343.562 89.6309 354.072C85.4898 363.47 77.7801 373.229 66.9483 375.07C62.588 375.81 60.2506 373.638 56.7056 371.666C52.3555 369.244 49.0575 370.249 45.9359 365.512C40.3651 357.062 44.9402 347.458 48.9776 339.45C58.3883 320.782 79.0419 307.378 98.6051 301.335C109.862 297.859 121.824 294.592 133.672 294.474C139.482 294.416 145.204 295.229 150.909 296.258C157.079 297.372 163.608 297.574 168.502 301.715Z" fill="#6C5CE7"/>
<path opacity="0.3" fill-rule="evenodd" clip-rule="evenodd" d="M671.027 245.919C659.134 233.033 634.066 221.372 620.569 238.376C614.92 245.495 613.498 255.404 615.957 264.006C618.809 273.981 628.576 279.872 634.102 267.986C637.925 259.76 633.928 248.791 648.21 254.194C657.097 257.558 666.196 270.275 661.784 279.729C651.844 301.039 614.953 283.836 603.555 273.294C580.93 252.376 602.52 228.511 627.206 225.372C633.583 224.56 649.621 226.557 653.768 220.116C659.27 211.573 647.222 207.609 641.169 205.949C596.668 193.764 552.976 256.147 588.13 290.585C604.096 306.222 633.886 314.263 654.287 303.064C673.414 292.564 688.234 264.562 671.027 245.919Z" fill="#EBC5B9"/>
<g opacity="0.3">
<path fill-rule="evenodd" clip-rule="evenodd" d="M308.827 361.435C311.717 361.192 315.591 361.537 318.057 359.66C320.679 357.667 320.496 354.199 321.802 351.457C325.351 344.002 332.016 349.561 336.997 351.991C341.701 354.285 345.768 353.484 348.939 349.259C350.203 347.575 355.371 340.149 352.904 338.073C351.13 336.58 348.423 339.918 347.422 340.889C345.248 342.995 343.207 344.903 339.943 344.819C333.823 344.662 329.391 338.497 322.882 340.237C316.152 342.036 318.698 348.053 315.292 352.345C313.008 355.222 309.706 353.541 307.078 355.401C304.574 357.174 305.158 361.746 308.827 361.435Z" fill="#EBC5B9"/>
<path fill-rule="evenodd" clip-rule="evenodd" d="M347.988 314.232C345.565 314.776 346.111 319.713 345.236 321.435C343.784 324.292 339.99 326.494 336.823 325.768C330.641 324.352 328.672 316.012 321.279 317.033C314.671 317.945 315.484 326.828 311.497 330.985C309.178 333.403 306.406 335.568 309.349 339.012C311.382 341.394 313.956 341.053 315.911 338.867C319.272 335.112 317.283 327.097 322.2 324.653C327.288 322.125 331.295 329.291 335.008 331.499C340.669 334.862 348.152 332.835 349.901 326.292C350.429 324.318 352.602 313.193 347.988 314.232Z" fill="#EBC5B9"/>
</g>
</svg>
