<svg width="49" height="48" viewBox="0 0 49 48" fill="none" xmlns="http://www.w3.org/2000/svg">
<circle cx="24.75" cy="24" r="23.5" fill="#6C5CE7"/>
<g filter="url(#filter0_d)">
<path d="M24.9458 36.4109C31.7021 36.4109 35.6677 33.1797 35.6677 28.6755C35.6677 18.9818 21.9594 21.6745 21.9594 19.0797C21.9594 18.1495 23.1344 17.4641 24.8969 17.4641C27.7364 17.4641 30.4292 18.688 31.8489 20.0588L34.7375 14.7224C32.1917 12.862 28.8625 11.5891 24.8479 11.5891C18.3364 11.5891 14.7135 15.212 14.7135 19.3734C14.7135 28.9693 28.4708 25.9338 28.4708 28.8713C28.4708 29.8995 27.5406 30.5359 25.2885 30.5359C22.4979 30.5359 18.7281 28.9203 16.9656 27.3536L13.8323 32.739C16.3292 34.9911 20.6864 36.4109 24.9458 36.4109Z" fill="url(#paint0_linear)"/>
</g>
<defs>
<filter id="filter0_d" x="12.8323" y="11.5891" width="23.8354" height="26.8219" filterUnits="userSpaceOnUse" color-interpolation-filters="sRGB">
<feFlood flood-opacity="0" result="BackgroundImageFix"/>
<feColorMatrix in="SourceAlpha" type="matrix" values="0 0 0 0 0 0 0 0 0 0 0 0 0 0 0 0 0 0 127 0"/>
<feOffset dy="1"/>
<feGaussianBlur stdDeviation="0.5"/>
<feColorMatrix type="matrix" values="0 0 0 0 0 0 0 0 0 0 0 0 0 0 0 0 0 0 0.2 0"/>
<feBlend mode="normal" in2="BackgroundImageFix" result="effect1_dropShadow"/>
<feBlend mode="normal" in="SourceGraphic" in2="effect1_dropShadow" result="shape"/>
</filter>
<linearGradient id="paint0_linear" x1="24.75" y1="11.5891" x2="24.75" y2="36.4109" gradientUnits="userSpaceOnUse">
<stop stop-color="white"/>
<stop offset="1" stop-color="#E2DEFF"/>
</linearGradient>
</defs>
</svg>
