<svg width="45" height="40" viewBox="0 0 45 40" fill="none" xmlns="http://www.w3.org/2000/svg">
<path d="M21.5 8.5L27.875 6.8125H29.1875L35.3125 12.3125L37.875 15.875L33.0625 23.25L34.375 25.9375L33.0625 27.9375L31.3125 28.625L30.5 30.625L28.3125 31.625L27.875 32.9375L25.8125 34.125L24.375 36.4375H21.5L19.625 35.125L17.75 36.4375H15.75L14.5625 34.6875L12.5 32.9375L11.375 31.625L9.625 30.0625L8.8125 28.9375L7.25 27.9375L6.5 25.9375L7.6875 23.25L6.5 15.5L15.75 6.25L21.5 8.5Z" fill="#F7EFE3"/>
<rect x="33.25" y="1.97671" width="13.5121" height="5.99915" transform="rotate(45 33.25 1.97671)" stroke="#0F1726" stroke-width="2"/>
<rect x="38.5" y="10.7152" width="1.37499" height="1.37499" transform="rotate(45 38.5 10.7152)" fill="#0F1726"/>
<rect x="1.94305" y="11.5312" width="13.5121" height="5.99915" transform="rotate(-45 1.94305 11.5312)" stroke="#0F1726" stroke-width="2"/>
<rect x="5.24408" y="11.6875" width="1.37499" height="1.37499" transform="rotate(-45 5.24408 11.6875)" fill="#0F1726"/>
<path d="M28.75 6.3125L20.3125 9.4375C18.0833 11.6042 13.4125 16.15 12.5625 17C11.5 18.0625 11.9063 19.3438 12.5625 20C13.2188 20.6562 14.75 20.75 15.5 20C16.125 19.375 18.4375 17 19.375 16.0625C21 17.5 24.0938 18.7188 27.0625 15.75" stroke="#0F1726" stroke-width="2"/>
<path d="M38.5 15.4375L32.6875 24.5" stroke="#0F1726" stroke-width="2"/>
<rect x="9.54163" y="22.569" width="3.85727" height="5.61821" rx="1.92863" transform="rotate(45 9.54163 22.569)" stroke="#0F1726" stroke-width="2"/>
<rect x="12.3675" y="25.3949" width="3.85727" height="5.61821" rx="1.92863" transform="rotate(45 12.3675 25.3949)" stroke="#0F1726" stroke-width="2"/>
<rect x="15.1933" y="28.2207" width="3.85727" height="5.61821" rx="1.92863" transform="rotate(45 15.1933 28.2207)" stroke="#0F1726" stroke-width="2"/>
<rect x="18.0191" y="31.0465" width="3.85727" height="5.61821" rx="1.92863" transform="rotate(45 18.0191 31.0465)" stroke="#0F1726" stroke-width="2"/>
<path d="M19.9468 34.5718L21.8426 36.4676C22.6458 37.2708 23.9481 37.2708 24.7513 36.4676V36.4676C25.5545 35.6644 25.5545 34.3621 24.7513 33.5589L21.9712 30.7788" stroke="#0F1726" stroke-width="2"/>
<path d="M22.8556 31.6631L24.7513 33.5589C25.5545 34.3621 26.8568 34.3621 27.66 33.5589V33.5589C28.4633 32.7556 28.4633 31.4534 27.66 30.6501L24.8799 27.87" stroke="#0F1726" stroke-width="2"/>
<path d="M25.7643 28.7544L27.66 30.6501C28.4633 31.4534 29.7655 31.4534 30.5688 30.6501V30.6501C31.372 29.8469 31.372 28.5446 30.5688 27.7414L27.7887 24.9613" stroke="#0F1726" stroke-width="2"/>
<path d="M28.6731 25.8458L30.5689 27.7416C31.3721 28.5448 32.6744 28.5448 33.4776 27.7416V27.7416C34.2809 26.9384 34.2809 25.6361 33.4776 24.8329L25.8537 17.2088" stroke="#0F1726" stroke-width="2"/>
<path d="M15.6875 6.1875L22.1476 8.87499" stroke="#0F1726" stroke-width="2"/>
<path d="M6.21634 15.4375L7.75 24.4375" stroke="#0F1726" stroke-width="2"/>
</svg>
