<svg width="48" height="48" viewBox="0 0 48 48" fill="none" xmlns="http://www.w3.org/2000/svg">
<rect width="48" height="48" fill="white"/>
<mask id="path-1-inside-1" fill="white">
<path d="M43.125 24C43.125 21.1846 42.5034 18.404 41.3046 15.8566C40.1058 13.3092 38.3594 11.0578 36.19 9.26336C34.0207 7.46887 31.4819 6.17547 28.7549 5.47551C26.0279 4.77555 23.18 4.68628 20.4146 5.21409L21.1823 9.23647C23.3556 8.82167 25.5937 8.89183 27.7368 9.44191C29.8799 9.992 31.8751 11.0085 33.5799 12.4187C35.2848 13.829 36.6573 15.5982 37.5994 17.6002C38.5415 19.6022 39.03 21.7874 39.03 24H43.125Z"/>
</mask>
<path d="M43.125 24C43.125 21.1846 42.5034 18.404 41.3046 15.8566C40.1058 13.3092 38.3594 11.0578 36.19 9.26336C34.0207 7.46887 31.4819 6.17547 28.7549 5.47551C26.0279 4.77555 23.18 4.68628 20.4146 5.21409L21.1823 9.23647C23.3556 8.82167 25.5937 8.89183 27.7368 9.44191C29.8799 9.992 31.8751 11.0085 33.5799 12.4187C35.2848 13.829 36.6573 15.5982 37.5994 17.6002C38.5415 19.6022 39.03 21.7874 39.03 24H43.125Z" stroke="#003BDE" stroke-width="8" mask="url(#path-1-inside-1)"/>
<path d="M22.1723 10.1912L18.9027 7.73692L21.357 4.46734" stroke="#003BDE" stroke-width="4" stroke-linecap="round" stroke-linejoin="round"/>
<g opacity="0.5">
<mask id="path-3-inside-2" fill="white">
<path d="M14.2639 7.53871C11.84 8.97232 9.76267 10.9235 8.1802 13.2529C6.59773 15.5823 5.54921 18.2325 5.10954 21.014C4.66986 23.7956 4.84989 26.6399 5.63675 29.3438C6.42361 32.0478 7.79789 34.5446 9.66143 36.6559L12.7316 33.946C11.267 32.2868 10.187 30.3246 9.56863 28.1996C8.95025 26.0747 8.80877 23.8394 9.1543 21.6534C9.49983 19.4674 10.3238 17.3847 11.5675 15.5541C12.8111 13.7234 14.4437 12.19 16.3486 11.0633L14.2639 7.53871Z"/>
</mask>
<path d="M14.2639 7.53871C11.84 8.97232 9.76267 10.9235 8.1802 13.2529C6.59773 15.5823 5.54921 18.2325 5.10954 21.014C4.66986 23.7956 4.84989 26.6399 5.63675 29.3438C6.42361 32.0478 7.79789 34.5446 9.66143 36.6559L12.7316 33.946C11.267 32.2868 10.187 30.3246 9.56863 28.1996C8.95025 26.0747 8.80877 23.8394 9.1543 21.6534C9.49983 19.4674 10.3238 17.3847 11.5675 15.5541C12.8111 13.7234 14.4437 12.19 16.3486 11.0633L14.2639 7.53871Z" stroke="#003BDE" stroke-width="8" mask="url(#path-3-inside-2)"/>
<path d="M12.6828 32.7496L12.1548 36.8036L8.10082 36.2756" stroke="#003BDE" stroke-width="4" stroke-linecap="round" stroke-linejoin="round"/>
</g>
<g opacity="0.5">
<mask id="path-5-inside-3" fill="white">
<path d="M14.6483 40.6827C17.1065 42.0606 19.8388 42.8783 22.6497 43.0773C25.4607 43.2762 28.2809 42.8515 30.9086 41.8336C33.5363 40.8156 35.9066 39.2295 37.8499 37.1888C39.7933 35.1481 41.2616 32.7031 42.1499 30.0288L38.2637 28.7379C37.5656 30.8396 36.4117 32.7611 34.8844 34.3649C33.3572 35.9686 31.4944 37.2151 29.4294 38.0151C27.3643 38.8151 25.1479 39.1489 22.9388 38.9925C20.7297 38.8362 18.5825 38.1935 16.6507 37.1106L14.6483 40.6827Z"/>
</mask>
<path d="M14.6483 40.6827C17.1065 42.0606 19.8388 42.8783 22.6497 43.0773C25.4607 43.2762 28.2809 42.8515 30.9086 41.8336C33.5363 40.8156 35.9066 39.2295 37.8499 37.1888C39.7933 35.1481 41.2616 32.7031 42.1499 30.0288L38.2637 28.7379C37.5656 30.8396 36.4117 32.7611 34.8844 34.3649C33.3572 35.9686 31.4944 37.2151 29.4294 38.0151C27.3643 38.8151 25.1479 39.1489 22.9388 38.9925C20.7297 38.8362 18.5825 38.1935 16.6507 37.1106L14.6483 40.6827Z" stroke="#003BDE" stroke-width="8" mask="url(#path-5-inside-3)"/>
<path d="M37.1299 29.2266L40.8621 27.5579L42.5308 31.29" stroke="#003BDE" stroke-width="4" stroke-linecap="round" stroke-linejoin="round"/>
</g>
</svg>
