<svg width="1032" height="821" viewBox="0 0 1032 821" fill="none" xmlns="http://www.w3.org/2000/svg">
<path fill-rule="evenodd" clip-rule="evenodd" d="M512 821C238 729 200 593 222 511C224.365 502.184 227.239 492.721 230.236 482.852C255.117 400.923 288.498 291 110 291L150 279C151.914 279.124 153.922 279.25 156.016 279.382C210.064 282.771 321.161 289.737 350 365C355.196 378.559 360.865 391.469 367.029 403.762L365.5 404.5L337.5 411.5L311.5 417L303 430L298.5 471.5V499L311.5 522.5L333 543L337.5 535V515V481.5L346 440L354 436H385.216C427.334 502.531 487.595 548.431 570.377 580.963L591 611L633.5 668.5L641.5 678.5L667 708L689.5 716L719 699.5L777.5 635L778.145 632.015C852.066 643.072 936.31 650.78 1032 657L512 821ZM737.871 625.469C706.265 619.892 676.715 613.564 649.117 606.314L667 632.5L662.5 638.5L667 646.5H689.5L737.871 625.469Z" fill="url(#paint0_linear)"/>
<path fill-rule="evenodd" clip-rule="evenodd" d="M487.631 152.348C485.967 145.579 484.297 139.198 475.956 142.425C469.523 144.915 466.426 148.968 465.807 155.709C465.34 160.786 466.261 171.223 473.866 168.627C478.928 166.899 487.782 158.198 487.631 152.348ZM454.07 179.223C455.086 172.411 449.606 156.557 441.119 163.883C438.131 166.462 435.619 168.6 432.517 170.88C428.859 173.568 429.531 175.209 429.28 179.966C428.893 187.315 429.464 198.539 439.488 198.426C448.825 198.32 455 187.447 454.07 179.223ZM430.981 149.332C428.927 139.825 424.982 126.673 416.436 121.012C405.209 113.573 401.224 135.742 401.256 142.252C401.304 151.623 401.574 165.304 412.442 169.765C422.795 174.014 429.502 156.024 430.981 149.332ZM507.186 152.091C496.548 156.314 489.402 166.166 486.935 177.202C485.793 182.304 486.876 190.092 483.533 194.205C479.531 199.128 473.31 194.867 468.698 197.952C458.177 204.991 469.443 217.697 477.283 219.789C483.535 221.457 489.895 222.479 496.181 223.697C502.084 224.84 504.966 230.057 508.509 234.784C503.615 233.969 498.814 232.736 493.893 231.958C491.775 231.623 488.703 230.57 486.497 230.706C483.836 230.871 482.139 232.724 479.611 233.163C475.264 233.918 472.275 231.128 470.563 236.59C469.302 240.615 471.307 245.426 474.91 247.412C471.726 250.528 464.38 251.366 460.215 252.659C454.181 254.531 448.043 255.747 442.447 258.907C442.447 249.071 442.569 241.284 437.764 232.286C435.432 227.918 430.984 215.649 426.216 213.823C424.783 213.274 422.76 213.577 421.265 213.131C419.712 212.668 418.853 211.317 417.113 211.271C413.947 211.186 410.53 214.883 408.651 217.299C403.899 223.409 404.085 233.184 404.378 240.545C404.681 248.153 405.45 257.704 408.559 264.742C409.281 266.377 410.022 268.215 411.598 269.198C412.743 269.911 414.877 269.348 415.758 270.159C418.957 273.107 414.515 274.795 412.047 276.6C405.742 281.211 400.295 285.679 395.682 291.868C391.787 297.093 385.712 303.435 384.716 310.132C380.429 304.328 377.415 297.78 374.127 291.394C372.26 287.767 372.22 288.502 374.206 285.755C375.754 283.614 378.475 281.386 380.685 279.89C385.205 276.83 389.878 273.536 391.205 267.713C392.208 263.31 389.81 255.174 388.435 250.719C386.678 245.026 382.086 240.658 376.197 243.983C371.835 246.447 369.736 255.256 365.507 256.489C360.735 257.88 361.391 246.311 360.951 243.101C360.132 237.112 356.966 227.04 358.945 221.158C360.486 216.578 367.916 214.137 371.776 211.351C377.509 207.213 383.161 201.943 387.192 196.094C391.325 190.095 390.96 183.986 390.22 176.994C389.788 172.916 389.117 161.817 382.311 164.171C378.394 165.526 360.888 189.358 357.789 180.9C356.916 178.515 358.803 172.504 359.135 169.754C359.377 167.749 359.338 158.194 360.691 156.862C361.211 156.35 367.349 155.523 368.691 154.697C371.909 152.714 374.325 150.115 376.261 146.883C382.673 136.176 375.383 119.44 363.333 116.753C355.478 115.001 351.231 117.756 346.834 124.083C342.579 130.207 334.228 127.56 327.125 129.036C325.788 125.4 330.49 118.247 331.733 114.743C333.564 109.582 335.585 104.223 336.315 98.7781C337.737 88.1521 335.286 76.6901 331.914 66.6761C335.959 67.2961 341.708 67.0501 344.491 70.0751C347.281 73.1051 348.52 79.3261 350.876 82.9681C355.422 89.9941 360.647 97.6612 366.904 103.249C375.074 110.545 378.305 107.138 384.567 100.363C390.914 93.4962 387.588 83.8041 385.332 75.3251C390.468 74.5551 396.403 76.0001 401.451 76.8131C406.027 77.5491 414.61 77.7151 418.493 80.4791C421.398 82.5461 420.366 84.7992 420.649 88.8632C421.03 94.3592 421.894 99.9162 423.566 105.18C426.968 115.891 434.652 119.567 443.889 112.676C447.098 116.982 450.584 122.677 455.539 125.119C460.402 127.518 469.444 129.492 474.888 129.887C481.74 130.383 487.214 127.335 492.88 123.873C495.653 122.179 496.433 120.789 498.854 122.119C500.643 123.103 503.006 127.752 504.823 129.358C506.858 131.156 509.097 132.811 511.278 134.426C512.295 135.263 513.351 136.047 514.447 136.778C516.857 137.354 517.667 138.784 516.877 141.068C518.401 145.468 518.694 150.129 519.982 154.575C521.503 159.828 525.115 162.69 529.971 164.628C531.655 165.107 533.31 165.675 534.933 166.332C537.827 166.389 538.484 167.559 536.903 169.842C536.902 172.91 533.787 177.576 532.119 179.991C530.482 175.442 524.154 170.376 519.245 172.305C513.537 174.547 513.316 181.107 513.721 186.237C510.155 184.559 507.091 182.136 504.043 179.682C502.561 178.489 500.108 177.106 499.019 175.513C497.131 172.753 497.297 174.184 498.624 170.441C500.092 166.302 510.959 156.118 507.186 152.091Z" fill="#6C5CE7"/>
<path d="M489.882 260.534C490.314 260.512 490.744 260.489 491.175 260.466C490.874 260.482 490.574 260.498 490.275 260.513C489.786 260.539 489.3 260.565 488.817 260.591L489.882 260.534Z" fill="#0F1726"/>
<path d="M360.126 429.113L356.347 429.175C357.591 428.165 358.855 428.401 360.126 429.113Z" fill="#0F1726"/>
<path d="M439.488 198.426C448.808 198.078 455.023 187.65 454.07 179.223C455.078 172.464 449.579 156.59 441.119 163.883C440.328 164.565 439.658 165.377 438.988 166.188C438.267 167.06 437.548 167.932 436.681 168.636C436.065 169.137 435.145 169.505 434.23 169.872C433.218 170.277 432.214 170.679 431.639 171.254C429.446 173.452 429.402 175.381 429.339 178.169C429.326 178.73 429.312 179.326 429.28 179.966C428.923 187.08 429.502 198.797 439.488 198.426Z" fill="#0F1726"/>
<path d="M424.72 131.478C423.177 128.159 419.659 123.016 416.435 121.011C404.966 113.878 401.221 135.462 401.255 142.252C401.303 151.576 401.577 165.371 412.441 169.764C422.908 173.997 429.476 156.138 430.98 149.332C429.613 143 427.459 137.367 424.72 131.478Z" fill="#0F1726"/>
<path d="M474.881 167.913C479.791 165.294 487.791 158.541 487.631 152.348C485.788 144.854 483.781 138.843 474.947 142.924C468.998 145.672 466.402 149.248 465.807 155.709C465.274 161.49 466.888 172.177 474.881 167.913Z" fill="#0F1726"/>
<path d="M233.332 86.2608C232.544 86.2828 231.755 86.3048 230.957 86.3258C231.742 86.3028 232.537 86.2818 233.332 86.2608Z" fill="#0F1726"/>
<path d="M477.379 115.694C475.308 115.466 467.097 113.998 472.382 111.631C475.08 110.422 477.634 113.215 477.379 115.694Z" fill="#0F1726"/>
<path d="M498.867 93.7189C500.634 91.265 502.914 88.0999 502.065 86.1029C500.701 82.8991 498.49 85.145 496.376 87.291L496.281 87.3879C494.139 89.5624 492.736 92.5021 491.394 95.3151C491.066 96.0026 490.741 96.6825 490.411 97.3419C490.19 97.7826 489.974 98.3136 489.748 98.8686C489.272 100.04 488.752 101.318 488.052 102.078C487.385 102.801 486.68 103.134 485.977 103.465C485.427 103.724 484.88 103.982 484.354 104.426C480.918 107.325 479.883 113.279 486.134 113.295C490.407 114.454 493.453 106.138 495.558 100.391C496.253 98.4934 496.846 96.8757 497.346 95.9719C497.682 95.3651 498.242 94.5865 498.867 93.7189Z" fill="#0F1726"/>
<path fill-rule="evenodd" clip-rule="evenodd" d="M473.739 83.9831C473.684 83.2698 473.638 82.6804 471.849 82.4717C471.855 83.1111 471.792 83.9305 471.721 84.843C471.455 88.3025 471.086 93.0994 473.99 94.4977C475.635 95.2907 483.023 91.8177 484.251 90.5747C488.493 86.2813 484.526 86.6798 481.069 87.0271C479.928 87.1416 478.843 87.2506 478.126 87.1837C476.81 87.0603 476.054 87.0457 475.641 87.0692L475.564 87.0739L475.576 87.0517C475.663 86.8558 475.502 86.4291 474.461 85.5657C473.822 85.0359 473.778 84.4795 473.739 83.9831ZM475.561 87.0793L475.564 87.0739C474.827 87.1321 475.407 87.3219 475.561 87.0793Z" fill="#0F1726"/>
<path d="M439.315 77.2749L439.31 77.1699V77.1819L439.314 77.2669L439.315 77.2749Z" fill="#0F1726"/>
<path d="M439.308 77.1316L439.307 77.1289L439.308 77.1369L439.308 77.1316Z" fill="#0F1726"/>
<path fill-rule="evenodd" clip-rule="evenodd" d="M419.483 70.3338C411.473 60.8277 402.611 39.6797 423.5 20.5C445.5 0.299999 460 2.91667 464.5 6.75C468.667 2.75 481.75 -3.6 500.75 3C519.987 9.68216 557.592 49.494 549.139 67.0413C546.898 69.9161 543.721 72.3462 540.322 73.8502C538.69 74.3607 536.838 74.7484 534.75 75L534.818 75.3917C532.055 75.7 529.393 75.2422 527.206 73.7672C525.121 78.1745 523.349 82.7053 521.577 87.234C520.043 91.1548 518.509 95.0741 516.775 98.9102C515.942 100.752 513.667 103.598 511.311 106.543C507.875 110.839 504.27 115.347 504.732 117.258C505.196 119.182 508.546 120.649 511.168 121.798C512.163 122.234 513.054 122.624 513.643 122.976C516.465 124.666 519.224 126.609 521.951 128.53C522.969 129.247 523.982 129.962 524.993 130.658C527.184 132.168 529.313 133.744 531.438 135.317C531.926 135.678 532.413 136.039 532.901 136.398L534.47 137.549L534.471 137.55L534.676 137.602C536.321 138.061 537.563 139.054 538.529 140.414C540.683 141.877 542.896 143.261 545.22 144.501C545.375 144.584 545.526 144.664 545.672 144.742C548.88 146.449 549.815 146.947 551.279 150.59C551.852 152.014 551.954 152.736 552.02 153.2C552.135 154.007 552.139 154.036 554.307 155.616C558.65 158.781 564.478 160.776 570.095 162.699C573.063 163.715 575.972 164.711 578.572 165.848C595.248 173.143 611.583 176.97 629.918 173.798C642.427 171.635 654.313 166.554 666.059 161.533C669.771 159.947 673.469 158.366 677.168 156.885C692.421 150.78 707.616 144.1 722.075 136.346C735.75 129.011 749.286 121.252 761.904 112.066C764.574 110.122 767.302 108.258 770.03 106.394C774.523 103.323 779.015 100.254 783.244 96.8302C786.196 94.4406 789.059 91.9354 791.921 89.4314C795.532 86.2714 799.141 83.1133 802.924 80.1922C816.209 69.9322 830.22 60.1092 844.245 50.8122C848.241 48.1632 852.164 45.4031 856.07 42.6231C856.61 42.2387 857.276 41.6853 858.018 41.0683C860.505 39.0001 863.851 36.2167 866.247 36.6811C874.214 38.2226 869.092 46.9489 866.094 52.0565C865.439 53.1717 864.885 54.1144 864.592 54.7722C866.789 53.5985 868.8 52.1682 870.814 50.7357C873.197 49.0411 875.584 47.3436 878.288 46.0642C878.697 45.8705 879.222 45.598 879.826 45.2843C882.99 43.642 888.327 40.8718 890.591 42.3832C895.748 45.8249 886.786 55.7065 881.985 60.9995C880.893 62.204 880.016 63.1708 879.57 63.7702C879.955 63.5506 880.427 63.2685 880.97 62.9447C886.073 59.8984 897.376 53.1507 900.336 59.8432C903.268 66.4727 894.573 74.1535 889.155 78.9398C888.238 79.7495 887.416 80.4763 886.759 81.1012C879.602 87.9092 871.852 93.9443 864.107 99.9753C857.359 105.23 850.615 110.482 844.271 116.239C843.861 116.611 843.248 117.08 842.545 117.618C840.021 119.55 836.333 122.372 836.696 124.775C837.009 126.853 840.06 129.163 842.491 131.004C843.419 131.707 844.258 132.341 844.818 132.868C848.804 136.614 861.455 148.805 853.399 154.954C851.094 156.713 845.329 155.865 841.419 155.29C840.507 155.156 839.696 155.037 839.053 154.969C837.999 154.858 836.949 154.752 835.901 154.647C831.995 154.254 828.122 153.864 824.227 153.213C820.957 152.666 817.715 151.211 814.476 149.757C810.522 147.981 806.571 146.207 802.574 146.089C796.641 145.914 790.378 149.676 784.7 153.086C782.556 154.374 780.496 155.612 778.568 156.568C774.036 158.816 769.601 161.197 765.164 163.579C761.513 165.538 757.861 167.498 754.151 169.387C748.519 172.254 742.979 175.245 737.441 178.234C727.548 183.575 717.664 188.911 707.281 193.527C699.122 197.155 690.691 200.194 682.259 203.233C672.341 206.808 662.423 210.384 652.944 214.917C635.097 223.453 617.892 226.165 598.344 225.562C579.264 224.974 558.867 212.334 543.765 201.509C542.893 200.878 542.02 200.247 541.148 199.616C539.529 197.145 538.117 197.081 536.911 199.422C536.403 199.505 535.957 199.587 535.542 199.664C533.957 199.956 532.839 200.162 530.523 199.999C526.276 199.702 523.92 198.819 520.367 197.487C519.927 197.322 519.47 197.15 518.988 196.972C509.066 193.303 501.569 190.441 494.555 181.876C490.704 191.889 498.207 202.364 504.392 211.001C505.593 212.678 506.745 214.286 507.754 215.807C508.87 217.491 510.037 219.15 511.205 220.81C513.613 224.233 516.025 227.662 518.01 231.333C518.741 232.685 519.329 234.266 519.924 235.865C521.277 239.503 522.665 243.234 525.847 244.585C526.939 245.049 527.865 245.021 528.701 244.996C529.958 244.958 531.01 244.926 532.118 246.582C532.995 247.894 532.534 249.347 532.127 250.628C531.976 251.105 531.832 251.559 531.768 251.972C531.482 253.807 530.912 253.544 530.534 253.371C530.116 253.178 529.933 253.094 530.637 256.092C530.914 257.271 532.096 259.151 533.116 260.772C533.653 261.627 534.146 262.41 534.437 262.981C539.133 272.195 543.12 281.758 547.104 291.312C547.995 293.448 548.885 295.583 549.783 297.713L550.185 298.667C554.938 309.945 559.65 321.124 564.31 332.428C565.285 334.795 566.446 337.074 567.607 339.354C568.906 341.906 570.207 344.459 571.248 347.137C572.531 350.438 573.55 353.817 574.57 357.198C575.46 360.148 576.35 363.1 577.417 366.002C580.97 375.672 581.652 388.462 578.719 398.459C575.848 408.248 563.378 418.312 553.439 417.685C556.068 422.95 558.9 427.911 561.739 432.885C563.867 436.615 566 440.351 568.055 444.228C570.107 448.1 571.877 452.092 573.638 456.066C575.734 460.792 577.817 465.491 580.35 469.93C582.859 474.328 585.219 478.867 587.572 483.393C590.195 488.438 592.81 493.467 595.616 498.27C598.049 502.435 599.992 506.914 601.932 511.386C603.576 515.177 605.219 518.964 607.157 522.551C610.297 528.366 613.401 534.256 616.516 540.167C622.952 552.381 629.436 564.685 636.392 576.605C639.197 581.411 641.872 586.283 644.548 591.155C647.601 596.713 650.655 602.273 653.902 607.739C656.649 612.363 659.447 616.954 662.246 621.546C662.767 622.4 663.288 623.254 663.808 624.108C664.34 624.982 664.892 626.148 665.489 627.407C667.039 630.678 668.89 634.586 671.486 635.684C671.231 635.95 670.837 636.302 670.387 636.703C669.011 637.931 667.106 639.631 667.017 640.818C666.709 644.892 670.703 643.912 673.108 643.322L673.314 643.272C679.344 641.804 685.153 640.265 690.982 638.172C695.953 636.388 700.818 634.273 705.683 632.159C711.74 629.526 717.796 626.893 724.057 624.899C728.993 623.326 733.809 621.26 738.64 619.188C745.279 616.34 751.945 613.481 758.987 611.874C760.168 611.605 761.926 611.039 763.977 610.379C771.535 607.948 783.067 604.238 784.33 609.359C784.509 610.084 784.307 611.407 784.114 612.678C783.979 613.566 783.847 614.429 783.853 615.043C783.861 616.065 783.97 617.044 784.078 618.019C784.25 619.565 784.42 621.102 784.19 622.785C783.468 628.041 780.582 633.292 777.77 637.679C771.036 648.181 763.487 658.478 754.611 667.259C749.894 671.926 745.317 677.086 740.689 682.305C730.383 693.926 719.816 705.84 706.858 713.257C705.512 714.028 704.191 715.014 702.854 716.012C700.491 717.776 698.079 719.577 695.388 720.293C692.242 721.13 689.415 720.697 686.628 720.27C685.27 720.061 683.922 719.855 682.551 719.797C681.643 719.759 681.074 719.936 680.547 720.099C679.739 720.349 679.031 720.569 677.353 719.937C675.598 719.276 673.457 717.479 671.716 716.018C671.198 715.582 670.714 715.177 670.288 714.84C665.704 711.223 661.816 706.664 658.028 702.223L657.76 701.908C656.61 700.56 655.436 698.8 654.21 696.959C651.785 693.321 649.151 689.369 646.073 687.666C645.02 687.084 644.42 687.122 643.922 687.153C643.202 687.199 642.692 687.231 641.326 685.359C640.76 684.583 640.422 683.799 640.084 683.014C639.659 682.029 639.234 681.043 638.357 680.066C637.767 679.41 637.253 678.951 636.787 678.534C635.924 677.763 635.222 677.136 634.5 675.669C634.16 674.98 633.963 674.299 633.765 673.615C633.509 672.732 633.252 671.844 632.686 670.93C630.904 668.057 628.637 665.402 626.365 662.741C624.371 660.405 622.373 658.066 620.697 655.571C617.73 651.156 614.295 647.071 610.863 642.99C608.097 639.7 605.332 636.412 602.815 632.954C596.066 623.686 588.561 614.454 581.239 605.647C571.157 593.518 561.655 580.496 552.177 567.507C548.396 562.325 544.618 557.149 540.81 552.036C526.362 532.644 512.869 511.943 500.821 490.949C497.116 484.492 492.965 478.155 488.82 471.824C485.74 467.122 482.663 462.424 479.773 457.683C478.075 454.899 476.412 452.08 474.747 449.258C469.91 441.061 465.055 432.834 459.288 425.328C458.583 425.885 458.772 427.134 458.976 428.483C459.205 429.994 459.453 431.632 458.482 432.561C457.081 433.905 451.917 434.307 448.272 434.591C446.92 434.696 445.778 434.785 445.114 434.9C444.678 434.976 444.24 435.051 443.801 435.127C435.804 436.513 427.363 437.976 419.287 438.283C410.385 438.621 401.547 439.705 392.689 440.791C384.091 441.846 375.475 442.903 366.766 443.281C362.814 443.453 359.68 442.828 355.869 442.034C355.46 441.949 355.075 441.866 354.711 441.788C349.999 440.776 348.996 440.56 347.909 445.778C347.658 446.982 347.401 448.197 347.142 449.421C345.561 456.893 343.911 464.692 343.234 472.136C342.42 481.087 342.274 490.047 342.149 499.036C342.131 500.301 342.109 501.566 342.087 502.832C342.033 505.852 341.98 508.873 341.994 511.891C342.007 514.711 342.362 517.499 342.716 520.284C343.144 523.65 343.572 527.011 343.395 530.414C342.983 538.338 341.592 545.229 333.43 547.462C329.336 548.581 328.84 548.185 326.455 546.282C326.181 546.063 325.881 545.823 325.548 545.564C324.361 544.642 323.042 543.751 321.706 542.848C319.222 541.17 316.679 539.452 314.821 537.42C304.202 525.804 295.79 509.532 292.585 494.002C289.891 480.944 291.886 467.13 293.823 453.723C294.497 449.06 295.163 444.446 295.623 439.931C295.724 438.935 295.817 437.858 295.915 436.724C296.539 429.485 297.361 419.965 301.836 414.914C307.102 408.97 317.591 408.875 324.998 408.808C325.369 408.804 325.733 408.801 326.088 408.797C327.785 408.778 329.096 408.605 330.229 408.305C329.972 408.282 329.716 408.268 329.462 408.275L330.908 408.103C332.36 407.625 333.564 406.921 335.048 406.054C335.639 405.709 336.274 405.337 336.987 404.944C339.173 403.738 341.97 402.902 344.685 402.091C346.332 401.599 347.95 401.116 349.383 400.564C355.206 398.322 361.203 396.707 367.202 395.091C371.834 393.844 376.467 392.596 381.022 391.059C387.483 388.88 393.91 387.387 400.414 385.877C402.42 385.411 404.434 384.943 406.458 384.453C410.28 383.527 414.202 383.057 418.106 382.59C420.619 382.289 423.124 381.989 425.589 381.569L425.569 381.566C424.857 381.484 424.145 381.401 423.448 381.496C424.566 380.767 425.758 380.882 426.949 380.998C427.346 381.037 427.744 381.075 428.138 381.082C429.668 380.758 431.178 380.368 432.66 379.885C429.699 374.504 426.815 369.091 423.933 363.681C417.207 351.055 410.49 338.449 402.831 326.306C400.441 330.673 396.386 330.752 391.64 329.26C390.257 328.825 389.294 327.904 388.338 326.99C387.458 326.149 386.584 325.313 385.393 324.865C384.711 324.609 384.15 324.807 383.598 325.003C382.894 325.252 382.203 325.496 381.294 324.79C380.416 324.11 379.853 321.831 379.335 319.735C379.296 319.574 379.256 319.414 379.217 319.256C370.099 310.051 365.782 299.612 361.564 287.457C362.861 289.867 364.111 292.306 365.36 294.746C367.098 298.137 368.835 301.529 370.7 304.842C371.428 306.136 372.356 307.446 373.348 308.772L373.061 308.347C371.742 306.391 370.458 304.403 369.331 302.283C359.376 283.562 354.066 265.197 350.819 244.308C347.915 225.619 347.321 205.888 347.957 186.996L347.955 187.028L347.958 186.963L347.959 186.947C348.003 185.629 348.066 184.322 348.145 183.023C348.642 174.958 349.821 167.214 351.696 159.237C351.896 158.384 352.157 157.42 352.431 156.406C353.157 153.718 353.978 150.681 354.026 148.431C354.066 146.55 353.524 137.35 352.912 136.837C350.878 135.13 343.797 136.031 340.191 136.489C339.598 136.565 339.099 136.628 338.732 136.666C336.337 136.915 333.949 137.228 331.561 137.541C329.229 137.847 326.897 138.154 324.558 138.399C323.74 138.478 322.92 138.557 322.102 138.635L321.703 138.673C319.875 138.205 318.541 138.723 317.702 140.227C316.525 140.434 316.607 141.005 316.655 141.335C316.709 141.704 316.719 141.774 314.89 140.709C310.984 138.436 310.96 130.164 310.949 126.055C310.949 125.926 310.948 125.801 310.948 125.68C310.946 125.269 311.029 124.492 311.128 123.559C311.389 121.098 311.766 117.548 311.018 116.747C310.438 116.127 307.383 116.14 305.241 116.149C304.446 116.153 303.777 116.155 303.408 116.125C301.719 115.988 300.027 115.828 298.333 115.669C294.832 115.339 291.323 115.008 287.823 114.868C280.022 114.555 272.133 114.628 264.291 114.701C261.825 114.724 259.364 114.746 256.912 114.757C238.692 114.835 221.435 123.131 206.217 132.497C202.838 134.576 199.292 136.352 195.748 138.126C191.921 140.042 188.097 141.957 184.494 144.249C180.721 146.65 177.202 149.354 173.676 152.063C170.822 154.256 167.964 156.452 164.963 158.494C161.864 160.602 158.717 162.597 155.577 164.587C149.213 168.62 142.88 172.634 137.056 177.524C135.984 178.423 134.823 179.323 133.636 180.241C130.21 182.894 126.576 185.707 124.31 189.144C122.172 192.385 122.529 195.922 122.898 199.575C123.058 201.16 123.22 202.767 123.181 204.38C123.143 205.948 123.142 207.542 123.141 209.146C123.139 213.447 123.137 217.817 122.416 221.94C122.367 222.218 122.319 222.532 122.268 222.869C121.957 224.913 121.513 227.825 119.961 228.927C118.068 230.271 117.802 230.018 117.056 229.304C116.716 228.978 116.276 228.557 115.536 228.148C106.487 223.144 104.025 214.279 101.534 205.31C101.211 204.146 100.887 202.981 100.549 201.822C91.2838 214.261 83.7222 227.757 76.1473 241.276C69.9085 252.411 63.6607 263.562 56.4448 274.152C56.2221 274.479 55.9843 274.839 55.7321 275.221C53.2143 279.036 49.2662 285.017 44.5968 281.667C41.5832 279.505 41.013 275.346 41.317 271.277L41.3406 270.977L41.3422 271.221L41.3436 271.468L41.3426 270.956L41.3699 270.657C41.6279 267.966 42.2358 265.362 42.7348 263.454C42.9799 262.518 43.2212 261.579 43.4626 260.639C45.1333 254.137 46.8149 247.592 49.8668 241.591C50.776 239.804 51.7773 238.066 52.7786 236.328C53.7058 234.719 54.6329 233.109 55.4868 231.461C55.7473 230.959 56.1647 230.315 56.6247 229.605C57.7699 227.838 59.1793 225.663 59.0908 224.26C58.4639 225.056 57.838 225.851 57.2116 226.646L56.5488 227.488C54.0902 228.674 51.9916 231.497 49.9716 234.213C48.7151 235.903 47.4891 237.552 46.2258 238.74C43.425 241.375 40.2687 243.998 37.2263 246.526C37.0132 246.703 36.8006 246.88 36.5888 247.056C30.6518 251.99 25.4948 257.35 20.4628 263.359C17.4088 267.006 13.5388 270.474 10.8178 263.791C8.9825 259.284 11.3063 255.184 13.5168 251.284C13.8115 250.764 14.1042 250.248 14.3848 249.734C17.5028 244.029 20.6378 238.864 24.7788 233.857C25.5312 232.948 26.3489 232.026 27.1827 231.085C30.2365 227.641 33.5077 223.952 34.5878 219.755C32.1834 221.423 29.8643 223.186 27.5487 224.947C23.1315 228.305 18.7271 231.654 13.7678 234.311C7.75281 237.533 -1.96219 237.357 1.74481 227.695C4.43681 220.682 12.7328 212.16 18.2128 207.052C22.7597 202.813 27.8446 198.811 32.8227 194.893C34.0797 193.904 35.3298 192.92 36.5628 191.939C46.0503 184.39 56.2661 177.74 66.4694 171.099C71.5579 167.786 76.6434 164.476 81.6338 161.057C89.2028 155.872 96.8661 150.848 104.504 145.84C110.685 141.787 116.85 137.746 122.935 133.638C127.849 130.321 132.746 126.941 137.652 123.554C163.246 105.889 189.084 88.0554 218.786 78.1242C235.224 72.6282 252.513 68.3452 269.558 65.3932C271.686 65.0247 273.849 64.618 276.032 64.2075C282.873 62.9216 289.908 61.5991 296.654 61.3012C298.244 61.2309 299.807 61.3401 301.366 61.449C303.022 61.5648 304.673 61.6801 306.345 61.5792C307.673 61.4992 309.125 61.5886 310.599 61.6794C312.869 61.8192 315.194 61.9623 317.206 61.4962C318.71 61.1481 320.138 60.2575 321.554 59.3746C323.425 58.2078 325.274 57.0544 327.251 57.1842C327.832 57.2227 328.39 57.5506 328.95 57.8796C329.41 58.1499 329.872 58.4208 330.347 58.5325L330.613 58.5772C331.045 58.5309 331.475 58.3938 331.902 58.2578C332.896 57.9406 333.873 57.6291 334.824 58.4878C336.248 58.529 337.67 58.5639 339.092 58.5987C342.482 58.6817 345.866 58.7646 349.243 58.9339C349.172 58.9627 349.102 58.9929 349.031 59.0247L349.123 58.9849L349.243 58.9339C349.243 58.9339 349.243 58.9339 349.243 58.9339C350.899 58.26 352.553 58.4036 354.205 59.0357C353.333 59.0336 352.461 59.0319 351.589 59.0301L350.968 59.0288C354.695 59.2509 358.411 59.5971 362.113 60.1842C365.67 60.7484 369.358 61.2532 373.112 61.767C386.297 63.5718 400.288 65.4868 412.211 70.4702C412.142 70.3939 412.073 70.3139 412.006 70.2318C413.371 69.9418 414.406 70.4758 415.232 71.5298C415.087 71.5725 414.946 71.6036 414.809 71.6239C416.549 72.4391 418.237 73.3302 419.865 74.3052C420.417 73.1192 420.615 72.2777 420.543 71.6639L420.75 71.75C420.672 71.6685 420.595 71.5858 420.517 71.5019C420.398 70.9413 420.028 70.5883 419.483 70.3338ZM753.078 637.19C757.437 633.96 761.783 630.586 765.989 627.158C766.734 626.551 767.597 625.603 768.542 624.566C771.419 621.408 775.054 617.417 778.44 619.664C772.533 631.409 766.292 640.751 757.468 650.553C749.619 659.271 741.677 667.477 733.363 675.88C732.329 676.925 731.295 677.979 730.259 679.035C722.789 686.649 715.157 694.428 706.243 700.265C705.59 700.693 704.901 701.155 704.185 701.635C700.116 704.365 695.157 707.692 690.859 708.681C685.597 709.89 680.78 706.909 676.304 704.139C675.482 703.63 674.671 703.128 673.871 702.661C676.225 700.532 678.544 698.359 680.865 696.186C686.345 691.052 691.829 685.916 697.771 681.354C700.373 679.356 702.996 677.385 705.62 675.414C711.97 670.642 718.321 665.87 724.37 660.718C725.496 659.759 726.619 658.799 727.742 657.84C736.04 650.752 744.294 643.701 753.078 637.19ZM681.134 653.248C684.29 652.539 687.451 651.83 690.553 650.824C692.843 650.081 701.248 646.401 711.495 641.914C732.107 632.888 760.174 620.598 760.92 622.388C745.144 632.154 731.089 643.089 716.673 654.305C714.138 656.277 711.592 658.257 709.024 660.242C707.567 661.367 706.107 662.492 704.647 663.618C698.307 668.503 691.958 673.395 685.854 678.327C685.129 678.912 684.38 679.511 683.614 680.123C676.727 685.622 668.507 692.187 664.858 699.86C662.098 696.996 659.386 694.085 656.749 691.107C656.398 690.711 655.767 690.095 655.014 689.359C652.709 687.106 649.259 683.735 649.209 682.157C649.176 681.076 650.995 678.979 652.53 677.211C653.296 676.328 653.991 675.527 654.35 674.975C655.106 673.811 655.782 672.603 656.456 671.401C657.478 669.576 658.494 667.761 659.777 666.121C663.018 661.977 667.423 656.988 672.566 655.406C675.385 654.539 678.257 653.894 681.134 653.248ZM657.898 650.466C659.285 648.874 660.632 647.327 661.845 645.821C664.274 648.674 663.979 648.944 662.001 650.754C661.619 651.104 661.174 651.511 660.673 652.006C658.986 653.672 657.423 655.307 655.921 657.141C654.463 658.922 653.059 660.758 651.654 662.594C649.732 665.107 647.808 667.621 645.747 669.998C647.193 662.759 652.811 656.308 657.898 650.466ZM482.092 261.847C493.242 259.397 504.682 257.404 516 256.557C521.245 256.164 521.931 257.693 523.791 261.834C524.003 262.307 524.231 262.813 524.482 263.354C526.413 267.514 528.23 271.725 529.966 275.97C531.993 280.923 533.782 285.947 535.573 290.975C536.482 293.527 537.392 296.08 538.333 298.625C542.706 310.456 547.883 322.171 553.005 333.762C553.941 335.88 554.876 337.993 555.803 340.103C557.302 343.515 558.909 346.939 560.525 350.385C565.072 360.076 569.699 369.938 572.247 380.168C573.437 384.942 574.489 392.561 571.895 397.025C569.274 401.535 563.322 406.376 558.955 409.161L558.844 409.232C557.698 409.966 552.474 413.309 551.39 412.994C549.693 412.501 547.879 408.131 546.916 405.811C546.763 405.442 546.631 405.125 546.525 404.883C544.768 400.885 542.852 397.007 540.92 393.095C540.389 392.022 539.858 390.946 539.328 389.864C536.016 383.102 533.177 376.105 530.34 369.112C528.157 363.733 525.976 358.357 523.582 353.093C522.847 351.477 522.08 349.869 521.314 348.263C516.206 337.546 511.144 326.928 515.83 314.894C516.022 314.402 516.42 313.58 516.919 312.55C519.464 307.298 524.632 296.636 518.382 296.698C515.067 296.731 511.934 302.141 509.783 305.857C509.246 306.784 508.77 307.606 508.368 308.212L508.08 308.647C504.733 313.69 500.559 319.982 500.209 326.149C499.871 332.092 502.864 338.016 505.543 343.319C505.898 344.021 506.247 344.712 506.582 345.39C509.858 352.023 512.064 359.133 514.272 366.248C516.199 372.459 518.127 378.673 520.769 384.574C521.268 385.689 521.766 386.804 522.265 387.92C527.085 398.711 531.909 409.508 537.537 419.831C545.538 434.505 553.417 449.196 561.296 463.887C565.662 472.027 570.027 480.167 574.414 488.304C577.43 493.899 580.41 499.483 583.384 505.056C592.725 522.558 602.012 539.96 612.213 557.32C627.824 583.887 644.794 609.392 662.527 634.561C649.505 641.429 640.081 653.087 635.247 666.663C628.398 656.945 621.713 647.161 615.017 637.36C612.753 634.046 610.488 630.731 608.215 627.415C603.89 621.109 599.339 614.954 594.789 608.801C589.337 601.426 583.885 594.054 578.826 586.423C572.356 576.665 565.589 567.044 558.807 557.401C549.274 543.846 539.713 530.251 530.908 516.18C523.721 504.694 516.7 493.285 509.676 481.871C502.867 470.805 496.054 459.734 489.085 448.584C484.195 440.762 479.103 432.991 474.002 425.206C464.308 410.41 454.578 395.561 446.129 380.2C438.678 366.654 430.727 353.181 422.436 340.136C420.241 336.684 417.832 333.389 415.424 330.095C413.646 327.663 411.868 325.231 410.176 322.735C409.249 321.368 408.33 319.828 407.382 318.239C404.716 313.772 401.821 308.92 397.875 306.44C398.01 306.134 398.169 305.852 398.348 305.593C398.221 306.218 398.625 306.912 399.904 307.715C399.593 306.282 400.71 304.806 401.648 303.566C401.941 303.18 402.216 302.817 402.425 302.485L403.058 301.828C421.936 282.422 447.919 269.955 474.064 263.694C476.718 263.059 479.394 262.44 482.086 261.849C482.724 261.85 483.367 261.851 484.009 261.851C483.371 261.849 482.734 261.848 482.092 261.847ZM307.466 431.529C308.577 425.619 310.021 424.226 315.469 421.592C316.086 421.294 316.914 420.849 317.877 420.332C322.057 418.089 328.789 414.475 331.909 415.479C334.432 416.291 334.425 417.019 334.406 419.093C334.401 419.66 334.395 420.326 334.439 421.122C334.473 421.736 334.499 422.356 334.525 422.98C334.608 424.961 334.692 426.976 335.032 428.903C335.45 431.27 336.831 433.793 338.059 436.034C339.123 437.977 340.071 439.709 340.175 440.944C340.315 442.62 339.252 445.201 338.285 447.55C337.731 448.895 337.209 450.164 336.962 451.142C336.218 454.086 335.618 457.069 335.121 460.065C333.832 467.843 333.396 475.68 332.96 483.519C332.929 484.079 332.897 484.638 332.866 485.198L332.866 485.205C332.672 488.642 332.467 492.079 332.179 495.51C332.085 503.119 332.682 510.267 333.832 517.758C333.96 518.592 334.129 519.5 334.306 520.454C335.14 524.934 336.162 530.429 334.041 534.06C332.321 537.003 331.684 536.427 329.732 534.662C329.308 534.279 328.822 533.839 328.249 533.367L327.889 533.071C325.472 531.079 323.048 529.082 320.944 526.749C317.347 522.761 314.93 518.134 312.559 513.372C307.171 502.554 302.627 490.98 303.396 478.58C303.824 471.667 304.587 464.696 305.352 457.708C305.549 455.908 305.746 454.107 305.938 452.305L306.182 449.975L306.177 450.047L306.184 449.958L306.188 449.917L306.189 449.906C306.447 447.392 306.515 444.897 306.583 442.408C306.683 438.783 306.782 435.17 307.466 431.529ZM431.015 390.055C432.354 389.377 433.814 388.637 434.748 388.492C436.292 388.251 436.694 387.947 436.971 388.035C437.256 388.126 437.41 388.628 438.532 390.034C440.235 392.167 441.587 394.766 442.928 397.344C443.884 399.181 444.833 401.007 445.901 402.646C446.951 404.259 448.171 405.973 449.44 407.756C453.207 413.05 457.402 418.943 458.827 424.54C451.703 423.147 444.608 423.648 437.457 424.153C433.642 424.422 429.811 424.692 425.952 424.677C418.986 424.65 412.138 425.305 405.274 425.961C401.038 426.366 396.796 426.772 392.517 427.018C388.042 427.275 383.57 427.612 379.094 427.948C372.994 428.407 366.886 428.866 360.756 429.127C359.401 429.185 358.074 429.197 356.776 429.209C350.829 429.263 345.476 429.312 340.789 433.705C340.789 432.814 340.714 431.677 340.631 430.421C340.336 425.93 339.939 419.914 342.505 418.167C344.579 416.756 348.682 415.846 352.139 415.079C353.566 414.763 354.883 414.471 355.902 414.178C358.837 413.334 361.87 412.161 364.951 410.97C371.081 408.6 377.396 406.158 383.489 406.098C392.104 401.429 402.099 398.738 412.016 396.067C417.703 394.535 423.365 393.01 428.726 391.123C429.316 390.916 430.14 390.498 431.015 390.055ZM336.315 98.7782C337.736 88.1622 335.283 76.6832 331.914 66.6762C332.887 66.8254 333.897 66.9255 334.912 67.0261C338.8 67.4115 342.756 67.8036 344.974 70.9902C346.224 72.7861 347.114 74.9293 348.011 77.0888C348.857 79.1269 349.709 81.1794 350.876 82.9682C355.459 89.9932 360.63 97.6462 366.904 103.249C375.081 110.55 378.254 107.143 384.507 100.426L384.566 100.363C390.44 94.0552 388.044 85.2766 385.871 77.3161C385.688 76.646 385.507 75.9817 385.332 75.3252C389.504 74.6999 394.215 75.5398 398.541 76.311C399.535 76.4882 400.509 76.6618 401.451 76.8132C402.572 76.9932 403.929 77.1387 405.396 77.2961C409.943 77.7837 415.549 78.385 418.493 80.4792C420.777 82.1038 420.738 84.4725 420.692 87.2235C420.675 88.2282 420.657 89.284 420.752 90.3732C421.185 95.3542 422.041 100.41 423.566 105.18C426.983 115.872 434.651 119.567 443.889 112.676C444.401 113.363 444.922 114.089 445.456 114.833C448.451 119.004 451.869 123.765 456.519 125.621C461.536 127.623 469.508 129.464 474.888 129.887C481.779 130.428 487.198 127.345 492.88 123.873C494.521 122.89 496.155 121.898 497.784 120.896C498.49 121.547 499.05 122.304 499.462 123.165C500.467 123.843 501.431 125.15 502.397 126.459C503.196 127.543 503.997 128.628 504.823 129.358C507.139 131.404 509.703 133.326 512.192 135.156L514.447 136.778C516.857 137.354 517.667 138.784 516.877 141.068C517.715 143.487 518.178 145.988 518.642 148.49C519.021 150.533 519.399 152.576 519.982 154.575C521.717 160.529 525.81 162.896 531.195 165.011C532.464 165.384 533.71 165.824 534.933 166.332C537.827 166.389 538.483 167.559 536.903 169.842C536.902 172.911 533.787 177.576 532.119 179.991C530.485 175.453 524.171 170.369 519.245 172.305C513.511 174.557 513.315 181.099 513.721 186.237C510.203 184.581 507.155 182.207 504.162 179.769L503.042 178.853C502.629 178.516 502.051 178.129 501.428 177.713C500.03 176.779 498.414 175.698 497.977 174.707C497.336 173.258 497.481 172.965 497.93 172.053C498.12 171.669 498.363 171.176 498.624 170.441C499.109 169.077 500.606 167.077 502.265 164.861C505.672 160.309 509.764 154.843 507.186 152.091C496.006 156.529 489.136 166.923 486.717 178.425C486.393 179.966 486.279 181.765 486.162 183.625C485.898 187.791 485.615 192.263 482.911 194.825C480.703 196.916 478.038 196.831 475.369 196.745C473.048 196.671 470.725 196.597 468.698 197.953C457.166 205.667 470.742 218.158 478.617 220.125C481.332 220.804 484.23 221.239 487.125 221.674C490.742 222.217 494.354 222.759 497.601 223.774C501.587 225.02 504.352 228.938 506.885 232.527C507.434 233.305 507.972 234.068 508.509 234.784C506.005 234.367 503.524 233.869 501.04 233.369C498.154 232.789 495.265 232.208 492.335 231.755C491.668 231.652 490.984 231.499 490.294 231.345C488.695 230.988 487.061 230.623 485.507 230.845C484.397 231.005 483.446 231.508 482.493 232.013C481.581 232.496 480.667 232.98 479.611 233.163C478.215 233.406 476.951 233.347 475.831 233.295C473.085 233.167 471.206 233.079 470.379 237.575C469.669 241.437 471.493 245.529 474.91 247.412C472.583 249.689 468.033 250.75 464.127 251.661C462.688 251.996 461.336 252.311 460.215 252.659C458.729 253.12 457.236 253.542 455.747 253.962C451.19 255.248 446.664 256.526 442.447 258.907C442.447 248.494 442.343 240.499 437.115 231.087C436.39 229.782 435.669 228.27 434.914 226.689C432.451 221.527 429.638 215.63 425.213 213.793C417.807 210.72 412.858 210.995 407.917 218.207C403.858 224.131 404.107 233.714 404.378 240.545C404.683 248.193 405.238 259.126 409.114 265.914C410.441 268.238 411.806 268.615 413.17 268.99C414.184 269.269 415.196 269.548 416.191 270.625C418.321 272.929 415.162 274.82 412.625 276.34C411.959 276.739 411.335 277.112 410.862 277.46C404.647 282.038 399.349 286.48 395.016 292.792C394.102 294.123 393.05 295.475 391.972 296.859C388.815 300.913 385.443 305.245 384.716 310.132C381.833 306.229 379.511 301.982 377.295 297.678C376.997 297.099 376.431 296.206 375.78 295.18C374.115 292.553 371.893 289.048 372.166 287.662C372.702 284.936 377.208 282.202 380.895 279.965C382.568 278.95 384.072 278.037 384.96 277.274C391.226 271.89 391.851 266.346 389.906 258.979C389.577 257.733 389.356 256.331 389.128 254.883C388.392 250.214 387.581 245.071 382.844 243.16C376.594 240.638 371.832 247.836 368.921 252.235L368.917 252.241C365.114 257.988 362.626 257.869 361.587 250.12C361.432 248.962 361.271 247.801 361.111 246.637C360.382 241.355 359.647 236.024 359.351 230.726C359.306 229.921 359.255 229.168 359.207 228.462C358.782 222.183 358.605 219.564 364.974 215.769C375.023 209.78 389.385 199.503 390.696 186.894C391.261 181.468 391.269 170.485 387.574 166.109C383.756 161.588 380.879 165.126 378.181 168.444C377.474 169.314 376.779 170.168 376.083 170.858C375.68 171.257 375.244 171.697 374.78 172.164C371.306 175.665 366.289 180.72 362.273 182.041C358.503 183.281 358.465 182.99 358.05 179.807C358.028 179.646 358.006 179.477 357.983 179.3C357.676 177.009 358.207 174.304 358.711 171.728C358.954 170.488 359.192 169.279 359.327 168.159C359.417 167.409 359.451 166.543 359.486 165.64C359.561 163.715 359.643 161.622 360.297 160.125C361.071 158.356 360.941 157.887 360.866 157.785L360.86 157.777L360.864 157.78C360.98 157.821 361.501 157.855 363.271 157.058C363.969 156.744 364.642 156.47 365.298 156.203C367.151 155.45 368.875 154.749 370.666 153.334C375.166 149.781 379.595 143.421 379.173 137.405C378.357 125.782 368.943 115.406 357.256 116.118C352.564 116.404 350.929 119.147 349.236 121.988C348.181 123.759 347.103 125.568 345.248 126.843C342.614 128.654 338.298 128.644 334.148 128.634C331.603 128.628 329.12 128.622 327.125 129.036C326.195 126.509 328.474 121.761 330.212 118.139C330.857 116.796 331.428 115.607 331.733 114.743C331.901 114.268 332.07 113.792 332.24 113.315C333.921 108.592 335.651 103.733 336.315 98.7782ZM360.86 157.777L360.858 157.775C360.835 157.751 360.823 157.761 360.851 157.775L360.86 157.777ZM314.907 69.6882C316.97 69.2762 321.904 68.3502 323.985 68.3908C327.243 68.4582 327.428 69.3303 328.075 72.3637C328.142 72.6787 328.214 73.017 328.295 73.3802C331.232 86.5392 329.846 100.032 326.127 112.853C309.149 105.687 288.468 102.113 270.024 104.698L269.992 104.695H269.989L269.178 104.618C250.006 102.876 231.097 106.458 214.245 115.927C212.85 116.711 211.456 117.499 210.062 118.288C203.44 122.031 196.813 125.778 190.027 129.102C185.386 131.376 181.222 134.463 177.106 137.514C174.743 139.265 172.397 141.005 169.985 142.572C166.429 144.883 162.807 147.114 159.182 149.347C147.661 156.444 136.118 163.554 126.593 173.295C125.583 174.328 124.612 175.246 123.701 176.109C119.737 179.859 116.889 182.555 116.785 188.986C116.709 193.704 116.745 198.425 116.782 203.149C116.822 208.489 116.863 213.833 116.743 219.181C111.786 216.946 109.494 211.776 108.006 206.842C107.773 206.07 107.541 204.943 107.276 203.657C106.471 199.751 105.363 194.371 103.006 192.95C99.0361 190.557 90.0238 204.69 85.8556 211.227C85.1392 212.351 84.5658 213.25 84.1858 213.802C80.2816 219.471 76.7999 225.402 73.3183 231.333C70.9491 235.369 68.5799 239.405 66.0778 243.358C65.6173 244.086 65.1537 244.814 64.6893 245.544C62.2174 249.427 59.7227 253.346 57.5398 257.379C56.9576 258.455 56.434 259.599 55.9073 260.749C54.1299 264.632 52.3183 268.59 48.1078 270.248C51.2548 259.142 55.2378 248.602 60.5088 238.356C62.8952 233.716 65.6562 229.181 68.3789 224.709C68.6169 224.319 68.8547 223.928 69.0918 223.538C69.7629 222.435 70.5058 221.352 71.251 220.266C73.5351 216.936 75.8418 213.574 76.1758 209.485C77.3738 194.828 60.5218 210.3 57.2238 213.888C55.8483 215.384 54.4224 217.066 52.9412 218.812C47.7025 224.989 41.7713 231.982 34.9298 234.498C39.7008 225.852 45.6518 216.902 52.8268 210.101C53.3023 209.651 53.8296 209.186 54.3755 208.704C56.357 206.958 58.5836 204.995 59.4648 202.712C60.3318 200.465 59.8228 195.494 56.3438 195.545C54.7497 195.568 51.1129 198.543 48.1896 200.933C46.6899 202.16 45.3779 203.233 44.6258 203.675C43.2062 204.51 41.7465 205.31 40.2832 206.111C37.7626 207.493 35.2319 208.88 32.8788 210.458C31.2022 211.583 29.1625 213.518 26.9572 215.611C22.4453 219.892 17.2403 224.831 13.0328 224.831C14.052 219.547 19.9392 215.022 24.6026 211.438C25.6265 210.651 26.5914 209.91 27.4328 209.215C33.7838 203.972 40.2738 198.917 46.9408 194.08C54.554 188.556 62.6159 183.618 70.6805 178.679C76.3231 175.222 81.9671 171.765 87.4598 168.106C108.44 154.128 130.089 140.59 151.48 127.426C156.058 124.609 160.449 121.586 164.837 118.566C171.387 114.058 177.93 109.555 185.078 105.743C196.982 99.3951 209.118 94.5282 221.62 89.5232C233.059 84.9432 246.41 81.9952 258.443 79.8362C263.277 78.9688 268.111 78.0513 272.948 77.1332C281.233 75.5608 289.526 73.9867 297.845 72.6602C303.722 71.7222 309.297 70.8102 314.907 69.6882ZM847.635 57.126C852.2 54.1623 856.938 51.0863 860.813 47.5782C857.595 54.6986 849.256 61.8254 842.608 67.5081C841.378 68.5589 840.207 69.5603 839.136 70.5032C838.737 70.8538 838.332 71.2 837.927 71.546C834.83 74.1892 831.748 76.8191 832.027 81.3422C832.304 85.8282 834.139 86.2072 837.837 84.8222C844.719 82.2445 851.722 75.7383 857.147 70.6977C857.366 70.4937 857.583 70.292 857.798 70.0932C858.836 69.13 860.076 67.8657 861.454 66.4612C866.769 61.0442 874.129 53.5432 879.79 53.2042C872.566 61.5062 864.783 68.7192 856.263 75.4832C855.087 76.4161 853.853 77.336 852.606 78.2647C849.56 80.5344 846.442 82.8575 843.941 85.5562C842.14 87.4982 837.403 96.1752 842.376 97.7272C843.873 98.195 848.71 94.7418 851.017 93.0948C851.442 92.7913 851.781 92.5492 851.998 92.4042C856.752 89.2205 861.239 85.7197 865.745 82.2036L866.673 81.4802C868.201 80.2892 869.929 78.7961 871.794 77.1838C878.681 71.2325 887.447 63.6572 894.982 63.6572C886.699 71.3151 877.64 78.0835 868.606 84.8337C860.303 91.0374 852.02 97.2258 844.38 104.075C843.438 104.919 842.206 105.902 840.834 106.996C834.916 111.717 826.413 118.499 827.562 125.027C827.776 126.248 828.364 126.807 829.003 127.414C829.457 127.845 829.937 128.301 830.328 129.036C830.794 129.911 831.085 130.846 831.379 131.789C831.735 132.934 832.095 134.09 832.776 135.166C833.585 136.446 835.563 137.974 837.571 139.525C840.181 141.541 842.842 143.597 843.058 145.199C839.352 144.087 835.69 143.57 832.004 143.05C829.624 142.714 827.234 142.377 824.816 141.877C821.749 141.243 818.926 139.927 816.103 138.61C813.994 137.627 811.885 136.644 809.675 135.945C801.285 133.292 793.338 137.881 785.762 142.255C783.218 143.724 780.716 145.169 778.253 146.307C763.221 153.253 748.515 160.888 733.873 168.489C731.879 169.524 729.885 170.559 727.893 171.591C710.382 180.661 691.243 189.307 672.809 195.323C666.244 197.465 659.835 200.288 653.412 203.118C642.138 208.084 630.823 213.068 618.553 214.419C617.264 213.563 615.95 213.695 614.625 214.324C615.286 214.34 615.948 214.356 616.609 214.372C617.256 214.388 617.904 214.403 618.552 214.419C616.141 214.361 613.831 214.364 611.56 214.367L610.962 214.367L612.093 214.348C610.63 213.326 609.19 213.73 607.754 214.344L607.717 214.36L606.708 214.35C603.678 214.311 600.638 214.193 597.437 213.846C589.196 212.953 581.837 210.872 574.223 207.718C567.115 204.774 559.754 201.615 552.855 198.073C551.899 197.582 550.881 197.087 549.841 196.581C546.911 195.155 543.8 193.642 541.377 191.886C539.758 190.713 539.153 190.664 538.949 190.352C538.771 190.081 538.895 189.612 538.918 188.036C538.934 186.894 539.838 185.192 540.667 183.631C541.148 182.726 541.604 181.867 541.847 181.193C542.32 179.881 542.724 177.975 543.171 175.86C544.568 169.266 546.395 160.638 552.1 161.635C554.199 162.002 556.664 163.926 558.989 165.741C560.357 166.809 561.677 167.839 562.846 168.492C565.59 170.026 568.468 171.338 571.335 172.645C572.054 172.973 572.773 173.301 573.488 173.631C575.084 174.369 576.729 175.172 578.408 175.992C584.715 179.071 591.514 182.39 598.09 183.389C604.92 184.426 612.126 184.381 619.078 184.338C619.988 184.333 620.893 184.327 621.792 184.324C633.629 184.282 644.106 179.819 654.661 175.323C657.625 174.06 660.595 172.795 663.603 171.624C677.68 166.145 691.778 160.577 705.48 154.181C734.54 140.615 761.009 123.056 786.407 103.598C791.548 99.6595 796.578 95.5685 801.604 91.4798C809.799 84.8141 817.987 78.1546 826.637 72.1722C829.238 70.3732 831.767 68.4534 834.3 66.5297C836.999 64.4807 839.704 62.4272 842.509 60.5102C844.153 59.3866 845.881 58.2646 847.635 57.126ZM607.717 214.36L607.706 214.365L607.718 214.36L607.717 214.36ZM462.273 60.3139C464.635 57.6956 467.752 54.2408 470.003 53.5272C471.891 52.9277 474.129 55.7563 476.163 58.3264C477.03 59.4217 477.859 60.4701 478.609 61.1862C479.49 62.0276 480.374 62.8965 481.267 63.7738C484.622 67.0687 488.097 70.4822 491.948 73.0102C495.598 75.4052 500.734 76.9042 504.992 77.7572C507.812 78.3219 510.444 77.6875 513.072 77.0539C515.317 76.5129 517.559 75.9724 519.914 76.1802C519.483 77.1194 518.991 78.4034 518.432 79.8594C515.522 87.438 510.824 99.6764 503.857 92.2082C499.941 96.2542 500.629 100.116 505.669 102.606C503.831 104.184 502.014 105.839 500.185 107.504C494.738 112.465 489.19 117.516 482.704 120.903C476.441 124.173 464.731 119.308 458.477 116.382L458.475 116.381C458.543 116.398 458.612 116.414 458.681 116.43C459.122 116.534 459.562 116.637 459.968 116.806C459.273 115.222 457.863 114.995 456.454 114.767C456.281 114.739 456.109 114.711 455.937 114.681C455.993 114.802 456.054 114.914 456.119 115.016C449.535 110.437 445.351 100.863 443.431 93.5752C443.376 93.3684 443.319 93.1448 443.259 92.9091C442.415 89.6158 440.961 83.9409 437.904 88.2272C436.571 90.098 438.536 97.2711 439.832 102C440.219 103.411 440.546 104.604 440.708 105.374C440.248 105.472 439.701 105.624 439.101 105.79C437.575 106.214 435.705 106.732 434.061 106.701C434.237 106.698 434.417 106.689 434.6 106.675C433.933 106.37 433.267 106.065 432.6 105.76C431.934 105.455 431.267 105.151 430.601 104.846L430.338 104.55C426.203 99.7012 425.701 89.8848 425.349 82.9871C425.298 82.0043 425.251 81.0807 425.197 80.2392L425.435 80.314C428.758 81.3607 431.597 82.2546 434.963 81.1792C438.298 80.1135 438.678 78.7824 439.199 76.9602L439.237 76.827L439.285 76.6589L439.288 76.7129L439.289 76.7289L439.291 76.7649L439.289 76.7389L439.294 76.8389V76.8419L439.295 76.8699L439.296 76.8859L439.298 76.9249L439.3 76.9649L439.301 76.9919L439.302 77.0149L439.303 77.0299L439.305 77.0749V77.0809L439.307 77.1009L439.287 76.6528C439.523 75.8401 439.818 74.933 440.422 73.9132C440.636 73.552 441.211 73.1241 441.861 72.6406C443.63 71.325 445.953 69.5972 443.058 67.6792C442.598 67.3753 440.874 67.739 439.476 68.034C438.743 68.1885 438.1 68.3242 437.775 68.3352C434.987 68.4322 432.29 68.2012 429.742 66.9382C434.114 55.8692 442.166 55.8362 449.779 64.9572C450.324 65.6106 450.703 66.1899 451.023 66.6802C451.89 68.0059 452.331 68.681 454.501 68.4102C455.886 68.2376 457.466 66.1124 458.771 64.3553C459.35 63.5766 459.875 62.8702 460.306 62.4382C460.851 61.8902 461.524 61.1441 462.273 60.3139ZM439.288 76.7129L439.289 76.7199L439.287 76.6789L439.288 76.7129ZM316.596 117.286C316.833 118.259 317.065 119.209 317.295 120.161C318.69 117.525 318.69 117.525 316.596 117.286Z" fill="#0F1726"/>
<path d="M41.3426 270.956L41.3421 270.626C41.3413 270.402 41.3405 270.178 41.3397 269.954L41.3388 269.717L41.3366 269.485L41.3392 270.322L41.3406 270.977L41.3426 270.956Z" fill="#0F1726"/>
<path d="M251.749 401.753C254.719 398.971 258.15 395.758 259.211 392.535C260.693 388.035 258.069 384.799 253.798 385.502C250.581 386.031 245.12 391.017 241.865 393.99C241.419 394.397 241.015 394.766 240.663 395.081C237.901 397.553 234.953 400.666 232.288 403.479C231.757 404.039 231.238 404.588 230.733 405.117C223.382 412.825 216.195 422.847 210.932 432.097C205.194 442.183 200.785 452.962 197.003 463.929C195.462 468.398 191.556 491.491 202.78 488.389C207.18 469.015 216.788 449.725 227.33 433.171C233.9 422.852 240.382 413.691 248.753 404.676C249.588 403.776 250.636 402.795 251.749 401.753Z" fill="#0F1726"/>
<path fill-rule="evenodd" clip-rule="evenodd" d="M672.265 365.533C669.906 352.021 666.712 337.017 660.163 324.869C660.022 324.608 659.849 324.282 659.648 323.901C656.597 318.153 646.933 299.942 641.751 304.532C639.115 306.866 641.279 318.908 642.807 320.976C643.65 322.117 644.331 322.19 644.999 322.262C645.493 322.315 645.981 322.368 646.521 322.85C647.927 324.105 649.133 327.348 650.039 329.783C650.291 330.461 650.52 331.076 650.723 331.568C660.574 355.428 663.884 383.734 665.907 409.348C666.155 412.488 666.316 415.641 666.477 418.794C666.69 422.981 666.904 427.168 667.321 431.327C667.614 434.241 669.022 444.9 673.735 438.955C676.219 435.823 676.085 429.232 675.988 424.411C675.964 423.232 675.942 422.158 675.961 421.267C675.991 419.888 676.044 418.508 676.098 417.127C676.165 415.371 676.233 413.614 676.252 411.86C677.039 410.329 676.961 408.775 676.316 407.206C676.294 408.135 676.271 409.065 676.249 409.995C676.221 407.849 676.093 405.708 675.774 403.577C676.097 391.147 674.403 377.775 672.265 365.533ZM676.249 409.995C676.234 410.648 676.218 411.301 676.203 411.954L676.249 410.005C676.249 410.001 676.249 409.998 676.249 409.995Z" fill="#0F1726"/>
<path d="M190.626 403.706C199.371 399.058 218.139 389.083 211.625 384.541C208.57 382.411 200.799 386.759 195.656 389.636C194.106 390.503 192.795 391.236 191.924 391.618C186.661 393.928 181.694 396.766 176.715 399.611C174.251 401.018 171.784 402.428 169.278 403.775C161.824 407.782 136.133 423.423 145.257 434.165C149.58 431.532 153.699 428.408 157.815 425.287C160.63 423.152 163.443 421.019 166.319 419.044C171.712 415.341 177.19 411.882 182.697 408.405C184.073 407.536 185.452 406.666 186.831 405.79C187.483 405.376 188.847 404.652 190.626 403.706Z" fill="#0F1726"/>
<path d="M705.663 385.269C705.331 368.765 700.343 353.74 694.943 338.344C693.742 334.92 687.743 321.735 685.959 332.263C685.046 337.665 686.732 343.962 688.267 349.695C688.766 351.559 689.25 353.364 689.622 355.06C692.889 369.913 694.694 385.14 696.019 400.27C695.857 406.288 699.485 414.044 703.515 405.278C705.937 400.01 705.777 390.988 705.663 385.269Z" fill="#0F1726"/>
<path d="M695.945 402.993L695.953 402.664L695.947 402.849L695.939 403.165L695.945 402.993Z" fill="#0F1726"/>
<path d="M731.637 387.35C734.539 382.817 731.53 371.834 729.774 367.224C727.553 361.389 723.436 353.334 719.501 361.713C721.016 365.601 721.597 369.659 722.179 373.732C722.588 376.59 722.998 379.456 723.733 382.276C724.866 386.62 727.764 393.399 731.637 387.35Z" fill="#0F1726"/>
<path d="M169.718 367.772C173.555 366.255 177.944 364.521 177.944 360.79C174.064 360.79 155.164 365.686 158.319 371.457C159.687 373.957 161.884 372.354 164.112 370.728C164.943 370.121 165.779 369.512 166.577 369.111C167.49 368.653 168.579 368.222 169.718 367.772Z" fill="#0F1726"/>
<path d="M357.885 59.4918L357.526 59.4439L358.21 59.5339L357.885 59.4918Z" fill="#0F1726"/>
<defs>
<linearGradient id="paint0_linear" x1="142" y1="289" x2="740" y2="761" gradientUnits="userSpaceOnUse">
<stop stop-color="#28DCAA" stop-opacity="0"/>
<stop offset="1" stop-color="#28DCAA"/>
</linearGradient>
</defs>
</svg>
