<?xml version="1.0" standalone="no"?>
<!DOCTYPE svg PUBLIC "-//W3C//DTD SVG 20010904//EN"
 "http://www.w3.org/TR/2001/REC-SVG-20010904/DTD/svg10.dtd">
<svg version="1.0" xmlns="http://www.w3.org/2000/svg"
 width="512.000000pt" height="512.000000pt" viewBox="0 0 512.000000 512.000000"
 preserveAspectRatio="xMidYMid meet">
<metadata>
Created by potrace 1.11, written by Peter Selinger 2001-2013
</metadata>
<g transform="translate(0.000000,512.000000) scale(0.100000,-0.100000)"
fill="#000000" stroke="none">
<path d="M2428 5015 c-2 -2 -39 -6 -83 -10 -281 -24 -578 -110 -850 -246 -156
-77 -143 -70 -275 -158 -80 -53 -203 -146 -246 -186 -103 -93 -245 -241 -300
-312 -42 -53 -144 -193 -144 -197 0 -2 -16 -28 -35 -58 -152 -229 -297 -627
-340 -930 -27 -194 -27 -603 0 -708 2 -8 6 -33 10 -55 14 -94 59 -275 96 -381
57 -165 162 -392 220 -476 11 -14 19 -29 19 -32 0 -3 21 -36 47 -73 189 -274
422 -504 688 -681 245 -163 596 -308 860 -356 102 -19 147 -26 200 -32 33 -4
74 -8 90 -10 98 -11 393 -4 505 12 19 2 49 6 66 8 144 18 390 86 553 153 146
60 351 166 359 185 2 4 8 8 14 8 13 0 147 93 243 168 39 31 131 116 205 191
359 362 585 798 677 1310 21 123 26 181 28 366 2 121 -1 252 -5 290 -14 120
-21 169 -25 185 -2 8 -7 30 -10 48 -14 81 -53 227 -88 327 -251 716 -805 1269
-1517 1517 -142 49 -337 96 -470 113 -25 3 -61 8 -80 11 -37 5 -407 13 -412 9z"/>
</g>
</svg>
